<svg width="120" height="29" viewBox="0 0 120 29" fill="none" xmlns="http://www.w3.org/2000/svg">
<path d="M34.8262 8.62292H37.8262V20.7529H34.8262V8.62292ZM39.0162 16.1729C39.0162 13.1729 40.8562 11.3829 43.6962 11.3829C46.5362 11.3829 48.3762 13.1729 48.3762 16.1729C48.3762 19.1729 46.5762 20.9729 43.6962 20.9729C40.8162 20.9729 39.0162 19.2229 39.0162 16.1729ZM45.3662 16.1729C45.3662 14.5229 44.7162 13.5529 43.6962 13.5529C42.6762 13.5529 42.0362 14.5529 42.0362 16.1729C42.0362 17.7929 42.6662 18.7729 43.6962 18.7729C44.7262 18.7729 45.3662 17.8529 45.3662 16.1829V16.1729ZM49.5062 21.3429H52.3862C52.5233 21.6474 52.755 21.8995 53.0469 22.0617C53.3388 22.2238 53.6753 22.2874 54.0062 22.2429C55.1462 22.2429 55.7462 21.6229 55.7462 20.7229V19.0429H55.6862C55.4472 19.5578 55.0593 19.9892 54.5727 20.2816C54.0861 20.5739 53.523 20.7137 52.9562 20.6829C50.7662 20.6829 49.3162 19.0129 49.3162 16.1429C49.3162 13.2729 50.6962 11.4629 52.9962 11.4629C53.5808 11.44 54.1584 11.5963 54.6517 11.9108C55.145 12.2254 55.5304 12.6832 55.7562 13.2229V11.5529H58.7562V20.6529C58.7562 22.8429 56.8262 24.2029 53.9762 24.2029C51.3262 24.2029 49.6762 23.0129 49.5062 21.3529V21.3429ZM55.7562 16.1629C55.7562 14.7029 55.0862 13.7829 54.0262 13.7829C52.9662 13.7829 52.3162 14.6929 52.3162 16.1629C52.3162 17.6329 52.9562 18.4629 54.0262 18.4629C55.0962 18.4629 55.7562 17.6529 55.7562 16.1729V16.1629ZM59.8862 16.1629C59.8862 13.1629 61.7262 11.3729 64.5662 11.3729C67.4062 11.3729 69.2562 13.1629 69.2562 16.1629C69.2562 19.1629 67.4562 20.9629 64.5662 20.9629C61.6762 20.9629 59.8862 19.2229 59.8862 16.1729V16.1629ZM66.2362 16.1629C66.2362 14.5129 65.5862 13.5429 64.5662 13.5429C63.5462 13.5429 62.9562 14.5529 62.9562 16.1829C62.9562 17.8129 63.5862 18.7829 64.6062 18.7829C65.6262 18.7829 66.2362 17.8529 66.2362 16.1829V16.1629ZM70.3962 9.37292C70.3883 9.07002 70.4706 8.77162 70.6325 8.51553C70.7945 8.25943 71.0288 8.05719 71.3058 7.93443C71.5828 7.81167 71.89 7.77392 72.1885 7.82597C72.487 7.87803 72.7633 8.01754 72.9824 8.22681C73.2016 8.43609 73.3536 8.70572 73.4193 9.00152C73.485 9.29732 73.4614 9.60592 73.3514 9.88832C73.2415 10.1706 73.0502 10.414 72.8018 10.5875C72.5535 10.761 72.2591 10.8569 71.9562 10.8629C71.7554 10.8767 71.5539 10.8488 71.3644 10.781C71.1748 10.7132 71.0014 10.607 70.8549 10.4689C70.7084 10.3309 70.592 10.164 70.5131 9.97882C70.4341 9.79372 70.3943 9.59422 70.3962 9.39292V9.37292ZM70.3962 11.5729H73.3962V20.7529H70.3962V11.5729ZM84.2862 16.1629C84.2862 19.1629 82.9562 20.8729 80.6762 20.8729C80.0916 20.9104 79.5095 20.7675 79.0087 20.4635C78.5079 20.1594 78.1126 19.7089 77.8762 19.1729H77.8162V23.6929H74.8162V11.5529H77.8162V13.1929H77.8762C78.1016 12.648 78.4894 12.1858 78.9868 11.8691C79.4842 11.5524 80.0671 11.3966 80.6562 11.4229C82.9562 11.4629 84.3262 13.1829 84.3262 16.1829L84.2862 16.1629ZM81.2862 16.1629C81.2862 14.7029 80.6162 13.7729 79.5662 13.7729C78.5162 13.7729 77.8462 14.7129 77.8362 16.1629C77.8262 17.6129 78.5162 18.5429 79.5662 18.5429C80.6162 18.5429 81.2862 17.6329 81.2862 16.1829V16.1629ZM89.4362 11.3629C91.9262 11.3629 93.4362 12.5429 93.5062 14.4329H90.7762C90.7762 13.7829 90.2362 13.3729 89.4062 13.3729C88.5762 13.3729 88.2062 13.6929 88.2062 14.1629C88.2062 14.6329 88.5362 14.7829 89.2062 14.9229L91.1262 15.3129C92.9562 15.7029 93.7362 16.4429 93.7362 17.8329C93.7362 19.7329 92.0062 20.9529 89.4562 20.9529C86.9062 20.9529 85.2362 19.7329 85.1062 17.8629H87.9962C88.0862 18.5429 88.6262 18.9429 89.5062 18.9429C90.3862 18.9429 90.7862 18.6529 90.7862 18.1729C90.7862 17.6929 90.5062 17.5929 89.7862 17.4429L88.0562 17.0729C86.2662 16.7029 85.3262 15.7529 85.3262 14.3529C85.3462 12.5529 86.9562 11.3829 89.4362 11.3829V11.3629ZM103.746 20.7329H100.856V19.0229H100.796C100.637 19.597 100.287 20.0995 99.8032 20.447C99.3192 20.7944 98.7312 20.9659 98.1362 20.9329C97.6804 20.9588 97.2244 20.8866 96.7989 20.7211C96.3734 20.5556 95.9884 20.3008 95.6699 19.9737C95.3514 19.6467 95.1067 19.255 94.9526 18.8253C94.7984 18.3956 94.7383 17.9378 94.7762 17.4829V11.5529H97.7762V16.7929C97.7762 17.8829 98.3362 18.4629 99.2662 18.4629C99.4842 18.4633 99.7002 18.4172 99.8992 18.3275C100.097 18.2378 100.275 18.1066 100.419 17.9428C100.562 17.7789 100.67 17.5862 100.733 17.3776C100.796 17.1689 100.815 16.9491 100.786 16.7329V11.5529H103.786L103.746 20.7329ZM105.196 11.5529H108.096V13.3229H108.156C108.315 12.7564 108.658 12.2586 109.13 11.9076C109.602 11.5566 110.178 11.372 110.766 11.3829C111.365 11.335 111.959 11.5141 112.432 11.8847C112.904 12.2553 113.22 12.7901 113.316 13.3829H113.376C113.557 12.7838 113.933 12.2622 114.444 11.9001C114.954 11.538 115.571 11.356 116.196 11.3829C116.604 11.3692 117.01 11.4415 117.388 11.5951C117.767 11.7486 118.108 11.9801 118.391 12.2743C118.674 12.5686 118.892 12.9191 119.031 13.303C119.169 13.6869 119.226 14.0958 119.196 14.5029V20.7529H116.196V15.3029C116.196 14.3029 115.746 13.8429 114.906 13.8429C114.719 13.8413 114.533 13.8799 114.362 13.9561C114.191 14.0323 114.038 14.1443 113.914 14.2846C113.79 14.4249 113.697 14.5901 113.642 14.7692C113.587 14.9484 113.572 15.1372 113.596 15.3229V20.7529H110.746V15.2629C110.746 14.3429 110.296 13.8429 109.476 13.8429C109.287 13.843 109.099 13.8832 108.927 13.9609C108.754 14.0387 108.599 14.1522 108.474 14.2939C108.348 14.4356 108.254 14.6024 108.197 14.7833C108.141 14.9641 108.123 15.1548 108.146 15.3429V20.7529H105.146L105.196 11.5529Z" fill="#FEFBF9"/>
<path d="M26.4366 9.17311C25.9277 8.00947 25.2542 6.92505 24.4366 5.95311C23.2281 4.47345 21.7199 3.2665 20.0113 2.41171C18.3027 1.55693 16.4324 1.07369 14.5236 0.993775C12.6148 0.913865 10.7107 1.2391 8.93664 1.9481C7.16261 2.65709 5.55881 3.73377 4.23084 5.10724C2.90286 6.48071 1.88081 8.11986 1.23196 9.91681C0.583108 11.7137 0.322158 13.6277 0.466298 15.5327C0.610448 17.4378 1.1564 19.2907 2.06824 20.9695C2.98008 22.6484 4.23713 24.1151 5.75665 25.2731C6.73165 26.031 7.809 26.6471 8.95664 27.1031C10.5656 27.7625 12.2877 28.1021 14.0266 28.1031C17.616 28.0952 21.0558 26.6644 23.5921 24.1244C26.1283 21.5844 27.554 18.1425 27.5566 14.5531C27.5592 12.7016 27.1779 10.8697 26.4366 9.17311ZM14.0166 3.74311C15.5782 3.74295 17.1209 4.08425 18.5366 4.74311C18.1914 4.89228 17.8284 4.99646 17.4566 5.05311C16.2332 5.2302 15.0999 5.79819 14.2258 6.67229C13.3517 7.54638 12.7837 8.67972 12.6066 9.90312C12.5289 10.5892 12.2168 11.2275 11.7231 11.7103C11.2294 12.1931 10.5843 12.4907 9.89664 12.5531C8.67324 12.7302 7.53991 13.2982 6.66582 14.1723C5.79173 15.0464 5.22374 16.1797 5.04665 17.4031C4.98669 18.0555 4.70834 18.6686 4.25665 19.1431C3.4773 17.4964 3.1272 15.6792 3.23892 13.8608C3.35064 12.0424 3.92055 10.2818 4.89562 8.74282C5.87068 7.2039 7.21922 5.93662 8.81574 5.05895C10.4122 4.18128 12.2048 3.72176 14.0266 3.72311L14.0166 3.74311ZM5.74665 21.5531C5.86665 21.4431 5.98665 21.3431 6.10665 21.2231C6.9963 20.3606 7.56736 19.222 7.72665 17.9931C7.79123 17.3023 8.09964 16.6571 8.59664 16.1731C9.07494 15.6753 9.71864 15.3694 10.4066 15.3131C11.63 15.136 12.7633 14.568 13.6374 13.6939C14.5115 12.8198 15.0795 11.6865 15.2566 10.4631C15.2999 9.74061 15.6099 9.05991 16.1266 8.55311C16.6167 8.06496 17.2665 7.77021 17.9566 7.7231C19.0805 7.56847 20.1287 7.06882 20.9566 6.29311C21.8993 7.07518 22.6979 8.01601 23.3166 9.07312C23.2786 9.12442 23.235 9.17141 23.1866 9.21311C22.7093 9.71531 22.0664 10.0279 21.3766 10.0931C20.1519 10.2671 19.0169 10.8341 18.1422 11.7087C17.2676 12.5834 16.7006 13.7184 16.5266 14.9431C16.4561 15.6315 16.1498 16.2744 15.6596 16.7628C15.1693 17.2513 14.5253 17.5552 13.8366 17.6231C12.6096 17.7988 11.4721 18.3657 10.5929 19.2394C9.71384 20.1132 9.13994 21.2472 8.95664 22.4731C8.90284 22.9618 8.73494 23.4311 8.46664 23.8431C7.44064 23.2339 6.52174 22.4603 5.74665 21.5531ZM14.0166 25.4131C13.0019 25.4142 11.992 25.2728 11.0166 24.9931C11.3503 24.3711 11.5672 23.6932 11.6566 22.9931C11.7267 22.3062 12.0316 21.6645 12.5198 21.1763C13.008 20.6881 13.6497 20.3832 14.3366 20.3131C15.5618 20.138 16.6974 19.5709 17.5735 18.6966C18.4495 17.8224 19.019 16.6879 19.1966 15.4631C19.2667 14.7762 19.5716 14.1345 20.0598 13.6463C20.548 13.1581 21.1897 12.8532 21.8766 12.7831C22.7986 12.6632 23.6774 12.3199 24.4366 11.7831C24.8582 13.381 24.9081 15.0542 24.5826 16.6744C24.2571 18.2946 23.5647 19.8188 22.5587 21.1299C21.5527 22.4409 20.2598 23.5042 18.779 24.238C17.2983 24.9718 15.6692 25.3567 14.0166 25.3631V25.4131Z" fill="#FEFBF9"/>
</svg>
