<svg width="124" height="124" viewBox="0 0 124 124" fill="none" xmlns="http://www.w3.org/2000/svg">
<path d="M60.1652 4.22912C60.8617 2.62379 63.1383 2.62379 63.8348 4.22912L71.2676 21.3616C71.78 22.5428 73.2589 22.939 74.2933 22.1723L89.2965 11.0516C90.7023 10.0095 92.6739 11.1478 92.4744 12.8863L90.3452 31.4399C90.1983 32.7191 91.2809 33.8017 92.5601 33.6548L111.114 31.5256C112.852 31.3261 113.99 33.2977 112.948 34.7035L101.828 49.7067C101.061 50.7411 101.457 52.22 102.638 52.7324L119.771 60.1652C121.376 60.8617 121.376 63.1383 119.771 63.8348L102.638 71.2676C101.457 71.78 101.061 73.2589 101.828 74.2933L112.948 89.2965C113.99 90.7023 112.852 92.6739 111.114 92.4744L92.5601 90.3452C91.2809 90.1983 90.1983 91.2809 90.3452 92.5601L92.4744 111.114C92.6739 112.852 90.7023 113.99 89.2965 112.948L74.2933 101.828C73.2589 101.061 71.78 101.457 71.2676 102.638L63.8348 119.771C63.1383 121.376 60.8617 121.376 60.1652 119.771L52.7324 102.638C52.22 101.457 50.7411 101.061 49.7067 101.828L34.7035 112.948C33.2977 113.99 31.3261 112.852 31.5256 111.114L33.6548 92.5601C33.8017 91.2809 32.7191 90.1983 31.4399 90.3452L12.8863 92.4744C11.1478 92.6739 10.0095 90.7023 11.0516 89.2965L22.1723 74.2933C22.939 73.2589 22.5428 71.78 21.3616 71.2676L4.22912 63.8348C2.62379 63.1383 2.62379 60.8617 4.22912 60.1652L21.3616 52.7324C22.5428 52.22 22.939 50.7411 22.1723 49.7067L11.0516 34.7035C10.0095 33.2977 11.1478 31.3261 12.8863 31.5256L31.4399 33.6548C32.7191 33.8017 33.8017 32.7191 33.6548 31.4399L31.5256 12.8863C31.3261 11.1478 33.2977 10.0095 34.7035 11.0516L49.7067 22.1723C50.7411 22.939 52.22 22.5428 52.7324 21.3616L60.1652 4.22912Z" fill="#5AD16A"/>
<path d="M63.1467 18.5276L68.2605 30.3148C68.9651 31.9389 70.9986 32.4838 72.4209 31.4295L82.7431 23.7784C83.6217 23.1272 84.854 23.8386 84.7293 24.9252L83.2644 37.69C83.0625 39.4489 84.5511 40.9375 86.31 40.7356L99.0748 39.2707C100.161 39.146 100.873 40.3783 100.222 41.2569L92.5705 51.5791C91.5162 53.0014 92.0611 55.0349 93.6852 55.7395L105.472 60.8533C106.476 61.2886 106.476 62.7114 105.472 63.1467L93.6852 68.2605C92.0611 68.9651 91.5162 70.9986 92.5705 72.4209L100.222 82.7431C100.873 83.6217 100.161 84.854 99.0748 84.7293L86.31 83.2644C84.5511 83.0625 83.0625 84.5511 83.2644 86.31L84.7293 99.0748C84.854 100.161 83.6217 100.873 82.7431 100.222L72.4209 92.5705C70.9986 91.5162 68.9651 92.0611 68.2605 93.6852L63.1467 105.472C62.7114 106.476 61.2886 106.476 60.8533 105.472L55.7395 93.6852C55.0349 92.0611 53.0014 91.5162 51.5791 92.5705L41.2569 100.222C40.3783 100.873 39.146 100.161 39.2707 99.0748L40.7356 86.31C40.9375 84.5511 39.4489 83.0625 37.69 83.2644L24.9252 84.7293C23.8386 84.854 23.1272 83.6217 23.7785 82.7431L31.4295 72.4209C32.4838 70.9986 31.9389 68.9651 30.3148 68.2605L18.5276 63.1467C17.5243 62.7114 17.5243 61.2886 18.5276 60.8533L30.3148 55.7395C31.9389 55.0349 32.4838 53.0014 31.4295 51.5791L23.7784 41.2569C23.1272 40.3783 23.8386 39.146 24.9252 39.2707L37.69 40.7356C39.4489 40.9375 40.9375 39.4489 40.7356 37.69L39.2707 24.9252C39.146 23.8386 40.3783 23.1272 41.2569 23.7785L51.5791 31.4295C53.0014 32.4838 55.0349 31.9389 55.7395 30.3148L60.8533 18.5276C61.2886 17.5243 62.7114 17.5243 63.1467 18.5276Z" stroke="#171717" stroke-width="1.5"/>
<path d="M82 62H62V42C73.0444 42 82 50.9556 82 62Z" fill="#171717"/>
<path d="M42 62H62V82C50.9556 82 42 73.0444 42 62Z" fill="#171717"/>
</svg>
