<svg xmlns="http://www.w3.org/2000/svg" width="132.032" height="163.819" viewBox="0 0 132.032 163.819">
  <g id="Group_27" data-name="Group 27" transform="translate(-231.776 -74.705)" style="isolation: isolate">
    <path id="Path_176" data-name="Path 176" d="M316.763,238.524a12.229,12.229,0,0,1-2.139-2.608c-6.587-15.3-13.093-30.626-19.635-45.942a20.293,20.293,0,0,0-15.676-12.69c-1.038-.2-2.118-.186-3.177-.29-1.78-.175-2.7-1.091-2.608-2.583a2.245,2.245,0,0,1,2.774-2.166c2.993.313,5.963.845,9.068,1.305a6.753,6.753,0,0,0,.083-.87c.012-2.079-.161-4.174.048-6.232.258-2.553-.216-4.319-3.027-5.106a2.286,2.286,0,0,1-1.381-3.366,2.456,2.456,0,0,1,3.453-.9,55.427,55.427,0,0,0,14.987,4.823c5.132.783,7.641-.361,10.164-4.858a34.808,34.808,0,0,0,1.7-3.605c.493-1.174.886-2.387,1.381-3.734-.527-.17-.96-.322-1.4-.449a13.9,13.9,0,0,1-7.335-4.568c-1.015-1.278-.962-2.638.1-3.555a2.376,2.376,0,0,1,3.513.451,10.286,10.286,0,0,0,6.511,3.329c.463-1.895.939-3.681,1.328-5.488a2.735,2.735,0,0,1,2.689-2.47,6.885,6.885,0,0,0,1.259-.212c3.161-.829,3.8-2.751,1.637-5.145-2.383-2.634-4.7-5.3-5.074-9.018a19.526,19.526,0,0,1,.037-4.445c.152-1.158-.113-1.945-1.19-2.224-2.555-.661-5.132-1.236-7.712-1.775a10.579,10.579,0,0,0-2.074,0c-1.787,0-2.8-.84-2.827-2.316a2.412,2.412,0,0,1,2.583-2.459,24.672,24.672,0,0,1,11.11,1.715c.336.143.679.265,1.112.433.863-6.812.269-13.244-3.469-19.133-.175.078-.3.092-.325.15-3.117,7.243-9.349,10.113-16.5,11.232-2.94.458-4.538,1.342-5.62,4.273-2.026,5.5-5.546,10.164-9.614,14.382-1.462,1.517-2.839,1.455-4.183-.124-1.607-1.885-3.377-2.479-5.36-1.8a5.341,5.341,0,0,0-3.442,4.931,9.366,9.366,0,0,0,8.7,9.846c2.629.223,3.628,1.015,3.462,2.74-.159,1.628-1.257,2.219-3.826,2.044a14.492,14.492,0,0,1-8.81-3.822l-8.168,5.59c2.555,10.4-.668,20.229-3.529,30.359,2.585,0,5.014,0,7.443,0,.852,0,1.708-.028,2.555.048a2.355,2.355,0,0,1-.046,4.71c-2.288.081-4.584.007-6.874.048-1.531.025-3.442-.389-4.475.364-.962.7-1.006,2.684-1.425,4.109-4.8,16.355-2.795,32.353,2.555,48.166.527,1.561,1.179,3.08,1.791,4.611.9,2.251.8,2.753-.93,4.294h-1.6a10.9,10.9,0,0,1-1.823-2.309,93.4,93.4,0,0,1-7.422-40.2c.279-7.185,2.3-14.041,4.268-20.911,1.858-6.49,3.617-13.017,5.095-19.6a23.943,23.943,0,0,0-.062-11.474,76.608,76.608,0,0,1-8.113,1.872c-8.838,1.089-16.456-1.266-21.673-8.9-7.4-10.818-2.516-28.015,14.029-30.232,2.88-.387,2.917-.315,3.373-3.241,1.936-12.466,9.066-20.74,20.621-25.315,10.655-4.218,21.6-4.363,32.67-1.911,1.731.384,2.509,1.49,2.217,2.926-.288,1.4-1.556,2.077-3.237,1.727-.47-.1-.935-.212-1.4-.3-8.829-1.692-17.609-1.678-26.208,1.172-9.748,3.23-16.884,9.2-19.364,19.612a32.166,32.166,0,0,0,2.654,22.527c2.228,4.411,4.736,8.681,7.256,13.272,2.15-1.552,4.282-3.037,6.329-4.627.283-.221.242-.992.191-1.492-.251-2.408-1.05-4.874-.753-7.206.937-7.321,8.546-10.687,14.838-6.794.18.111.366.207.661.375a40.862,40.862,0,0,0,8.751-15.213c.67-2.205.988-2.463,3.336-2.634a28.3,28.3,0,0,0,11.532-2.9c3.269-1.747,5.55-4.3,6.105-8.088a1.956,1.956,0,0,0-.6-1.577c-1.5-1.091-3.1-2.065-4.7-3.016-1.545-.919-2.109-2.263-1.384-3.543.693-1.22,2.037-1.48,3.617-.7,11.331,5.58,17.349,16.893,15.894,30-.315,2.855-.787,5.693-1.266,8.527a9.343,9.343,0,0,0,2.424,8.412q.929.991,1.807,2.031c3.859,4.561,2.5,10.125-3.136,12.142a3.749,3.749,0,0,0-2.551,2.935c-1.552,4.908-3.29,9.759-4.954,14.63-.067.191-.11.387-.127.442,2.774.4,5.5.721,8.193,1.225a17.335,17.335,0,0,1,3.6,1.28c1.623.7,2.192,1.959,1.607,3.294-.578,1.319-1.931,1.782-3.5,1.089A19.558,19.558,0,0,0,296.7,180.988a5.89,5.89,0,0,0,.622,2.977c.965,2.242,2.088,4.42,3.142,6.623.249.518.481,1.043.884,1.92a20.851,20.851,0,0,0,1.9-1.849,2.485,2.485,0,0,1,3.336-.847,2.247,2.247,0,0,1,.716,3.327,45.8,45.8,0,0,1-3.974,4.142c1.024,2.394,2.187,5.247,3.49,8.032a3.033,3.033,0,0,0,1.6,1.181c4.215,1.648,8.269.771,12.229-.944.308-.131.541-.725.587-1.13a11.894,11.894,0,0,1,5.88-9.211c2.535-1.57,5.09-3.108,7.623-4.683a4.348,4.348,0,0,0,2.4-4.356,3.329,3.329,0,0,0-1.342-2.155c-.41-.258-1.448.216-2.061.594a2.555,2.555,0,0,1-3.347-.138,2.252,2.252,0,0,1,.163-3.4,37.48,37.48,0,0,1,4.271-2.606,18.606,18.606,0,0,0-4.252-7.892,2.325,2.325,0,0,1-.338-2.942,2.131,2.131,0,0,1,2.608-1.027,3.946,3.946,0,0,1,1.623,1.2,24.046,24.046,0,0,1,5.633,12.492,2.578,2.578,0,0,0,.2,1.082,8.87,8.87,0,0,1,1.37,7.669,11.229,11.229,0,0,1,9.124,7.669,38.289,38.289,0,0,1,1.165,3.812c1.729,7.144,1.931,14.453,2.185,21.744.152,4.367.053,8.741.152,13.111a3.087,3.087,0,0,1-1.7,3.145h-1.6a3.869,3.869,0,0,1-1.542-3.6c-.007-5.01-.092-10.019-.168-15.031-.012-.718-.127-1.434-.2-2.24-5.281,0-10.392.037-15.5-.011a11.762,11.762,0,0,1-11.032-6.616,6.6,6.6,0,0,0-.56-.76,23.568,23.568,0,0,1-12.353,1.678c.292.73.477,1.22.684,1.7q4.406,10.36,8.817,20.713c.925,2.18.649,2.961-1.407,4.167ZM242.771,111.55a14.559,14.559,0,0,0-15.151,10.456,15.016,15.016,0,0,0,8.064,17.651c6.027,2.836,12.006,1.883,18.153-.456C249.151,130.294,242.978,122.1,242.771,111.55Zm105.9,101.22c.29-3.237-1.128-11.433-2.528-14.787-1.669-4-5.564-5.316-9.3-3.1-2.33,1.384-4.634,2.813-6.936,4.241-3.3,2.047-4.521,4.943-3.571,8.378.944,3.41,3.559,5.325,7.392,5.346,4.522.025,9.043.009,13.567,0C347.764,212.85,348.23,212.8,348.674,212.769Zm-58.415-48.063c0,3.439.106,6.824-.044,10.2a2.859,2.859,0,0,0,2.123,3.089,24.9,24.9,0,0,1,6.108-11.271Z" transform="translate(9.515 0)" fill="#f9f9f9"/>
    <path id="Path_177" data-name="Path 177" d="M255.217,161.273a10.153,10.153,0,0,1-1.766-2.155c-3.062-7.015-6.036-14.064-9.045-21.1-.46-1.08-.718-2.136.136-3.142,1.236-1.455,3.315-.981,4.178,1,1.674,3.849,3.292,7.724,4.938,11.585,1.356,3.177,2.726,6.347,4.077,9.526.935,2.2.81,2.744-.921,4.282Z" transform="translate(28.282 77.251)" fill="#f9f9f9"/>
    <path id="Path_178" data-name="Path 178" d="M265.8,129.438a16.752,16.752,0,0,1-2.728-.757,2.35,2.35,0,0,1,1.508-4.427,2.652,2.652,0,0,0,3.472-1.31,2.219,2.219,0,0,1,3.193-.755,2.437,2.437,0,0,1,.863,3.209A7.294,7.294,0,0,1,265.8,129.438Z" transform="translate(51.294 61.339)" fill="#f9f9f9"/>
    <path id="Path_179" data-name="Path 179" d="M262.912,133.969c-1.683.009-2.848-.914-2.924-2.321-.071-1.365.916-2.21,2.53-2.507a9.8,9.8,0,0,0,3.064-1.151c1.425-.826,2.687-.8,3.55.338a2.449,2.449,0,0,1-.532,3.412A9.168,9.168,0,0,1,262.912,133.969Z" transform="translate(49.123 68.641)" fill="#f9f9f9"/>
    <path id="Path_180" data-name="Path 180" d="M263.382,102.686a10.4,10.4,0,0,1-7.413-2.974,2.44,2.44,0,0,1-.246-3.545,2.319,2.319,0,0,1,3.416,0,5.924,5.924,0,0,0,5.428,1.531,2.358,2.358,0,0,1,3,1.885,2.535,2.535,0,0,1-2.208,2.827C264.636,102.569,263.888,102.617,263.382,102.686Z" transform="translate(42.723 26.97)" fill="#f9f9f9"/>
  </g>
</svg>
