<svg xmlns="http://www.w3.org/2000/svg" width="132.998" height="144.317" viewBox="0 0 132.998 144.317">
  <g id="Group_183" data-name="Group 183" transform="translate(-59.609 -393.245)" style="isolation: isolate">
    <g id="Group_35" data-name="Group 35" transform="translate(134.868 393.245)">
      <path id="Path_224" data-name="Path 224" d="M117.358,407.615a48.536,48.536,0,0,1,4.865-2.374c10.028-3.624,20.165,4.014,19.756,14.9a17.837,17.837,0,0,1-7.607,14.231,42.393,42.393,0,0,1-12.539,5.968c-6.524,2.1-13.1,4.044-19.653,6.04-1.422.431-2.316.117-2.872-1.066-3.429-7.292-6.88-14.574-10.207-21.913a51.418,51.418,0,0,1-2.163-6.457,2.051,2.051,0,0,1,1.392-2.861c1.219-.3,2.221.4,2.6,1.859,1.495,5.706,4.139,10.938,6.649,16.227,1.548,3.262,3.14,6.5,4.718,9.77a2.866,2.866,0,0,0,.445-.056c7.448-2.372,14.922-4.659,22.322-7.164a21.31,21.31,0,0,0,8.971-5.547,13.458,13.458,0,0,0,3.741-10.98,10.563,10.563,0,0,0-15.732-8.35,27.48,27.48,0,0,0-4.771,3.56c-1.328,1.147-1.951,1.489-2.953,1-1.23-.6-1.216-1.673-1.091-2.833a15.713,15.713,0,0,0-.682-6.521c-2.611-8.2-11.871-9.817-17.582-4.757-.565.5-1.052,1.088-1.62,1.589a2.049,2.049,0,0,1-2.97-2.8c7.448-8.9,19.823-6.891,24.535,1.186a18.776,18.776,0,0,1,1.564,3.588C116.882,405.082,117.08,406.385,117.358,407.615Z" transform="translate(-86.385 -393.245)" fill="#f9f9f9"/>
      <path id="Path_225" data-name="Path 225" d="M87.9,401.685a2.062,2.062,0,0,1-1.074-2.739,2.058,2.058,0,1,1,3.749,1.7A2.06,2.06,0,0,1,87.9,401.685Z" transform="translate(-86.648 -385.227)" fill="#f9f9f9"/>
    </g>
    <path id="Path_226" data-name="Path 226" d="M192.606,430.65c-2.1,4.406-5.692,7.685-8.709,11.389-5.06,6.213-10.3,12.277-15.392,18.467a22.625,22.625,0,0,1-18.159,8.536c-11.222.078-22.445.117-33.665-.031-3.866-.05-6.249,2.115-8.6,4.592a1.251,1.251,0,0,0-.111.944,8.106,8.106,0,0,1-2.458,7.8c-3.944,3.838-7.838,7.727-11.768,11.579a18.611,18.611,0,0,1-1.5,1.2H90.686c-.777-.679-1.595-1.314-2.318-2.04q-13.707-13.778-27.385-27.58c-1.82-1.834-1.829-3.056-.039-4.857,3.791-3.808,7.6-7.6,11.37-11.423a8.4,8.4,0,0,1,6.622-2.736,1.572,1.572,0,0,0,1.2-.632c8.637-15.153,27.511-18.874,41.077-13.658a6.152,6.152,0,0,0,2.143.365c8.884.022,17.766.056,26.648-.006a11.536,11.536,0,0,1,9.6,4.284,4.741,4.741,0,0,1,.593-1.286c4.815-4.991,9.658-9.948,14.485-14.927,5.8-5.984,14.56-4.272,17.708,3.471a1.527,1.527,0,0,0,.223.306Zm-87.99,38.961c.392-.362.763-.657,1.077-1,3.2-3.479,7.128-4.86,11.854-4.8,10.783.15,21.571.061,32.359.042,5.962-.008,10.958-2.093,14.743-6.861,2.263-2.847,4.657-5.589,6.992-8.381q7.377-8.822,14.752-17.647a5.2,5.2,0,0,0-7.635-7.07q-8.354,8.551-16.658,17.154a1.83,1.83,0,0,0-.507,1.1c-.167,7.192-4.325,11.281-11.523,11.286q-9.486,0-18.974,0a9.309,9.309,0,0,1-1.553-.086,2.561,2.561,0,0,1,.189-5.091,13.508,13.508,0,0,1,1.425-.044q9.552,0,19.1-.006a11.707,11.707,0,0,0,1.684-.092,5.167,5.167,0,0,0,.749-10.073,10.062,10.062,0,0,0-2.575-.256c-9.182-.017-18.367,0-27.55-.028a6.861,6.861,0,0,1-2.53-.417,29.762,29.762,0,0,0-17.719-1.45,25.692,25.692,0,0,0-17.516,12.322,1.236,1.236,0,0,0,.256,1.856c1.826,1.726,3.574,3.532,5.35,5.311C95.125,460.1,99.837,464.824,104.616,469.612Zm-12.55,19.25c3.3-3.451,6.8-7.058,10.237-10.716,1.085-1.155.888-2.608-.415-3.911q-10.7-10.717-21.421-21.415c-1.517-1.517-2.836-1.506-4.37.022-2.3,2.291-4.581,4.612-6.892,6.9-1.094,1.085-2.243,2.118-3.5,3.3Z" transform="translate(0 42.432)" fill="#f9f9f9"/>
    <path id="Path_227" data-name="Path 227" d="M85.215,430.715a2.592,2.592,0,0,1-2.555,2.558,2.668,2.668,0,0,1-2.625-2.653,2.61,2.61,0,0,1,2.717-2.53A2.543,2.543,0,0,1,85.215,430.715Z" transform="translate(36.427 62.138)" fill="#f9f9f9"/>
    <g id="Group_36" data-name="Group 36" transform="translate(74.555 405.746)">
      <path id="Path_228" data-name="Path 228" d="M81.88,452.484A28.633,28.633,0,1,1,119.7,438.172,28.6,28.6,0,0,1,81.88,452.484Zm2.179-4.726a23.426,23.426,0,1,0-11.8-30.993A23.4,23.4,0,0,0,84.06,447.758Z" transform="translate(-64.979 -397.736)" fill="#f9f9f9"/>
      <path id="Path_229" data-name="Path 229" d="M84.663,406.115c.373-.835.74-1.712,1.155-2.569a2.638,2.638,0,0,1,3.446-1.444,2.484,2.484,0,0,1,1.286,3.474c-.977,1.759-1.247,3.248.409,4.748a4.416,4.416,0,0,1,.9,1.712,2.522,2.522,0,0,1-1.322,3.37,2.584,2.584,0,0,1-3.343-1.155,17.27,17.27,0,0,0-.985-1.675,2.55,2.55,0,0,0-2.973-1.033,2.392,2.392,0,0,0-1.809,2.149A2.611,2.611,0,0,0,83,416.411c3.543,1.906,5.119,5.16,4.336,8.843-.732,3.448-3.6,5.748-7.487,6.084a1.583,1.583,0,0,0-1.033.679c-.406.657-.635,1.422-.994,2.115a2.528,2.528,0,0,1-3.4,1.228,2.378,2.378,0,0,1-1.272-3.351c1.091-1.876,1.069-3.359-.476-5a7.134,7.134,0,0,1-1.275-2.95,2.474,2.474,0,0,1,1.681-3.087,2.539,2.539,0,0,1,3.2,1.486,18.515,18.515,0,0,0,.966,2.121,2.723,2.723,0,0,0,3.067,1.436,2.383,2.383,0,0,0,1.971-2.149,2.744,2.744,0,0,0-1.751-2.889,7.787,7.787,0,0,1-1.509-13.018C80.46,406.8,81.624,406.413,84.663,406.115Z" transform="translate(-53.703 -390.326)" fill="#f9f9f9"/>
    </g>
  </g>
</svg>
