<svg xmlns="http://www.w3.org/2000/svg" width="131.66" height="131.5" viewBox="0 0 131.66 131.5">
  <g id="Group_185" data-name="Group 185" transform="translate(-478.707 -301.085)" style="isolation: isolate">
    <path id="Path_241" data-name="Path 241" d="M550.141,383.965h-29.29c0,2.412.007,4.753,0,7.092-.009,2.1-.94,3.3-2.564,3.35-1.685.045-2.7-1.2-2.7-3.378-.007-9.923.024-19.847-.031-29.771a3.21,3.21,0,0,1,2.159-3.269c7.907-3.646,15.785-7.343,23.677-11.015,1.217-.566,1.979-1.361,1.657-2.815-.443-2-1.915-2.782-3.8-1.91-7.807,3.6-15.584,7.26-23.41,10.814a6.12,6.12,0,0,1-3.276.481,48.326,48.326,0,0,0-23.209,1.695,7.524,7.524,0,0,0-5.326,6.979c-.069,9.154-.04,18.311-.019,27.467a2.307,2.307,0,0,0,2.573,2.533,2.346,2.346,0,0,0,2.666-2.611c.024-7.62.009-15.241.014-22.863a8.607,8.607,0,0,1,.052-1.641,2.555,2.555,0,0,1,2.5-2.213,2.6,2.6,0,0,1,2.661,2.213,11.734,11.734,0,0,1,.052,1.8q0,27.963.007,55.924c0,3.035,1.764,4.578,4.7,4.173,2.057-.284,3.177-1.605,3.184-3.889.019-7.017.007-14.036.007-21.052,0-3.894-.009-7.786,0-11.678.007-2.038,1.051-3.246,2.706-3.2,1.591.05,2.549,1.212,2.549,3.189q.014,16.284.009,32.566c0,2.827,1.56,4.273,4.325,4.093a3.466,3.466,0,0,0,3.553-3.707c.045-3.125.012-6.25.017-9.374,0-2.5.907-3.759,2.67-3.731s2.592,1.259,2.592,3.811c0,2.907-.033,5.812.01,8.719.055,3.766-1.257,6.8-4.746,8.513a9.6,9.6,0,0,1-10.267-.786c-.225-.156-.44-.324-.762-.559a10.37,10.37,0,0,1-7.09,2.4,8.771,8.771,0,0,1-8.728-9.024c-.021-8.058,0-16.119,0-24.177v-1.7c-1.335,0-2.533.092-3.71-.017a7.328,7.328,0,0,1-6.806-7.353q-.064-13.9,0-27.8a13.051,13.051,0,0,1,9.493-12.265c1.932-.549,3.885-1.035,6.034-1.6-4.079-4.559-5.767-9.692-3.861-15.517,1.87-5.715,5.977-9.152,12.009-10.657v-7.263c0-5.471,3.217-8.7,8.666-8.7q20.318,0,40.636,0h1.96c.272-2.142-.642-5.293,2.864-5.163,3.134.118,2.3,2.987,2.55,5.163h1.955q20.4,0,40.8,0c5.213,0,8.5,3.3,8.5,8.541q0,14.225,0,28.454a8.287,8.287,0,0,1-.04,1.477,2.612,2.612,0,0,1-5.179.021,8.063,8.063,0,0,1-.043-1.477q0-14.062,0-28.125c0-2.8-.821-3.627-3.612-3.627q-45.078,0-90.157,0c-2.808,0-3.627.817-3.631,3.605,0,2.351,0,4.7,0,7.021,10.925,2.613,16.412,14.3,9.874,24.326,3.111-1.434,5.973-2.744,8.825-4.076q5.28-2.468,10.546-4.969a7.927,7.927,0,1,1,6.794,14.324c-6.747,3.153-13.453,6.389-20.28,9.358-2.107.916-2.744,2.031-2.651,4.242.187,4.363.057,8.74.057,13.28h80.385c3.12,0,3.854-.741,3.854-3.882,0-2.907-.009-5.812,0-8.719.012-1.96.98-3.137,2.564-3.179,1.638-.043,2.684,1.181,2.694,3.215.014,3.179.01,6.361,0,9.54a7.915,7.915,0,0,1-8.262,8.285q-22.374.011-44.751,0h-1.934v4.379c0,5.812.031,11.623-.028,17.435a3.107,3.107,0,0,0,1.229,2.647q10.834,9.35,21.6,18.779c.332.289.68.559.98.878a2.579,2.579,0,0,1,.175,3.693,2.546,2.546,0,0,1-3.688.18c-1.861-1.536-3.65-3.153-5.471-4.739q-6.757-5.887-13.515-11.777c-.322-.279-.67-.526-1.283-1,0,2.7.04,5.132-.012,7.563a2.6,2.6,0,0,1-3.281,2.673,2.681,2.681,0,0,1-1.972-2.876c.014-2.341,0-4.682,0-7.331-.715.575-1.217.954-1.688,1.366q-9.062,7.879-18.11,15.771c-1.146,1-2.327,1.484-3.7.544-1.536-1.044-1.536-2.926.054-4.327,4.195-3.7,8.427-7.355,12.641-11.029,3.307-2.883,6.624-5.755,9.9-8.669a2.353,2.353,0,0,0,.862-1.435C550.158,399.108,550.141,391.606,550.141,383.965Zm-45.1-36.527a10.136,10.136,0,0,0,10.156-9.928,10.142,10.142,0,0,0-20.283-.194A10.16,10.16,0,0,0,505.04,347.438Z" fill="#f9f9f9"/>
    <path id="Path_242" data-name="Path 242" d="M527.469,315.209q-11.928,0-23.855,0a8.087,8.087,0,0,1-1.477-.04,2.612,2.612,0,0,1,0-5.18,8.076,8.076,0,0,1,1.477-.04q23.855,0,47.71,0a8.086,8.086,0,0,1,1.477.04,2.612,2.612,0,0,1,0,5.18,8.087,8.087,0,0,1-1.477.04Q539.4,315.21,527.469,315.209Z" transform="translate(28.921 12.097)" fill="#f9f9f9"/>
    <path id="Path_243" data-name="Path 243" d="M531.04,328.551q-9.612,0-19.222,0a6.771,6.771,0,0,1-1.472-.062,2.609,2.609,0,0,1,.071-5.149,8.387,8.387,0,0,1,1.638-.052h38.279c.384,0,.767-.014,1.151.007a2.629,2.629,0,1,1-.073,5.248c-.71.031-1.423.007-2.135.007Z" transform="translate(40.319 30.338)" fill="#f9f9f9"/>
    <path id="Path_244" data-name="Path 244" d="M531.031,319.657H512.957a8.529,8.529,0,0,1-1.477-.038,2.61,2.61,0,0,1,.069-5.194c.814-.08,1.64-.031,2.462-.031q17.421,0,34.837,0c.438,0,.878-.019,1.316.007a2.625,2.625,0,1,1-.071,5.241c-4.38.036-8.764.014-13.145.014Z" transform="translate(41.637 18.177)" fill="#f9f9f9"/>
    <path id="Path_245" data-name="Path 245" d="M530.816,318.835q8.543,0,17.092,0c2.081,0,3.281.971,3.3,2.6s-1.191,2.651-3.252,2.654q-17.172.011-34.347,0c-2.071,0-3.234-1-3.2-2.687.033-1.61,1.172-2.561,3.151-2.566C519.311,318.825,525.063,318.835,530.816,318.835Z" transform="translate(43.341 24.264)" fill="#f9f9f9"/>
    <path id="Path_246" data-name="Path 246" d="M534.777,327.956A2.641,2.641,0,0,1,532.1,325.4a2.619,2.619,0,0,1,5.236-.114A2.64,2.64,0,0,1,534.777,327.956Z" transform="translate(73.003 29.604)" fill="#f9f9f9"/>
    <path id="Path_247" data-name="Path 247" d="M499.528,345.272a2.62,2.62,0,0,1-5.236.163,2.62,2.62,0,0,1,5.236-.163Z" transform="translate(21.306 56.966)" fill="#f9f9f9"/>
  </g>
</svg>
