<svg xmlns="http://www.w3.org/2000/svg" width="134.716" height="134.738" viewBox="0 0 134.716 134.738">
  <g id="Group_57" data-name="Group 57" transform="translate(-390.841 -175.872)" style="isolation: isolate">
    <path id="Path_191" data-name="Path 191" d="M508.158,302.995c-.664-.56-1.373-1.074-1.985-1.686q-16.756-16.73-33.477-33.5a2.533,2.533,0,0,0-2.3-.852,19.631,19.631,0,0,1-13.227-3.334c-1.79-1.183-3.61-2.324-5.37-3.554a1.179,1.179,0,0,0-1.632.017c-.774.642-1.578,1.256-2.289,1.965q-19.59,19.568-39.165,39.157a10.2,10.2,0,0,1-1.258,1.152,2.6,2.6,0,0,1-3.571-3.686,11.242,11.242,0,0,1,1.072-1.155q14-14,28-28c.37-.372.8-.687,1.048-.9l-18.843-18.845c-.1.1-.45.411-.78.739q-9.164,9.161-18.327,18.324a7.664,7.664,0,0,1-1.185,1.033,2.592,2.592,0,0,1-3.548-3.623,8.393,8.393,0,0,1,1.049-1.172Q406,251.441,419.629,237.821c.5-.5,1.059-.919,1.777-1.535-1.232-1.2-2.257-2.259-3.357-3.243a8.991,8.991,0,0,1,2.56-15.211,1.521,1.521,0,0,0,.335-.268,8.914,8.914,0,0,1-.666-6.637,8.5,8.5,0,0,1,7.262-6.367c1.018-.156,1.334-.5,1.449-1.518a8.718,8.718,0,0,1,7.586-7.437c.809-.1,1.2-.288,1.314-1.206a8.883,8.883,0,0,1,14.749-5.537c1.866,1.71,3.52,3.652,5.515,5.749,1.464-1.572,2.685-2.932,3.961-4.242q2.526-2.591,5.117-5.115a8.954,8.954,0,0,1,15.406,5.621,4.192,4.192,0,0,0,.084.419c5.357.588,8.334,3.6,8.942,8.922,5.684.958,8,3.277,8.942,8.948.664.119,1.353.2,2.023.365a8.893,8.893,0,0,1,4.5,14.606c-1.321,1.464-2.746,2.834-4.172,4.2a1.308,1.308,0,0,0-.365,1.79,29.218,29.218,0,0,1,2.689,11.168,2.624,2.624,0,0,0,.752,1.544c5.928,5.98,11.891,11.923,17.829,17.89.61.614,1.113,1.332,1.667,2v1.578c-1.678,2.3-3.107,2.411-5.122.4-2.789-2.785-5.569-5.578-8.656-8.671-.355.525-.621.992-.958,1.394a12.764,12.764,0,0,1-1.206,1.213A2.628,2.628,0,1,1,505.9,254.9c.742-.787,1.546-1.516,2.205-2.158l-5.664-5.7c-7.115,7.119-14.292,14.3-21.273,21.284l5.731,5.729c.506-.556,1.1-1.258,1.751-1.909,1.379-1.379,2.906-1.52,4.056-.409s1.029,2.743-.368,4.155c-.666.672-1.381,1.3-2.324,2.179A13.049,13.049,0,0,1,491.4,279.1q9.408,9.382,18.789,18.783c2.013,2.015,1.874,3.5-.45,5.111Zm-60.179-47.748a17,17,0,0,1,8.349-1.97,34.33,34.33,0,0,0,21.278-7.565,129.67,129.67,0,0,0,9.465-8.92c5.217-5.141,10.36-10.356,15.549-15.523a4.038,4.038,0,0,0,1.494-3.606,3.5,3.5,0,0,0-2.493-2.949,3.606,3.606,0,0,0-3.857.992c-2.767,2.752-5.508,5.53-8.3,8.261a4.216,4.216,0,0,1-1.732,1.094,2.376,2.376,0,0,1-2.8-1.209,2.588,2.588,0,0,1,.586-3.338q4.161-4.209,8.367-8.38a3.754,3.754,0,0,0,1.276-3.546,3.511,3.511,0,0,0-2.484-2.808,3.6,3.6,0,0,0-3.848,1.01c-2.737,2.722-5.448,5.465-8.2,8.17a4.85,4.85,0,0,1-1.706,1.154,2.429,2.429,0,0,1-2.916-1.2,2.563,2.563,0,0,1,.506-3.247c2.778-2.8,5.584-5.58,8.364-8.382,1.8-1.814,1.907-4.015.309-5.573-1.552-1.511-3.712-1.384-5.478.357-1.719,1.691-3.4,3.418-5.122,5.111-1.39,1.368-2.9,1.468-4.047.3s-1.033-2.644.346-4.047c1.539-1.563,3.1-3.1,4.648-4.655.279-.279.564-.553.824-.85a3.627,3.627,0,0,0-.05-5.1,3.572,3.572,0,0,0-5.184-.007c-2.7,2.627-5.333,5.333-8.029,7.971a6.9,6.9,0,0,1-1.492.858c.726.8,1.029,1.116,1.31,1.451a8.612,8.612,0,0,1,1.565,9.1,8.372,8.372,0,0,1-7.184,5.584c-.9.11-1.124.476-1.224,1.3a8.672,8.672,0,0,1-7.552,7.61c-1.036.1-1.256.523-1.394,1.427a8.518,8.518,0,0,1-5.863,7.111,23.834,23.834,0,0,1-2.871.666,9.212,9.212,0,0,1-5.573,8.181Zm50.2-22.047c-.443.419-.791.733-1.12,1.061-4.222,4.209-8.388,8.475-12.673,12.619a40.65,40.65,0,0,1-20.9,10.892c-1.388.268-2.787.48-4.281.733a14.618,14.618,0,0,0,12.213,3.012,3.275,3.275,0,0,1,3.44,1.02c.655.748,1.362,1.451,2,2.121a2.735,2.735,0,0,0,.432-.223q11.12-11.107,22.224-22.222a1.408,1.408,0,0,0,.45-.88A22.144,22.144,0,0,0,498.176,233.2ZM419.5,245.665l18.476,18.489,5.37-5.37L424.87,240.3Zm18.238-19.183c2.093-.035,3.254-.718,3.9-2.123a3.527,3.527,0,0,0-.8-4.22c-3.081-3.115-6.166-6.228-9.3-9.292a3.627,3.627,0,0,0-5.288-.065,3.684,3.684,0,0,0,.153,5.3c3.042,3.094,6.094,6.177,9.219,9.184A8.338,8.338,0,0,0,437.742,226.482ZM446.9,191.6a4.335,4.335,0,0,0-3.507,2.35,3.673,3.673,0,0,0,.817,4.224q4.618,4.679,9.294,9.292a3.665,3.665,0,1,0,5.13-5.225c-3.042-3.089-6.092-6.174-9.216-9.182A11.912,11.912,0,0,0,446.9,191.6Zm4.041,21.844a6.716,6.716,0,0,0-1.031-2.021q-4.741-4.919-9.651-9.677a3.586,3.586,0,0,0-5.091.115,3.665,3.665,0,0,0-.011,5.1c.886.969,1.844,1.87,2.774,2.8,2.231,2.229,4.451,4.471,6.7,6.682a3.524,3.524,0,0,0,4.116.776C450.171,216.615,450.847,215.443,450.94,213.446Zm-22.1,21.965c2.11-.032,3.249-.75,3.889-2.145a3.474,3.474,0,0,0-.735-4.11q-2.682-2.789-5.465-5.48a3.638,3.638,0,0,0-5.286-.11,3.7,3.7,0,0,0,.086,5.295c1.758,1.827,3.528,3.649,5.4,5.359A8.741,8.741,0,0,0,428.839,235.411Z" transform="translate(0.032 7.615)" fill="#f9f9f9"/>
    <path id="Path_192" data-name="Path 192" d="M460.849,192.94a3.5,3.5,0,0,1-3.567,1.87c-2.575-.1-5.156-.015-7.735-.03-1.881-.013-3.05-1.077-3.014-2.7.037-1.561,1.185-2.549,3.018-2.56,2.579-.013,5.161.074,7.735-.03a3.488,3.488,0,0,1,3.563,1.87Z" transform="translate(64.708 15.819)" fill="#f9f9f9"/>
    <path id="Path_193" data-name="Path 193" d="M460.449,181.172a6.33,6.33,0,0,1-.93,1.509q-5.993,6.077-12.061,12.074a2.626,2.626,0,1,1-3.723-3.693c4.032-4.075,8.1-8.118,12.154-12.169a2.588,2.588,0,0,1,3.124-.6C460.014,178.762,460.494,179.616,460.449,181.172Z" transform="translate(60.432 2.485)" fill="#f9f9f9"/>
    <path id="Path_194" data-name="Path 194" d="M408.165,196a12.523,12.523,0,0,1-2.253-1.362q-6.035-5.938-11.984-11.964a2.631,2.631,0,1,1,3.66-3.757q6.113,6.048,12.163,12.156a2.346,2.346,0,0,1,.573,2.988A10.322,10.322,0,0,1,408.165,196Z" transform="translate(2.488 2.488)" fill="#f9f9f9"/>
    <path id="Path_195" data-name="Path 195" d="M404.474,182.97c0-1.442-.026-2.884.009-4.326a2.624,2.624,0,1,1,5.241-.007q.049,4.391,0,8.784a2.624,2.624,0,1,1-5.243.007C404.448,185.943,404.474,184.455,404.474,182.97Z" transform="translate(15.83)" fill="#f9f9f9"/>
    <path id="Path_196" data-name="Path 196" d="M442.355,183.093c0,1.442.028,2.884-.006,4.326a2.625,2.625,0,1,1-5.245.011q-.045-4.391,0-8.784a2.624,2.624,0,1,1,5.241-.011C442.381,180.121,442.355,181.606,442.355,183.093Z" transform="translate(53.728 0)" fill="#f9f9f9"/>
    <path id="Path_197" data-name="Path 197" d="M398,194.77c-1.442,0-2.884.022-4.326-.006a2.631,2.631,0,1,1,0-5.247q4.326-.042,8.652,0a2.63,2.63,0,1,1,0,5.247C400.885,194.792,399.443,194.77,398,194.77Z" transform="translate(0 15.831)" fill="#f9f9f9"/>
    <path id="Path_198" data-name="Path 198" d="M442.47,219.541a2.557,2.557,0,0,1,2.551,2.612,2.621,2.621,0,0,1-2.59,2.6,2.677,2.677,0,0,1-2.644-2.707A2.61,2.61,0,0,1,442.47,219.541Z" transform="translate(56.869 50.74)" fill="#f9f9f9"/>
  </g>
</svg>
