<svg xmlns="http://www.w3.org/2000/svg" width="148.726" height="146.339" viewBox="0 0 148.726 146.339">
  <g id="Group_184" data-name="Group 184" transform="translate(-114.194 -394.926)">
    <path id="Path_260" data-name="Path 260" d="M262.92,423.386c-.341,1.5-.612,3.03-1.032,4.51a24.934,24.934,0,0,1-8.188,12.573,1.756,1.756,0,0,0-.624,2.3c4.979,15.469,2.512,29.54-8.328,41.809-4.257,4.817-8.958,9.245-13.459,13.849q-6.089,6.235-12.177,12.466c-.3.3-.56.63-1.075,1.215,3.164-.612,6-1.148,8.821-1.711,2.89-.572,5.755-1.34,8.669-1.69a13.318,13.318,0,0,1,5.146.46,7.678,7.678,0,0,1,5.164,10.234,10.732,10.732,0,0,1-7.223,6.815c-6.142,2.043-12.317,3.992-18.487,5.959q-12.291,3.919-24.595,7.8a30.936,30.936,0,0,1-18.008-.11c-12.61-3.529-25.262-6.921-37.9-10.365a5.442,5.442,0,0,0-.685-.1c-1.09,2.734-1.751,3.182-4.647,3.182q-8.062,0-16.121,0c-2.841,0-3.98-1.136-3.98-3.94q0-18.3,0-36.6c0-2.747,1.124-3.879,3.873-3.882q8.349-.014,16.7,0c2.454,0,3.38.713,4.1,3.246l9.376-1.526c-1.5-1.532-2.823-2.9-4.166-4.248a37.829,37.829,0,0,1-8.246-12.183,41.823,41.823,0,0,1,.183-33.834c.174-.4.368-.789.563-1.178.81-1.623,1.961-2.165,3.225-1.523,1.2.612,1.358,1.778.74,3.4a53.824,53.824,0,0,0-2.878,8.331c-2.6,12.859.347,24.26,9.482,33.879,1.8,1.894,3.669,3.724,5.469,5.618a1.933,1.933,0,0,0,2,.7c5.563-1.02,11.154-1.9,16.717-2.914a46.049,46.049,0,0,1,18.295.585c2.363.512,4.759.862,7.125,1.352a12.987,12.987,0,0,1,7.2,4.087c5.037,5.636,2.433,13.675-5,15.024a28.965,28.965,0,0,1-7.491-.018c-3.468-.292-6.915-.831-10.368-1.285-2.18-.289-3.456.5-3.77,2.375-.277,1.641.856,3,2.844,3.352,6.857,1.209,13.685,2.692,20.588,3.462,3.06.341,6.282-.746,9.421-1.251.362-.058.673-.524.974-.831q15.032-15.365,30.046-30.746c10.231-10.518,12.214-26.361,7.585-38.191-7.5,3.49-15.1,3.831-22.649.262s-12.2-9.6-14.312-17.768a35.225,35.225,0,0,0-11.2,6.909c-.974.874-1.894,1.8-2.829,2.716-3.347,3.264-4.376,3.27-7.673.036-.9-.88-1.784-1.775-2.719-2.619-6.127-5.53-13.215-8.91-21.535-9.287a24.406,24.406,0,0,0-18.855,7.1c-.277.271-.53.569-.825.816a2.154,2.154,0,0,1-3.06-3.03,29.772,29.772,0,0,1,3.645-3.313c9.5-7.01,19.814-7.46,30.578-3.554a39.534,39.534,0,0,1,14.467,9.449,25.418,25.418,0,0,1,1.7,2.043c3.194-2.607,5.95-5.131,8.992-7.25a53.953,53.953,0,0,1,7.533-4c.847-.408,1.236-.746,1.233-1.757a24.728,24.728,0,0,1,2.369-10.676c.786-1.678,1.885-2.253,3.152-1.666s1.55,1.79.816,3.465a21.4,21.4,0,1,0,6.663-8.213,3.674,3.674,0,0,1-2.332.813,2.379,2.379,0,0,1-1.617-1.538,2.81,2.81,0,0,1,.8-2.25,23.135,23.135,0,0,1,9.227-4.711,25.825,25.825,0,0,1,32.29,21.239c.055.371.183.731.274,1.1ZM138.773,524.652a10.051,10.051,0,0,0,.956.365q20.129,5.495,40.265,10.984a24.85,24.85,0,0,0,13.889-.088c2.683-.8,5.365-1.611,8.036-2.467q17.457-5.591,34.905-11.215a7.606,7.606,0,0,0,4.3-3.021c1.842-2.832.67-5.563-2.667-6.124a8.837,8.837,0,0,0-2.731-.052c-1.526.225-3.021.646-4.537.944-7.3,1.443-14.592,2.945-21.912,4.272-3.024.548-6.191,1.309-9.16.938-7.281-.917-14.5-2.329-21.708-3.755a7.213,7.213,0,0,1,2.677-14.147c3.41.4,6.8.962,10.219,1.264a26.429,26.429,0,0,0,7.186.034c3.84-.746,5.018-4.753,2.262-7.549a12.278,12.278,0,0,0-4.766-2.8,59.4,59.4,0,0,0-6.812-1.367c-5.241-1.087-10.481-1.745-15.834-.822q-16.649,2.868-33.322,5.591c-1.066.177-1.331.536-1.325,1.55.033,8.806.018,17.616.021,26.425C138.718,523.949,138.755,524.284,138.773,524.652Zm-20.106-32.061v35.536h15.618V492.591Z" fill="#f9f9f9"/>
    <path id="Path_261" data-name="Path 261" d="M179.856,434.614c1.848-3.1,3.593-5.944,5.244-8.84a3.217,3.217,0,0,1,3.17-1.79c5.612.064,11.227.018,16.842.027,1.751,0,2.713.907,2.591,2.372-.107,1.252-1,1.97-2.573,1.976-4.887.015-9.778.073-14.662-.037a2.721,2.721,0,0,0-2.808,1.641c-1.8,3.2-3.718,6.337-5.609,9.491-1.428,2.384-3.222,2.36-4.558-.067q-5-9.085-9.976-18.182c-.274-.5-.582-.987-.947-1.6-2.616,4.571-5.158,9.01-7.7,13.453-.167.292-.326.594-.508.877-1.13,1.784-2.9,1.83-4.05.049-1.653-2.552-3.249-5.143-5.027-7.972-1.139,1.882-2.269,3.544-3.182,5.32a3.875,3.875,0,0,1-4.074,2.293c-3.867-.137-7.741-.033-11.614-.046-1.723,0-2.674-.786-2.686-2.159s.935-2.183,2.649-2.189c3.581-.012,7.162-.03,10.743.015a1.706,1.706,0,0,0,1.723-.965c1.376-2.387,2.811-4.744,4.251-7.092,1.261-2.052,2.966-2.061,4.278-.018,1.593,2.473,3.149,4.97,4.836,7.637.359-.576.639-1,.892-1.434q3.64-6.354,7.275-12.713c.521-.917,1.084-1.727,2.3-1.714s1.76.846,2.262,1.766q4.979,9.094,9.97,18.185C179.174,433.4,179.457,433.9,179.856,434.614Z" transform="translate(27.671 36.851)" fill="#f9f9f9"/>
    <path id="Path_262" data-name="Path 262" d="M163.987,408.422c2.107,0,4.029-.006,5.953,0a2.28,2.28,0,0,1,2.546,1.693,2.124,2.124,0,0,1-2.259,2.643c-2.019.049-4.041.012-6.239.012,0,1.748,0,3.331,0,4.915a12.673,12.673,0,0,1-.055,1.736,2.1,2.1,0,0,1-2.284,1.955,2.022,2.022,0,0,1-1.985-2.1c-.052-1.739-.079-3.484-.009-5.219.04-1.041-.341-1.343-1.337-1.3-1.641.067-3.289.046-4.933.006a2.164,2.164,0,1,1-.073-4.315c2.025-.067,4.053-.015,6.322-.015,0-1.6,0-3.076,0-4.552,0-.63-.024-1.26.024-1.885a2.073,2.073,0,0,1,2.107-2.119,2.04,2.04,0,0,1,2.174,2.058c.1,1.638.043,3.286.052,4.93C163.99,407.3,163.987,407.73,163.987,408.422Z" transform="translate(75.306 10.126)" fill="#f9f9f9"/>
  </g>
</svg>
