<svg xmlns="http://www.w3.org/2000/svg" width="155.571" height="155.271" viewBox="0 0 155.571 155.271">
  <g id="Group_226" data-name="Group 226" transform="translate(-630.565 -1202.449)">
    <path id="Path_340" data-name="Path 340" d="M785.239,1309.117c-2.833-13.774-10.628-23.8-23.2-30.084a1.649,1.649,0,0,1-1.1-1.766,50.447,50.447,0,0,0-.013-5.791c-.138-1.674.439-2.515,1.937-3.364,11.038-6.26,17.189-15.821,18.051-28.444a34.941,34.941,0,0,0-34.712-37.185c-6.841-.055-13.682-.033-20.523,0a19.861,19.861,0,0,0-19.415,15.59c-2.1,9.289,3.26,17.055,12.615,18.3l6.824.9c.531,4.012.565,7.711-3.213,10.159a1.873,1.873,0,0,0-.4.481,5.988,5.988,0,0,0,2.3,9.109c.465.222.946.406,1.36.582.761,8.741,5.527,13.7,14.009,15.147-.042.335-.055.544-.092.749-.209,1.075-.506,2.138-.611,3.222a2.809,2.809,0,0,1-1.8,2.444,43.531,43.531,0,0,0-18.883,18.167c-1.418,2.565-2.515,5.306-3.807,8.084-2.285-2.289-4.523-4.624-6.87-6.833-.941-.883-1.159-1.548-.268-2.569a14.234,14.234,0,0,0,3.431-11.159,7.689,7.689,0,0,0-8.117-7.172c-.607.05-1.205.18-1.854.28v-5.323c.854,0,1.623.013,2.393,0a12.525,12.525,0,1,0-.05-25.05c-3.134-.034-6.268-.058-9.4,0a36.209,36.209,0,0,1-6.391-.416.585.585,0,0,0-.681.576v3.662a.586.586,0,0,0,.516.583c2.785.335,5.589.671,8.43,1.013v14.369c-4.933.31-9.887.624-14.892.937v-17.1c1.086.132,2.173.262,3.262.4a.587.587,0,0,0,.659-.582v-3.942a.584.584,0,0,0-.44-.565,31.967,31.967,0,0,1-15.276-9.207c-.971-1.02-1.95-2.032-2.925-3.049l-.4.162v16.189c-.8.209-1.452.377-2.109.544-4.515,1.184-7.385,4.276-7.858,8.481a9.244,9.244,0,0,0,5.887,9.875c3.423,1.364,4.665,3.331,4.147,6.883a41.928,41.928,0,0,0-.05,5.983c3.272-2.151,6.276-4.318,9.469-6.163a26.915,26.915,0,0,1,10.511-3.259v4.7c-1.736,0-3.4-.046-5.054.008-2.557.079-4.833,1.971-4.816,4.452a103.385,103.385,0,0,0,.741,10.72,1.5,1.5,0,0,1-.87,1.766,56.2,56.2,0,0,0-5.31,4.067,17.651,17.651,0,0,0-2.1,2.59c-.146-.071-.205-.084-.234-.122-.276-.376-.544-.762-.824-1.134a16.939,16.939,0,0,0-11.59-7.021,50.6,50.6,0,0,0-7.967-.247,17.9,17.9,0,0,0-17.026,17.046A18.38,18.38,0,0,0,633.931,1321a8.461,8.461,0,0,1,1.695,3.1,15.917,15.917,0,0,0,6.515,11.071c-.791,3-.795,2.988-2.008,3.54-7.954,3.632-10.469,10.983-9.293,19.013H776c0-7.121.017-14.117-.021-21.109a2.05,2.05,0,0,1,1.088-2,18.874,18.874,0,0,0,8.247-11.214C786.607,1318.657,786.21,1313.841,785.239,1309.117Zm-119.6-43.281c-3.414-1.013-5.084-2.866-4.929-5.423.155-2.46,1.854-4.042,4.929-4.468Zm10.071,3.51a1.642,1.642,0,0,1-.556,1.255c-1.352.753-2.783,1.368-4.352,2.117V1245.71c1.582.937,3.071,1.766,4.489,2.707a1.645,1.645,0,0,1,.427,1.2Q675.76,1259.48,675.714,1269.346Zm50.168-44.285c-.021-1.519,1.1-2.5,2.929-2.54.245,0,.486,0,.736,0a1.231,1.231,0,0,0,1.231-1.23v-2.222a1.532,1.532,0,0,0-1.448-1.54c-3.67-.184-6.573,1.49-7.879,4.619-1.531,3.666-.243,6.912,4.172,10.055-2.745-.368-5.268-.531-7.707-1.067-5.665-1.243-8.4-6.9-6.418-13.226a15.068,15.068,0,0,1,14.28-10.4c7.113-.071,14.23-.13,21.344.021,17.147.355,30.766,16.239,28.678,33.247a29.571,29.571,0,0,1-12.711,21.373c-.586.418-1.209.782-2,1.289v-5.766a10.339,10.339,0,0,0,7.82-4.017,10.129,10.129,0,0,0,2.071-6.393c-.155-5.389-4.214-9.289-10.23-9.753-1.28-4.69-4.054-7.992-8.757-9.4a14.628,14.628,0,0,0-4-.548c-6-.059-12.009-.025-18.013-.025-.364,0-.732,0-1.1,0C727.016,1227.5,725.907,1226.584,725.882,1225.061Zm9.937,40.875-.742.3q-1.4-1.478-2.8-2.956l.221-.515h3.322Zm-.155-8.327c-1.51-.021-3.025,0-4.707,0v-5.013c-1.293,0-2.431.071-3.548-.033a2.022,2.022,0,0,1-1.381-.715c-.155-.239.151-1.05.481-1.3,3.979-2.971,4.8-7.059,4.4-11.691-.172-2.017-.029-4.059-.029-6.193.473-.046.866-.113,1.264-.113,5.326-.008,10.653-.025,15.979,0a7.516,7.516,0,0,1,7.824,7.774c.008.674,0,1.347,0,2.243,1.565,0,3.059,0,4.548,0,3.188.021,5.456,2.088,5.473,4.983s-2.255,5.009-5.423,5.038c-1.456.012-2.912,0-4.6,0v1.724c0,7.519-.071,15.038.054,22.553a4.814,4.814,0,0,1-1.929,4.117A6.922,6.922,0,0,1,744,1279.64a1.969,1.969,0,0,1-.163-1.306c.314-1.745.623-3.5,1.1-5.2a2.555,2.555,0,0,1,1.264-1.46,17.362,17.362,0,0,0,6.092-4.394.45.45,0,0,0-.017-.607l-2.829-2.962a.439.439,0,0,0-.636,0c-2.117,2.255-4.531,3.87-7.9,3.845,0-1.628.017-3.184,0-4.741A5,5,0,0,0,735.665,1257.609Zm-34.787-4.917c3.481-.418,6.548.151,8.615,3.2A7.041,7.041,0,0,1,709.7,1264c-2,3.281-5.147,3.954-8.825,3.54Zm-10.008,20.03h4.858v19.858h-4.858Zm-.222,24.963c1.774.058,3.552.067,5.326,0a5,5,0,0,0,4.824-4.828c.142-2.573.142-2.573,1.64-4.486a15.327,15.327,0,0,1-1.1-1.272,2.787,2.787,0,0,1-.029-3.364,2.261,2.261,0,0,1,2.758-.917,2.647,2.647,0,0,1,1.77,2.661,9.117,9.117,0,0,1-1.9,6.858c-1.406,1.728-2.515,3.7-3.741,5.54q11.969,11.95,23.775,23.745c-4.009,7.531-12.82,8.226-17.666,1.611-5.18-7.071-10.3-14.189-15.5-21.247a6.86,6.86,0,0,0-2.2-1.866c-3.444-1.87-5.954-4.565-6.628-7.314,1.18-.126,2.36-.251,3.665-.385.059.339.117.728.192,1.109A5.027,5.027,0,0,0,690.647,1297.686Zm-9.783-14.917c3.381-.314,4.875.431,4.887,2.389.013,1.942-1.435,2.686-4.887,2.439Zm-5.113,17.662c.084-.067.167-.13.251-.193,2.657-1.946,2.72-1.912,4.975.356a11.8,11.8,0,0,0,3.1,2.59c3.222,1.5,4.561,4.582,6.594,7.113-.36.59-.686,1.126-1.059,1.732a.384.384,0,0,0,.113.515c1.439.958,2.841,1.908,4.264,2.833a3.515,3.515,0,0,1,1.807,3.381,50.312,50.312,0,0,1-.339,6.226,9.867,9.867,0,0,1-10.611,7.77,10.062,10.062,0,0,1-9.092-9.557c-.067-1.887-.08-3.782.017-5.665a4.1,4.1,0,0,1,.774-2.008c1.77-2.222,1.828-2.184,4.247-.577,1.037.686,2.069,1.375,3.261,2.169a.38.38,0,0,0,.523-.1c.8-1.2,1.547-2.321,2.354-3.534a.372.372,0,0,0-.1-.519c-2.862-1.912-5.661-3.783-8.126-5.427a.428.428,0,0,0-.51.029q-3.7,3.1-7.029,5.875C669.588,1309.661,671.547,1303.686,675.752,1300.431Zm12.331,41.453a3.4,3.4,0,0,1-4.46.184c-2.372-1.707-2.624-2.352-1.762-4.456h7.762C690.706,1339.963,690.773,1339.322,688.083,1341.883Zm-47.415-18.758c-.075-2.762-.038-5.531-.013-8.3.017-1.887,1.054-2.5,2.778-1.653,2.644,1.3,5.276,2.628,7.992,3.988a.7.7,0,0,0,.933-.31c.535-1.054,1.054-2.083,1.606-3.178a.705.705,0,0,0-.3-.938c-.73-.388-1.436-.764-2.145-1.123-1.77-.891-3.544-1.77-5.318-2.653-4.59-2.284-7.6-1.4-10.628,2.95a33.923,33.923,0,0,1,.494-4.531,12.743,12.743,0,0,1,12.055-9.645,38.18,38.18,0,0,1,7.327.31c7.423,1.33,12.092,9.435,9.628,16.189-1.226-1.067-2.431-2.226-3.758-3.23-1.138-.866-2.364-1.615-3.636-2.435a.738.738,0,0,0-1.013.205c-.648.971-1.284,1.917-1.962,2.929a.734.734,0,0,0,.2,1.017c1.372.929,2.7,1.853,4.071,2.7a3.287,3.287,0,0,1,1.728,3.243,50.4,50.4,0,0,1-.318,6.23,9.879,9.879,0,0,1-10.7,7.854A10.04,10.04,0,0,1,640.667,1323.125Zm12.322,18.762a3.407,3.407,0,0,1-4.46.18c-2.372-1.7-2.623-2.352-1.761-4.456h7.757C655.555,1339.954,655.793,1339.226,652.99,1341.887Zm-17.209,10.866c-.213-3.653,2.69-8.138,6.05-9.255.381-.126,1.008.2,1.41.481,1.615,1.1,3.038,2.666,4.8,3.343,3.448,1.318,6.532.184,9.1-2.41,1.979-2,2.071-2,4.305-.272a10.635,10.635,0,0,1,4.226,8.113Zm24.733-14.465c-.774-.364-.975-1.937-1.464-3a16.337,16.337,0,0,0,6.707-11.335c.222-1.422,1.473-2.69,2.4-4.28,1.377,2.134,2.628,3.845,2.987,6.214a13.929,13.929,0,0,0,6.055,9.243,5,5,0,0,1-2.971,4.18c-2.276,1.193-4.142,3.167-6.293,4.891A18.6,18.6,0,0,0,660.513,1338.289Zm10.339,14.473c-.059-3.787,2.6-7.941,5.967-9.218a2.158,2.158,0,0,1,1.544.469c1.674,1.109,3.142,2.7,4.962,3.364,3.469,1.26,6.519.013,9.055-2.6,1.791-1.845,1.87-1.837,3.946-.305a10.652,10.652,0,0,1,4.448,8.293Zm54.947-.008H705.844c-.251-3.435-1.109-6.686-3.41-9.239a18.682,18.682,0,0,0-5.268-4.293,4.9,4.9,0,0,1-2.849-4.088,15.854,15.854,0,0,0,6.494-11.009c2.887,4.636,6.456,7.732,11.649,8.477,5.167.74,9.506-1,13.339-4.8Zm45.135-.013H730.883v-1.728q0-18.4.008-36.8a11.358,11.358,0,0,0-2.31-7.142,1.118,1.118,0,0,0-1.724-.08c-.615.686-1.226,1.368-1.858,2.071a1.108,1.108,0,0,0-.092,1.368c1.109,1.632,1.059,3.766.891,6.23-2.385-2.4-4.578-4.573-6.72-6.8a1.4,1.4,0,0,1-.08-1.125c3.36-11.2,10.1-19.636,20.507-25.08.272-.142.565-.251.778-.343a39.177,39.177,0,0,0,3.507,2.72,11.32,11.32,0,0,0,13.971-1.7,2.088,2.088,0,0,1,2.929-.4,37.319,37.319,0,0,1,18.063,20.368c.146.389.264.791.381,1.193a4.418,4.418,0,0,1,.059.623c-4.335.967-8.682,1.937-13.594,3.029.582-1.54,1.059-2.812,1.548-4.113a1.265,1.265,0,0,0-.3-1.356c-.544-.531-1.125-1.1-1.741-1.7a1.266,1.266,0,0,0-1.862.088,12.77,12.77,0,0,0-2.264,5.669c-.548-.481-.958-.833-1.36-1.193-4.214-3.824-8.356-7.728-12.661-11.448a9.631,9.631,0,0,0-15.59,4.439,9.309,9.309,0,0,0,1.674,9.146c6.272,7.615,12.49,15.285,18.988,22.7,4.5,5.126,10.41,7.1,17.226,6.18.515-.071,1.029-.13,1.674-.213ZM768.4,1332.6c-5.5.854-10-1.289-13.54-5.531q-6.515-7.827-13.029-15.645c-1.536-1.845-3.1-3.665-4.607-5.535-1.853-2.306-1.749-5.1.2-6.908s4.54-1.707,6.753.3q11.95,10.833,23.883,21.691c.1.1.209.192.318.288a1.271,1.271,0,0,0,1.8-.1c.54-.6,1.084-1.2,1.64-1.816a1.273,1.273,0,0,0-.084-1.791c-1.3-1.2-2.6-2.389-4.059-3.732l12.624-2.8C783.072,1322.255,778.277,1331.071,768.4,1332.6Z" fill="#f9f9f9"/>
    <path id="Path_341" data-name="Path 341" d="M653.328,1285.654l.475-.474a1.864,1.864,0,0,1,2.638,0l12.291,12.295a1.865,1.865,0,0,1-.005,2.643l-.478.473a1.863,1.863,0,0,1-2.628-.007l-12.292-12.289A1.866,1.866,0,0,1,653.328,1285.654Z" transform="translate(-12.921 -47.797)" fill="#f9f9f9"/>
    <path id="Path_342" data-name="Path 342" d="M668.4,1362.892l.474.476a1.864,1.864,0,0,1,0,2.639L656.6,1378.26a1.864,1.864,0,0,1-2.683-.049l-.456-.492a1.861,1.861,0,0,1,.047-2.583l12.253-12.244A1.866,1.866,0,0,1,668.4,1362.892Z" transform="translate(-13.026 -92.993)" fill="#f9f9f9"/>
    <rect id="Rectangle_98" data-name="Rectangle 98" width="9.83" height="4.819" rx="2.41" transform="translate(640.716 1257.688)" fill="#f9f9f9"/>
    <path id="Path_343" data-name="Path 343" d="M891.459,1291.952l-4.729,1.233c.028.311.17.659.061.886-.4.835-.708,1.942-1.4,2.344a2.7,2.7,0,0,1-2.512-.235,4.767,4.767,0,0,1-.912-2.566c-.218-1.128-.336-2.274-.486-3.521a.854.854,0,0,1,.638-.932l8.106-2.042a1.028,1.028,0,0,1,1.247.741l.722,2.848A1.025,1.025,0,0,1,891.459,1291.952Z" transform="translate(-145.925 -49.224)" fill="#f9f9f9"/>
  </g>
</svg>
