<svg xmlns="http://www.w3.org/2000/svg" width="172.422" height="124.308" viewBox="0 0 172.422 124.308">
  <path id="Path_320" data-name="Path 320" d="M487.771,525.052a19.583,19.583,0,0,1-2.618,2.257c-3.846,2.3-7.761,4.489-11.636,6.748a3.805,3.805,0,0,1-3.975.308,1.833,1.833,0,0,0-1.483.056q-3.763,2.058-7.431,4.278a1.58,1.58,0,0,0-.691,1.241c1.483,7.991-.245,11.326-7.577,14.256,1.134,4.13.623,8-2.511,11.161-3.085,3.117-6.866,3.793-11.137,2.608-.09,4.045-1.617,7.276-5.054,9.38s-7.007,2.07-10.754.407c-.085.679-.136,1.26-.235,1.835a10.672,10.672,0,0,1-15.619,7.7c-2.14-1.1-4.191-2.375-6.268-3.561-9.409,7.225-18.42,1.12-19.208-6.711-3.757,1.728-7.472,1.864-11.023-.414-3.512-2.257-4.925-5.655-4.959-9.7-8.985.49-13.609-6.246-12.4-13.163a28.689,28.689,0,0,1-4.736-2.094,10,10,0,0,1-4.588-10.594,1.773,1.773,0,0,0-1.074-2.24c-2.08-1.1-4.086-2.344-6.13-3.512-1.27-.727-2.412-1.716-4.1-.638-.543.347-1.791-.012-2.513-.414-4.358-2.426-8.655-4.961-12.979-7.451a3.246,3.246,0,0,1-1.723-3.042q.011-28.114.017-56.228a2.98,2.98,0,0,1,4.668-2.751c5.226,2.942,10.41,5.958,15.589,8.985a2.52,2.52,0,0,1,1.195,3.553c-.739,1.331-2.2,1.658-3.8.751-3.655-2.077-7.286-4.2-10.929-6.3-.473-.271-.96-.519-1.612-.87-.031.647-.075,1.122-.075,1.6q-.007,24.409-.029,48.821a2.316,2.316,0,0,0,1.328,2.373c3.139,1.721,6.222,3.551,9.5,5.436l22.553-39.049c-2.923-1.7-5.815-3.381-8.7-5.071a9.734,9.734,0,0,1-1.687-1.088,2.288,2.288,0,0,1-.463-3.051,2.173,2.173,0,0,1,3.015-1.069q6.253,3.45,12.349,7.184a2.963,2.963,0,0,1,1.108,2.13,2.043,2.043,0,0,0,1.26,1.924c2.349,1.309,4.724,2.591,6.978,4.052,1.224.793,2.13,2.077,3.359,2.865a23.815,23.815,0,0,0,4.212,1.961,5.776,5.776,0,0,0,5.546-.611c4.179-2.615,8.5-5,12.792-7.434a16.066,16.066,0,0,1,16.658-.1c3.677,2.038,7.283,4.2,10.931,6.29a10.947,10.947,0,0,0,8.444,1.132c1.3-.334,2.53-.725,3.2-2.147a4.03,4.03,0,0,1,1.667-1.345c2.749-1.626,5.536-3.192,8.277-4.833.41-.245.916-.776.921-1.18a3.949,3.949,0,0,1,2.4-3.543q15.31-8.8,30.59-17.647,2.767-1.6,5.533-3.2c2.724-1.563,3.546-1.44,5.621.829Zm-83.585,54.769c1.621.938,3.243,1.927,4.908,2.831a5.744,5.744,0,0,0,7.928-1.953c1.549-2.744.545-6-2.412-7.775a27.422,27.422,0,0,1-4.014-2.433,3.286,3.286,0,0,1-1.052-2.673c.206-.783,1.348-1.5,2.237-1.849.5-.2,1.377.308,1.992.657,3.805,2.155,7.552,4.411,11.379,6.525a5.587,5.587,0,1,0,5.475-9.736c-2.067-1.239-4.169-2.419-6.256-3.628-1.891-1.1-3.812-2.145-5.662-3.308a2.389,2.389,0,0,1-.914-3.357,2.525,2.525,0,0,1,3.359-1,13.866,13.866,0,0,1,1.319.742c5.439,3.139,10.866,6.3,16.324,9.4a8.789,8.789,0,0,0,2.945,1.132,5.4,5.4,0,0,0,5.8-3.614,5.711,5.711,0,0,0-2.557-6.833c-4.537-2.681-9.118-5.289-13.68-7.928-1.5-.87-3.039-1.689-4.5-2.632a2.435,2.435,0,0,1-.873-3.376,2.513,2.513,0,0,1,3.369-.943c.407.184.788.427,1.175.65q8.384,4.828,16.76,9.656a5.428,5.428,0,0,0,6.311-.291c2.012-1.44,2.3-3.51,1.8-5.723a6.376,6.376,0,0,0-3.374-4.183q-14.077-8.075-28.118-16.217a10.977,10.977,0,0,1-1.428-.885,2.332,2.332,0,0,1-.71-3.141,2.38,2.38,0,0,1,3.148-1.161,7.433,7.433,0,0,1,1.335.708q11.07,6.384,22.143,12.776c.475.274.967.526,1.449.788l.153-.262-16.006-27.706c-7.383,2.421-10.623,2.085-17.175-1.687-3.11-1.789-6.2-3.621-9.339-5.349a10.96,10.96,0,0,0-10.793-.116c-1.348.686-2.642,1.476-3.953,2.232-4.273,2.465-8.551,4.923-12.812,7.409A5.393,5.393,0,0,0,377,511.2a5.248,5.248,0,0,0,3.716,4.566,5.932,5.932,0,0,0,5.146-.713c4.937-2.887,9.913-5.7,14.855-8.58a5.882,5.882,0,0,1,6.365-.034c2.37,1.389,4.765,2.734,7.133,4.128,1.612.948,2.109,2.3,1.4,3.619-.732,1.362-2.264,1.672-3.926.734-2.1-1.183-4.22-2.341-6.246-3.643a2.523,2.523,0,0,0-3.047.017c-4.869,2.887-9.758,5.749-14.715,8.486a10.606,10.606,0,0,1-15.706-10.221,29.765,29.765,0,0,1,1.253-4.855l-4.057-1.641-16.038,27.781c5.017-3.076,10.061-4.435,15.051-.434,4.29,3.439,4.894,8.03,2.969,13.057,5.187,2.068,7.594,5.88,7.55,11.256,5.97-.208,10.943,2.686,12.257,10.032C400.616,562.295,407.713,571.047,404.186,579.821Zm67.741-50.7c3.255-1.876,6.328-3.708,9.47-5.422a2.293,2.293,0,0,0,1.347-2.356q-.054-24.4-.027-48.8c0-.482-.041-.965-.073-1.7l-33.273,19.213c.475.834.831,1.466,1.195,2.1q5.333,9.245,10.655,18.5c.378.662.94,1.558.754,2.133a4.116,4.116,0,0,1-1.8,2.315c-1.3.616-2.337-.259-3.018-1.432q-3.534-6.112-7.058-12.23c-1.285-2.22-2.574-4.438-3.9-6.731l-8.42,4.872c6.757,11.7,13.415,23.234,20.115,34.832l8.26-4.772a1.524,1.524,0,0,0-.051-.431c-.8-1.415-1.621-2.819-2.416-4.234-.965-1.726-.732-3.17.613-3.965,1.382-.817,2.7-.337,3.73,1.408C469.307,524.579,470.558,526.763,471.927,529.121Zm-126.689,5.286,20.112-34.834-8.43-4.874-20.11,34.829Zm9.36,13.98a3.176,3.176,0,0,0,1.241-.2,108.145,108.145,0,0,0,9.523-5.575c2.218-1.563,2.332-4.872.778-7.14a5.445,5.445,0,0,0-6.837-1.912c-2.829,1.454-5.589,3.064-8.27,4.775a5.311,5.311,0,0,0-2.024,6.236A5.58,5.58,0,0,0,354.6,548.388Zm9.882,13.374c2.685-1.052,6.1-2.254,8.3-5.284a5.213,5.213,0,0,0-.654-6.53,5.423,5.423,0,0,0-6.452-1.306,47.941,47.941,0,0,0-5.235,3.02,5.387,5.387,0,0,0-2.048,6.246C359.185,560.271,361.271,561.779,364.481,561.762Zm21.455,3.713a5.71,5.71,0,0,0-7.967-5.141,34.149,34.149,0,0,0-4.932,2.833,5.436,5.436,0,0,0-2,6.4,5.189,5.189,0,0,0,5.456,3.6,13.116,13.116,0,0,0,8.452-4.913A9.081,9.081,0,0,0,385.935,565.475Zm.783,10.846a5.436,5.436,0,0,0,4.043,5.347c3.165.894,8.2-1.917,9.082-5.07a5.9,5.9,0,0,0-2.535-6.418c-3.553-2.424-10.805,1.951-10.592,5.638C386.726,575.984,386.718,576.154,386.718,576.321Z" transform="translate(-315.349 -464.245)" fill="#f9f9f9" style="isolation: isolate"/>
</svg>
