<svg xmlns="http://www.w3.org/2000/svg" width="146.04" height="146" viewBox="0 0 146.04 146">
  <g id="Group_61" data-name="Group 61" transform="translate(-326.049 -252.458)" style="isolation: isolate">
    <path id="Path_211" data-name="Path 211" d="M457.378,306.025H452.6v1.607q0,14.524,0,29.047c0,2.6-.76,3.376-3.319,3.376q-55.054,0-110.106,0c-2.6,0-3.367-.757-3.369-3.327q0-33.152,0-66.306c0-2.607.747-3.362,3.323-3.362q26.535,0,53.075,0h1.9v-4.866h-1.5q-29.123,0-58.246,0c-2.73,0-3.415.683-3.417,3.4q0,11.407.011,22.813c0,1.405-.344,2.537-1.837,2.933a2.369,2.369,0,0,1-3.025-2.463c-.046-2.839-.015-5.679-.015-8.516q0-7.529,0-15.057c.007-4.954,3.008-7.975,7.936-7.977q29.5-.007,59.005.02a2.246,2.246,0,0,0,2.351-1.318,6.662,6.662,0,0,1,6.136-3.553q31.632-.033,63.265,0a7.211,7.211,0,0,1,7.292,7.382q.039,19.315,0,38.627a7.311,7.311,0,0,1-7.5,7.5c-.659.009-1.316,0-2.224,0v1.784q0,16.957,0,33.914c0,5.138-2.968,8.1-8.128,8.1q-59.993.007-119.99,0c-5.16,0-8.139-2.96-8.141-8.084q-.007-15.131,0-30.265c0-1.946.733-2.918,2.233-3.021a2.349,2.349,0,0,1,2.62,2.629c.031,3.7.011,7.4.011,11.1q0,9.733,0,19.466c0,2.535.746,3.308,3.214,3.308q60.071,0,120.143,0c2.233,0,3.159-.771,3.163-2.743q.023-17.719,0-35.435C457.455,306.551,457.416,306.356,457.378,306.025Zm-9.726.042c-.3-.031-.49-.07-.685-.07-7.248,0-14.5-.024-21.744.031a3.19,3.19,0,0,0-1.848.786q-7.431,6.282-14.79,12.651c-.965.832-1.924,1.519-3.271.871-1.259-.609-1.416-1.71-1.4-2.942.033-2.281.009-4.562.009-6.843v-4.558c-.576,0-.93-.033-1.279,0-4.661.493-8.658-3-8.5-8.551.225-7.953.059-15.915.059-23.875v-1.561H340.769v63.066H345.5a14.778,14.778,0,0,1,5.223-11.022c3.38-2.9,7.425-3.693,11.837-3.439,0-1.817.079-3.437-.037-5.041a3.5,3.5,0,0,0-.8-1.961,14.257,14.257,0,0,1-3.772-7.642c-.212-1.55-.252-3.122-.372-4.7-2.021-.856-2.312-1.283-2.312-3.5,0-2.281-.042-4.564.022-6.843a14.366,14.366,0,0,1,12.053-13.833,46.8,46.8,0,0,1,7.879-.267,14.293,14.293,0,0,1,13.8,12.075c.412,2.835.177,5.76.324,8.638.1,1.885-.366,3.314-2.41,3.686-.015.331-.042.534-.031.733a15.076,15.076,0,0,1-4.426,12.016,1.462,1.462,0,0,0-.425.911c-.039,1.861-.02,3.721-.02,5.742,4.483-.291,8.5.569,11.887,3.478a14.986,14.986,0,0,1,5.208,11.011h48.522Zm-38.861,6.718c.67-.536,1.1-.862,1.513-1.213,3.542-3.034,7.11-6.035,10.6-9.126a5.165,5.165,0,0,1,3.711-1.344c13.078.039,26.156.024,39.233.022,2.614,0,3.349-.731,3.352-3.325q0-18.553,0-37.105c0-2.636-.718-3.376-3.3-3.376q-30.8,0-61.591,0c-2.5,0-3.24.751-3.242,3.277q-.007,11.1,0,22.2c0,5.12-.011,10.241,0,15.361.007,2.115.845,2.942,2.942,2.966,1.268.013,2.535-.009,3.8,0,2.088.024,2.955.878,2.968,2.962C408.8,306.877,408.791,309.664,408.791,312.785Zm-14.652,22.327a9.428,9.428,0,0,0-7.22-9.31,36.7,36.7,0,0,0-4.521-.355,1.844,1.844,0,0,0-1.837.957c-3.57,4.906-12,5.372-15.878.727a3.961,3.961,0,0,0-3.94-1.679c-.4.05-.81,0-1.215.022a9.5,9.5,0,0,0-9.023,9.639ZM360.16,296.093c6.51.871,12.263-.849,17.679-4.043,1.7-1,2.5-.876,3.905.484.836.812,1.67,1.624,2.706,2.629,0-1.629.039-2.894-.007-4.155a9.187,9.187,0,0,0-7.728-9.037,32.6,32.6,0,0,0-9.045.037,9.083,9.083,0,0,0-7.489,8.441C360.046,292.306,360.16,294.182,360.16,296.093Zm19.181.738c-5.381,2.986-10.827,4.61-16.769,4.3,0,1.092-.024,1.951,0,2.809a9.677,9.677,0,0,0,8.459,9.275,9.438,9.438,0,0,0,10.451-6.659A31.2,31.2,0,0,0,382,300.1a1.566,1.566,0,0,0-.486-.88C380.821,298.42,380.092,297.65,379.341,296.831ZM367.4,317.542c.468,2.395-1.2,5.346,1.808,7.1a5.779,5.779,0,0,0,6.335-.109c2.826-1.817,1.182-4.647,1.631-7a38.693,38.693,0,0,1-4.827.58A41.8,41.8,0,0,1,367.4,317.542Z" transform="translate(0.009)" fill="#f9f9f9"/>
    <path id="Path_212" data-name="Path 212" d="M338.327,321.147c-2.905-3.792-3.058-8.056-2.264-12.373a12.086,12.086,0,0,1,12.927-9.593,12.278,12.278,0,0,1,11.088,11.561c.177,3.7-.12,7.277-2.6,10.453a15.041,15.041,0,0,1,8.538,4.665,14.287,14.287,0,0,1,3.785,9.365c.055,1.67.044,3.343.011,5.013a2.444,2.444,0,0,1-2.752,2.7q-19.144.02-38.288,0c-1.55,0-2.686-.775-2.673-2.112.026-2.973-.136-6.038.525-8.894,1.232-5.341,4.851-8.724,10.1-10.322C337.195,321.469,337.666,321.337,338.327,321.147Zm26.6,16.9c0-1.125.057-2.132-.009-3.128a9.532,9.532,0,0,0-9.094-8.964c-5.267-.125-10.545-.145-15.812,0a9.713,9.713,0,0,0-8.886,12.09ZM340.621,312.5c0,.455-.011.911,0,1.366a7.264,7.264,0,0,0,6.7,7.156,7.162,7.162,0,0,0,7.773-6.132,16.976,16.976,0,0,0,.009-4.687,7.187,7.187,0,0,0-9.223-5.9C342.407,305.276,340.619,308.06,340.621,312.5Z" transform="translate(0.056 55.508)" fill="#f9f9f9"/>
    <path id="Path_213" data-name="Path 213" d="M361.732,321.134c-2.879-3.774-3.041-7.942-2.3-12.167a12.066,12.066,0,0,1,12.92-9.79,12.291,12.291,0,0,1,11.14,11.83c.129,3.614-.2,7.075-2.52,10.057a35.618,35.618,0,0,1,4.065,1.526,14.279,14.279,0,0,1,8.161,12.756c.072,1.515.024,3.038.013,4.558-.015,2.191-.847,3.039-3.025,3.041q-14.819.01-29.634,0c-2.684,0-5.37.007-8.054,0-2.264-.007-3.089-.834-3.078-3.137a41.114,41.114,0,0,1,.16-6.064c1.007-6.456,4.831-10.5,11.077-12.3.144-.044.3-.05.444-.09S361.379,321.259,361.732,321.134Zm-7.36,16.836h33.979c0-.563,0-1.016,0-1.467.011-6.631-3.938-10.587-10.58-10.589-4.512,0-9.024-.035-13.533.024a11.612,11.612,0,0,0-3.422.545C356.171,328.01,353.895,332.1,354.372,337.97Zm9.643-25.536c0,4.555,1.789,7.362,5.306,8.319,3.923,1.068,8.091-1.057,8.938-4.919,1.193-5.427.12-9.941-4.875-11.513a7.251,7.251,0,0,0-1.638-.287C368.117,303.752,363.586,306.517,364.015,312.434Z" transform="translate(27.756 55.508)" fill="#f9f9f9"/>
    <path id="Path_214" data-name="Path 214" d="M385.1,321.161c-2.907-3.787-3.06-8-2.305-12.274a12.066,12.066,0,0,1,12.833-9.715,12.244,12.244,0,0,1,11.191,11.615c.186,4.908-.017,5.8-2.428,10.392.574.164,1.13.32,1.686.482a14.591,14.591,0,0,1,10.479,13.61c.035,1.67.039,3.343,0,5.015a2.4,2.4,0,0,1-2.642,2.649q-19.223.03-38.447,0c-1.6,0-2.633-.843-2.669-2.3a43.569,43.569,0,0,1,.116-6.828C373.785,327.312,377.986,322.982,385.1,321.161Zm26.6,16.858V336.34c-.011-6.432-4-10.42-10.435-10.427-4.612,0-9.225-.026-13.835.007a9.791,9.791,0,0,0-9.595,12.1Zm-9.737-25.536c0-.4.007-.81,0-1.213a7.3,7.3,0,0,0-14.593,0c-.02.961-.035,1.924.013,2.883a7.232,7.232,0,0,0,8.932,6.675C400.094,319.933,401.968,317.166,401.966,312.483Z" transform="translate(55.504 55.509)" fill="#f9f9f9"/>
    <path id="Path_215" data-name="Path 215" d="M330.981,276.323a8.515,8.515,0,0,1-.171,1.8,2.229,2.229,0,0,1-2.561,1.642,2.149,2.149,0,0,1-2.121-1.994,17.2,17.2,0,0,1-.037-2.87,2.374,2.374,0,0,1,2.371-2.432,2.4,2.4,0,0,1,2.471,2.493c.026.453,0,.908,0,1.362Z" transform="translate(0 23.788)" fill="#f9f9f9"/>
    <path id="Path_216" data-name="Path 216" d="M369.417,272.552c0-3.8.011-7.594-.009-11.39,0-1.162.094-2.235,1.278-2.857a2.79,2.79,0,0,1,2.986.394q9.129,5.72,18.264,11.436c2.48,1.561,2.452,3.424-.052,4.991q-9,5.635-18.014,11.263c-1.035.65-2.043,1.171-3.238.46-1.112-.663-1.235-1.736-1.226-2.9C369.432,280.148,369.417,276.35,369.417,272.552Zm4.934,7.789,12.358-7.73-12.358-7.732Z" transform="translate(51.556 6.613)" fill="#f9f9f9"/>
  </g>
</svg>
