<svg id="Donate" xmlns="http://www.w3.org/2000/svg" width="88" height="86.57" viewBox="0 0 88 86.57">
  <g id="Group_194" data-name="Group 194" transform="translate(20.623)">
    <path id="Path_325" data-name="Path 325" d="M-96.113,1302.341a1.288,1.288,0,0,1-.617-1.26c.014-6.014,0-12.03,0-18.044a2.991,2.991,0,0,1,.014-.482.842.842,0,0,1,.8-.766.815.815,0,0,1,.918.612,2.431,2.431,0,0,1,.069.71V1300.5h37.081v-17.337a3.249,3.249,0,0,1,.019-.6.849.849,0,0,1,.914-.78.846.846,0,0,1,.863.833,3.664,3.664,0,0,1,0,.421q0,9.022.013,18.044a1.257,1.257,0,0,1-.622,1.255Z" transform="translate(99.634 -1240.771)" fill="#f9f9f9"/>
    <path id="Path_326" data-name="Path 326" d="M-110.066,1059.2v4.969c-.024.643-.4,1.048-.935,1.03a.906.906,0,0,1-.863-1.027c-.01-1.5,0-3.007,0-4.511v-.51h-1.768c-.865-.013-1.146-.293-1.148-1.167v-8c0-.855.3-1.125,1.172-1.125h10.257a14.252,14.252,0,0,1-1.593-12.763,13.761,13.761,0,0,1,5.569-7.115,14.291,14.291,0,0,1,17.1,1.038,14.438,14.438,0,0,1,2.613,18.8c.239.011.447.027.654.027h9.5c.951,0,1.225.262,1.226,1.2v7.875c0,.95-.268,1.214-1.215,1.221h-1.7v5.018a.918.918,0,0,1-.861,1.03.937.937,0,0,1-.935-1.026c-.011-1.642,0-3.284,0-4.982Zm39.958-8.518h-42.828v6.61h42.828Zm-29.411-9.836a8.017,8.017,0,0,0,7.989,8,8,8,0,0,0,8-7.991,8,8,0,0,0-7.992-8A8,8,0,0,0-99.52,1040.847Zm13.741,8c1.17,0,2.211-.019,3.251.01a.922.922,0,0,0,.853-.419,12,12,0,0,0,2.348-9.865,11.861,11.861,0,0,0-8.774-9.643,11.858,11.858,0,0,0-12.639,3.584,12.369,12.369,0,0,0-.659,15.911c.137.175.35.4.535.411,1.152.039,2.306.019,3.623.019a9.876,9.876,0,0,1-4.065-7.519,9.53,9.53,0,0,1,3.237-7.771,9.813,9.813,0,0,1,13.452.349,9.929,9.929,0,0,1-1.157,14.937Z" transform="translate(114.78 -1026.628)" fill="#f9f9f9"/>
    <path id="Path_327" data-name="Path 327" d="M-25.853,1265.085c.677-.595,1.168-1.1,1.734-1.509a5.73,5.73,0,0,1,7.578.866,5.656,5.656,0,0,1,.029,7.621c-2.784,2.914-5.672,5.725-8.518,8.569a.886.886,0,0,1-1.379,0c-2.838-2.832-5.71-5.625-8.484-8.518a5.7,5.7,0,0,1,.2-7.888,5.733,5.733,0,0,1,7.891-.235A10.955,10.955,0,0,1-25.853,1265.085Zm.108,13.637a.6.6,0,0,0,.137-.066c2.571-2.572,5.159-5.106,7.686-7.715a3.9,3.9,0,0,0-.13-5.48,3.944,3.944,0,0,0-5.489-.055c-.482.45-.935.936-1.411,1.4a.944.944,0,0,1-1.556-.011c-.461-.447-.9-.914-1.368-1.355a3.936,3.936,0,0,0-5.53.04,3.891,3.891,0,0,0-.1,5.48C-30.967,1273.576-28.354,1276.123-25.745,1278.722Z" transform="translate(48.984 -1224.614)" fill="#f9f9f9"/>
    <path id="Path_328" data-name="Path 328" d="M13.428,1077.657c.482,0,.919-.008,1.356,0,.625.016,1.008.344,1.027.86a.942.942,0,0,1-1.027.937c-.881.018-1.768,0-2.644,0-.746,0-1.172.322-1.176.9s.432.91,1.16.932a8.789,8.789,0,0,1,1.67.109,2.687,2.687,0,0,1,.138,5.169.637.637,0,0,0-.55.8.982.982,0,0,1-.574,1.14.868.868,0,0,1-1.2-.722c-.048-.331-.042-.67-.063-1.062H10.5c-.913,0-1.352-.3-1.339-.918s.453-.885,1.316-.887h2.465c.653,0,1.054-.352,1.069-.889s-.407-.921-1.086-.931c-.381,0-.762.01-1.143-.01a2.717,2.717,0,0,1-.7-5.312c.149-.05.3-.095.464-.146.143-.67-.238-1.691.879-1.746C13.641,1075.823,13.307,1076.905,13.428,1077.657Z" transform="translate(10.765 -1067.967)" fill="#f9f9f9"/>
  </g>
  <text id="Donate_" data-name="Donate " transform="translate(0 61.57)" fill="#f9f9f9" font-size="18" font-family="Poppins-Bold, Poppins" font-weight="700" letter-spacing="0.1em"><tspan x="5.726" y="19">Donate </tspan></text>
</svg>
