<svg xmlns="http://www.w3.org/2000/svg" width="170.514" height="42.421" viewBox="0 0 170.514 42.421"><g transform="translate(-93.244 -1112.061)"><g transform="translate(93.244 1112.061)"><path d="M1229.917,2161.267l-4.811-5.231c-.57-.6-1.117-.7-1.671-.279a107.148,107.148,0,0,1-10.76,5.284c-2.276.767-3.276,1.752-3.577,3.518-.595,2.368-3.591,3.319-4.266,3.189a4.748,4.748,0,0,1-4.461-3.18c-.3-1.774-1.3-2.76-3.571-3.523a107.163,107.163,0,0,1-10.756-5.28l-.012-.008a1.126,1.126,0,0,0-.679-.256,1.41,1.41,0,0,0-.993.536l-4.8,5.22c-1.348,1.118-.9,2.386-.167,3.93,2.085,4.767,3.916,9.112,5.764,13.679a6.524,6.524,0,0,0,1.858,2.261,6.866,6.866,0,0,1,2.031,2.549,15.662,15.662,0,0,1,1.106,2.959c.659,2.227,1.229,4.15,4.427,5.314,5.872,2.862,8.525,4.719,9.719,5.774.357.254.512.281.9-.031,1.195-1.048,3.847-2.9,9.674-5.739,3.209-1.168,3.779-3.092,4.438-5.319a15.706,15.706,0,0,1,1.111-2.969,6.848,6.848,0,0,1,2.027-2.54,6.52,6.52,0,0,0,1.859-2.263c1.849-4.569,3.68-8.915,5.762-13.674C1230.8,2163.643,1231.254,2162.375,1229.917,2161.267Zm-5.582,4.22-3.3,9.055c-.982,2.564-2.283,1.788-3.043,4.542l-3.019,8.316c-1.141,2.449-2.637,2.037-3.742,3.442l-1.586,1.3c-.3.426-1.339,1.057-.6-.192,1.387-3.9,1.332-6.482,2.432-9.732.708-1.142,2.446-1.594,3.058-4.321l2.516-7.651a8.943,8.943,0,0,1-2.686,2.033,4.826,4.826,0,0,0-2.556,2.8c-.565,1.442-.763,1.816-2.026,2.472-2.226,1.222-3.433,2.817-4.5,3.395-.457.263-.562.229-1.1-.035-1.051-.6-2.254-2.162-4.437-3.36-1.262-.655-1.461-1.029-2.026-2.472a4.827,4.827,0,0,0-2.556-2.8,8.937,8.937,0,0,1-2.686-2.033L1195,2177.9c.612,2.727,2.35,3.18,3.058,4.321,1.1,3.25,1.045,5.834,2.433,9.732.741,1.249-.3.618-.6.192l-1.587-1.3c-1.1-1.405-2.6-.993-3.742-3.442l-3.019-8.316c-.76-2.754-2.06-1.979-3.043-4.542l-3.3-9.055a2.089,2.089,0,0,1,.559-2.582l1.639-1.765a1.383,1.383,0,0,1,1.848-.114c3.179,1.808,7.162,3.173,7.886,3.838,1.494.529.685,2.981,3.442,4.246,1.383.828,2.662,2.22,4.192,2.475,1.531-.254,2.809-1.647,4.192-2.475,2.757-1.265,1.948-3.717,3.442-4.246.724-.666,4.707-2.03,7.886-3.838a1.384,1.384,0,0,1,1.848.114l1.639,1.765A2.088,2.088,0,0,1,1224.335,2165.487Z" transform="translate(-1178.693 -2155.5)" fill="#fff"/></g><g transform="translate(161.021 1122.049)"><g transform="translate(0 0)"><path d="M1290.627,1629.42c-3.356.744-6.64,4.34-7.633,3.584-.149-.114-.6-.765-.908-1.076-.55-.558-2.294-2.768-2.873-2.887l-11.658-.011c-2.158.38-2.693,2.864-3.345,4.41-.762,1.805-1.565,3.616-2.392,5.388a35.363,35.363,0,0,0-2.344,5.41,33.889,33.889,0,0,0,5.273.032c2.271-.088,3.189.182,4.573-1.1.98-.911,2.469-6.338,3.6-7.635.289.154.034-.012.328.224l.891.827c.6.544,2.111,2.754,3.262,3.479,2.168-1.054,6.028-3.808,7.727-4.447-.143,2.067-3.392,6.3-3.616,8.464,2.053-.065,7.615.094,9.243-.44,1.28-.419,1.889-2.29,2.434-3.492.62-1.367,4.851-10.362,4.885-10.927A35.413,35.413,0,0,0,1290.627,1629.42Z" transform="translate(-1259.473 -1628.964)" fill="#fff"/><path d="M1534.116,1629.8c-2.2-.057-4.367.036-6.593-.039-4.693-.158-6.637.81-10.825,2.356-2.376.877-2.285.965-3.2,3.393-.6,1.607-1.2,3.149-1.892,4.7-.337.75-.67,1.539-1.035,2.267a8.706,8.706,0,0,0-1.049,2.257c1.028.243,8.426.181,9.1-.141,1.9-.91,3.63-6.286,5.008-9.1.871-1.778.013-.969,2.453-2.284,1.915-1.032,5.112-.788,7.4-.732.075,0,.445.014.492.022,1.148.213.489.9.022,1.5-.991,1.265-2.192,1.356-4.192,2.135-.655.255-5.556,2.058-5.96,2.59.439.864,2.375,2.092,3.311,3,.829.8,2.822,2.414,3.323,3.114l13.38-.01c-.167-.294-4.163-3.228-4.956-3.91-.642-.552-2.765-1.917-3.039-2.464.566-1.353,8.065-2.845,9.817-5.021a7.988,7.988,0,0,0,1.536-3.554C1542.862,1629.892,1538.461,1629.912,1534.116,1629.8Z" transform="translate(-1444.485 -1629.492)" fill="#fff"/><path d="M1423.173,1639.861c.766-1.818,1.484-3.634,2.344-5.429a48.372,48.372,0,0,0,2.4-5.37c-1.677.043-7.545-.11-8.516.037a3.013,3.013,0,0,0-2.2,2.161c-.358,1.025-1,2.181-1.253,3.078l-7.783-.147c.625-2.453,2.068-4.378,2.259-5.32-8.859.233-9.453-1.568-11.652,4.124-1.631,4.222-3.515,7.437-4.823,10.776,1.1.142,8.26.185,8.894-.11,1.883-.877,2.26-2.56,3.17-4.872,0,0,.146-.369.15-.376l.1-.177a.659.659,0,0,1,.2-.243l7.778-.079-2.632,6.019C1420.906,1643.729,1420.928,1645.194,1423.173,1639.861Z" transform="translate(-1358.975 -1628.777)" fill="#fff"/></g><g transform="translate(33.769 18.807)"><path d="M1393.492,1702.749h-2.516v-1.668H1389.3v4.185h1.676v-1.675h2.516v1.675h1.675v-4.185h-1.675Z" transform="translate(-1389.301 -1701.081)" fill="#fff"/><path d="M1519.065,1701.922h2.092v3.344h1.675v-3.344h2.1v-.841h-5.867Z" transform="translate(-1485.312 -1701.081)" fill="#fff"/><path d="M1415.484,1701.29a.683.683,0,0,0-.209.5v2.763a.713.713,0,0,0,.711.711h5.156v-.841h-4.192v-.834h3.768v-.841h-3.768v-.828h4.192v-.841h-5.156A.683.683,0,0,0,1415.484,1701.29Z" transform="translate(-1408.519 -1701.081)" fill="#fff"/><path d="M1442.529,1701.081h-1.675v3.474a.712.712,0,0,0,.711.711h4.732v-.841h-3.768Z" transform="translate(-1427.444 -1701.081)" fill="#fff"/><path d="M1494.877,1701.29a.684.684,0,0,0-.208.5v2.763a.712.712,0,0,0,.711.711h5.156v-.841h-4.192v-.834h3.768v-.841h-3.768v-.828h4.192v-.841h-5.156A.684.684,0,0,0,1494.877,1701.29Z" transform="translate(-1467.262 -1701.081)" fill="#fff"/><path d="M1470.422,1701.081h-5.7a.713.713,0,0,0-.711.711v3.474h1.676v-3.344h1.258v3.344h1.258v-3.344h1.251v3.344h1.675v-3.474a.712.712,0,0,0-.711-.711Z" transform="translate(-1444.581 -1701.081)" fill="#fff"/></g></g></g></svg>