<?xml version="1.0" encoding="utf-8"?>
<!-- Generator: Adobe Illustrator 26.5.0, SVG Export Plug-In . SVG Version: 6.00 Build 0)  -->
<svg version="1.1" id="Layer_1" xmlns="http://www.w3.org/2000/svg" xmlns:xlink="http://www.w3.org/1999/xlink" x="0px" y="0px"
	 viewBox="0 0 132 123.2" style="enable-background:new 0 0 132 123.2;" xml:space="preserve">
<style type="text/css">
	.st0{fill:#24A49B;}
	.st1{fill:#534CA0;}
	.st2{fill:#EE2849;}
	.st3{fill:#25A49B;}
	.st4{fill:#26A49B;}
	.st5{fill:#544DA0;}
	.st6{fill:#27A59C;}
	.st7{fill:#26A59B;}
	.st8{fill:#EE2949;}
</style>
<g id="Group_9" transform="translate(-644 -4440)">
	<g id="Group_7" transform="translate(644 4440)">
		<path id="Path_53" class="st0" d="M64.8,0c1.9,0.4,3.8,1,5.6,1.8c2.8,1.2,5.3,3.1,7.2,5.5c2.2,3,3.1,6.7,2.4,10.3
			c-1,6.6-5,10.8-10.8,13.5c-3.8,1.6-7.7,2.7-11.8,3.3c-3.5,0.5-7.1,1-10.6,1.6c-2.1,0.4-4.1,1.2-5.9,2.4c-3,2.1-5.1,5.3-5.6,8.9
			c-0.6,4-0.2,8.1,1,11.9c1.5,4.9,3.5,9.7,6.1,14.1c0.2,0.4,0.4,0.8,0.6,1.2c0.2,0.3,0.3,0.7,0.3,1.1c-1.3-1-2.7-1.9-3.9-2.9
			c-5.5-4.1-10.2-9.2-13.9-15c-3.1-4.8-4.6-10.6-4.2-16.3c0.9-10.5,6.8-19.1,18-22.4c3.1-0.9,6.2-1.3,9.4-1.4c3-0.1,6.1-0.2,9.1-0.5
			c4-0.4,7.1-2.3,8.6-6.2c0.8-2.5,0.7-5.3-0.4-7.7C65.8,2.1,65.3,1.1,64.8,0z"/>
		<path id="Path_54" class="st1" d="M72.8,37.8c1.6-1.7,3.2-3.5,4.9-5.2c4.2-4,9.3-7,14.9-8.6c2.9-0.9,5.9-1.2,8.9-0.8
			c3.2,0.4,5.9,2.4,7.2,5.2c2.3,4.3,2.2,8.7,0.8,13.2c-1.7,4.8-4.4,9.1-7.9,12.8c-4.1,4.5-9.1,7.9-14.2,11.1
			c-4.3,2.8-8.6,5.5-12.9,8.4C70,76.8,66.1,80.6,63,85c-1.8,2.4-3,5.3-3.5,8.3c-0.1,2.2,0.2,4.5,1.1,6.6c0.3,0.7,0.6,1.4,0.9,2.2
			c-1.6-0.8-3.2-1.9-4.5-3.1c-2-1.7-3.6-3.7-4.8-6c-1.8-3.7-1.7-8,0.2-11.6c2.1-4.2,5-7.9,8.6-10.8c4.2-3.3,8.6-6.3,13.3-8.8
			c3.6-2.1,7.3-4.1,10.8-6.2c3.3-1.9,5.8-4.9,7.2-8.4c1-2.6,1.3-5.4,0.6-8c-0.6-2.8-2.6-4.2-5.2-4.9c-2.5-0.6-5.2-0.4-7.6,0.5
			c-2.4,0.9-4.7,2-7,3C73.1,37.7,72.9,37.7,72.8,37.8L72.8,37.8z"/>
		<path id="Path_55" class="st2" d="M49.9,78.5c-0.2-0.3-0.4-0.5-0.6-0.7c-4.2-5.7-6.6-12.5-7-19.6c-0.3-3.9,0.2-7.9,1.7-11.5
			c0.4-1,1-2,1.6-3.1c0.1,1.2,0.3,2.4,0.5,3.5c1.1,4.1,4,6.4,8.1,7.1c9.9,1.7,19.1-2.6,24.1-12.2c0.4-0.8,0.7-1.5,1.1-2.4
			c1,0.7,1.8,1.6,2.2,2.7c1.1,2.6,0.9,5.6-0.6,8c-1.6,2.8-4.1,5.1-7.1,6.5c-3.3,1.6-6.7,3-10.1,4.6c-2.9,1.1-5.6,2.8-7.9,4.8
			c-3.4,3.1-5.5,7.4-5.9,11.9C50,78.3,50,78.4,49.9,78.5z"/>
		<path id="Path_56" class="st0" d="M43.7,7.9c0-3.7,2.9-6.8,6.7-6.8c0,0,0.1,0,0.1,0c3.8,0,6.8,3.1,6.8,6.8c0,0,0,0,0,0
			c0,3.7-3,6.8-6.7,6.8c0,0,0,0,0,0c-3.7,0.1-6.8-2.9-6.8-6.6C43.7,8.1,43.7,8,43.7,7.9z"/>
		<path id="Path_57" class="st3" d="M0.2,110.6c2.3,0.1,4.7,0.1,7.1,0.3c1.7,0.1,3,1.6,2.9,3.3c-0.1,0.8-0.4,1.6-1,2.1
			c-0.1,0.1-0.1,0.1-0.1,0.2c1.2,0.9,1.8,2.4,1.3,3.9c-0.4,1.7-1.9,2.8-3.6,2.7c-2,0.1-4,0-5.9,0c-0.9,0-0.7-0.6-0.7-1.1
			c0.1-2.3,0.1-4.5,0.2-6.8C0.2,113.7,0.2,112.3,0.2,110.6z M3.6,119.1c0,1.3,0,1.3,1.3,1.3c0.4,0,0.7,0,1.1-0.1c0.5,0,1-0.4,0.9-1
			c0,0,0,0,0-0.1c0.1-0.6-0.3-1.1-0.9-1.1c0,0,0,0,0,0C5.6,118,5.1,118,4.7,118C3.6,117.9,3.6,118,3.6,119.1L3.6,119.1z M4.5,115.4
			c0.5-0.1,1-0.2,1.5-0.3c0.3-0.2,0.5-0.5,0.5-0.8c0-0.4-0.3-0.7-0.6-0.9c-0.7-0.1-1.3-0.2-2-0.2c-0.1,0-0.3,0.1-0.3,0.1
			c-0.1,0.6-0.1,1.1,0,1.7C3.7,115.2,4.2,115.3,4.5,115.4L4.5,115.4z"/>
		<path id="Path_58" class="st3" d="M73.3,110.7c0,1.7,0,3.3,0,4.9c0,2.2,0.1,4.4,0.1,6.6c0,0.6-0.2,0.9-0.8,0.8c-0.8,0-1.6,0-2.3,0
			c-0.5,0-0.6-0.2-0.6-0.6c0.1-1.1,0.1-2.2,0.1-3.2c0-0.8,0-1-0.9-1c-1,0-2.1,0-3.1,0c-0.5,0-0.7,0.2-0.7,0.7
			c0.1,1.2,0.1,2.3,0.1,3.5c0,0.6-0.2,0.8-0.7,0.7c-0.8,0-1.5,0-2.3,0c-0.5,0-0.7-0.2-0.7-0.7c0.1-2.5,0.1-5.1,0.1-7.6
			c0-1.1,0-2.2-0.1-3.3c0-0.6,0.2-0.7,0.7-0.7c0.7,0.1,1.5,0.1,2.2,0c0.7-0.1,0.8,0.2,0.8,0.8c-0.1,1-0.1,2-0.2,3
			c0,0.5,0.1,0.7,0.7,0.7c1.1,0,2.3,0,3.4,0c0.5,0,0.7-0.2,0.7-0.7c-0.1-1.1-0.1-2.1-0.1-3.2c0-0.2,0.2-0.5,0.3-0.5
			C71.2,110.7,72.3,110.7,73.3,110.7z"/>
		<path id="Path_59" class="st4" d="M23.3,123c-1.2,0-2.3,0-3.4,0c-0.2,0-0.4-0.3-0.5-0.6c-0.4-0.8-0.7-1.7-1-2.6
			c-0.4-1.1-0.7-1.2-2-1c0.1,1.1,0.1,2.2,0.2,3.3c0.1,0.7-0.1,0.8-0.8,0.8c-0.8,0-1.5,0-2.3,0c-0.6,0-0.7-0.2-0.7-0.8
			c0.1-3.1,0.1-6.1,0.1-9.2c0-0.6-0.1-1.2-0.1-1.8c0-0.4,0.1-0.6,0.5-0.6c2,0,4.1-0.2,6.1,0c2.1,0,3.7,1.7,3.7,3.8
			c0,0.5-0.1,1-0.3,1.4c-0.3,0.7-0.7,1.3-1.3,1.8c-0.3,0.2-0.4,0.7-0.2,1.1c0,0,0,0,0,0c0.6,1.2,1.2,2.5,1.8,3.8
			C23.3,122.8,23.3,122.9,23.3,123z M16.3,114.8c0,1.8,0.5,2.2,2.3,1.7c0.7-0.2,1.1-0.8,1.1-1.5c0-0.9-0.6-1.6-1.5-1.6c0,0,0,0,0,0
			C16.6,113,16.3,113.3,16.3,114.8L16.3,114.8z"/>
		<path id="Path_60" class="st5" d="M92.1,10.1c3,0.1,5.4,2.5,5.4,5.6c0,0,0,0,0,0c-0.1,3-2.5,5.4-5.6,5.4c-0.1,0-0.1,0-0.2,0
			c-3-0.2-5.3-2.6-5.2-5.6C86.6,12.4,89.1,10.1,92.1,10.1z"/>
		<path id="Path_61" class="st6" d="M25.6,110.7c0.8,0,1.5,0,2.1,0c1.9,0,3.7,0,5.6,0c0.6,0,0.9,0.2,0.9,0.8c0,0.5,0.1,1.1,0.1,1.6
			c0.1,0.5-0.1,0.6-0.6,0.6c-1.2-0.1-2.5-0.1-3.7-0.2c-0.7,0-0.8,0.2-0.8,0.8c0,0.6,0.1,1,0.8,0.9c1.1-0.1,2.3-0.1,3.4-0.1
			c0.5,0,0.7,0.1,0.6,0.6c-0.1,0.7-0.1,1.4-0.2,2c0,0.4-0.1,0.5-0.6,0.5c-1.1-0.1-2.2-0.1-3.3-0.1c-0.3,0-0.8-0.1-0.8,0.5
			c0,0.9,0.1,1.3,0.7,1.4c1,0.1,2,0,3,0c0.4,0,0.7,0,1.1-0.1c0.5-0.1,0.7,0.1,0.6,0.6c-0.1,0.7-0.2,1.4-0.3,2
			c-0.1,0.3-0.3,0.5-0.6,0.5c-2.4,0-4.9-0.1-7.3,0c-0.7,0-0.8-0.2-0.8-0.9c0.1-3.1,0.1-6.1,0.1-9.2
			C25.7,112.3,25.6,111.6,25.6,110.7z"/>
		<path id="Path_62" class="st0" d="M131.2,118.2c-1.3,0-2.6,0-3.8,0c-0.3,0-0.8-0.1-0.8,0.5c-0.1,0.9,0.1,1.3,0.8,1.4
			c1,0.1,2.1,0,3.1,0c0.5,0,1-0.1,1.6-0.1c-0.2,1-0.3,2-0.5,2.9c0,0.1-0.4,0.3-0.6,0.3c-2.5,0-4.9-0.1-7.4-0.1
			c-0.5,0-0.7-0.1-0.7-0.7c0.3-3.7,0.3-7.5,0-11.2c0-0.1,0-0.3,0-0.4c0.6,0,1.2,0,1.8,0c2,0,3.9,0,5.9,0c0.7,0,0.9,0.3,0.9,0.9
			c0,0.5,0.1,0.9,0.1,1.4c0.1,0.6-0.1,0.8-0.7,0.7c-1.2-0.1-2.4-0.1-3.7-0.2c-0.7,0-0.8,0.3-0.8,0.8c0,0.5,0.1,1,0.8,1
			c1.2-0.1,2.3-0.1,3.5-0.2c0.4,0,0.6,0.1,0.6,0.5C131.3,116.5,131.2,117.4,131.2,118.2z"/>
		<path id="Path_63" class="st7" d="M76.6,110.7c0.5,0,1.1,0,1.7,0c1.9,0,3.9,0,5.8,0c0.6,0,0.9,0.2,0.9,0.8c0,0.5,0.1,1,0.1,1.5
			c0.1,0.5-0.1,0.7-0.7,0.7c-1.2-0.1-2.4-0.1-3.7-0.2c-0.6,0-0.8,0.1-0.8,0.7c0,0.6,0,1.1,0.8,1c1.2-0.1,2.3-0.1,3.5-0.2
			c0.4,0,0.6,0.1,0.6,0.5c-0.1,0.7-0.1,1.5-0.2,2.2c0,0.4-0.2,0.4-0.6,0.4c-1.1-0.1-2.2-0.1-3.3-0.1c-0.4,0-0.9-0.2-0.9,0.5
			c0,1,0.1,1.3,0.8,1.3c1,0,2.1,0,3.1,0c0.4,0,0.9-0.1,1.5-0.1c-0.2,1-0.3,2-0.5,2.9c0,0.1-0.4,0.3-0.6,0.3c-2.5,0-4.9-0.1-7.4-0.1
			c-0.6,0-0.8-0.2-0.8-0.8c0.1-2.3,0.2-4.7,0.2-7C76.6,113.8,76.6,112.3,76.6,110.7z"/>
		<path id="Path_64" class="st3" d="M36.3,123c0.3-1,0.6-1.8,0.9-2.6c1.1-3.1,2.3-6.2,3.4-9.4c0.2-0.5,0.5-0.7,1-0.6
			c0.6,0.1,1.1,0.1,1.7,0c0.5-0.1,0.9,0.2,1,0.6c1.4,3.7,2.9,7.5,4.3,11.2c0.2,0.5,0,0.7-0.5,0.7c-0.8,0-1.7,0-2.5,0
			c-0.5,0-0.7-0.2-0.8-0.7c-0.3-1.2-0.1-1.2-1.6-1.2c-0.7,0-1.4,0-2.1,0c-0.4-0.1-0.9,0.2-0.9,0.7c0,0,0,0,0,0
			c-0.3,1.1-0.3,1.1-1.5,1.1C38,123.1,37.2,123,36.3,123z M42.6,115l-0.2,0l-1,3.2c0.7,0,1.3,0,1.8,0c0.1,0,0.3-0.3,0.3-0.4
			C43.1,116.8,42.9,115.9,42.6,115L42.6,115z"/>
		<path id="Path_65" class="st0" d="M111.5,110.7c1.9,0,3.7,0,5.4,0c0.9,0,1.8-0.1,2.8-0.1c0.5,0,0.7,0.1,0.7,0.6
			c0,0.6,0.1,1.2,0.2,1.8c0.1,0.5-0.1,0.7-0.6,0.6c-1.3-0.1-2.6-0.2-3.9-0.2c-0.8,0-1.1,0.4-1,1.1c0.1,0.5,0.3,0.7,0.8,0.7
			c1-0.1,2.1-0.1,3.1-0.1c0.6,0,0.9,0.1,0.9,0.8c0,0.6,0,1.2,0,1.8s-0.2,0.8-0.8,0.7c-1.1-0.1-2.1-0.1-3.2-0.1
			c-0.6,0-0.9,0.2-0.9,0.9c0.1,1.1,0.1,2.2,0.2,3.3c0,0.5-0.2,0.6-0.6,0.6c-0.8,0-1.6-0.1-2.5-0.1c-0.5,0-0.7-0.2-0.7-0.7
			c0.1-2,0.1-4.1,0.1-6.1c0-1.4-0.1-2.9-0.2-4.3C111.5,111.5,111.5,111.2,111.5,110.7z"/>
		<path id="Path_66" class="st3" d="M53.2,113.5l-3,0.2c0.1-1,0.2-1.9,0.4-2.8c0-0.1,0.2-0.2,0.4-0.2c2.7,0.2,5.5,0.2,8.2-0.1
			c0,0,0.1,0,0.2,0.1c0,0.8,0.1,1.7,0.1,2.6c0,0.1-0.3,0.3-0.5,0.3c-0.7,0-1.5,0-2.4,0c0,1.4,0,2.9,0,4.5c0,1.4,0.1,2.9,0.1,4.3
			c0,0.6-0.2,0.7-0.7,0.7c-0.8,0-1.6,0-2.3,0c-0.5,0-0.7-0.2-0.7-0.7c0.1-1.5,0.1-3.1,0.2-4.6C53.2,116.4,53.2,115,53.2,113.5z"/>
		<path id="Path_67" class="st0" d="M102.6,120.1c-0.1,0.9-0.1,1.7-0.2,2.6c-0.1,0.2-0.3,0.4-0.5,0.5c-2.5,0-5-0.1-7.4-0.1
			c-0.5,0-0.5-0.3-0.5-0.7c0-2.6,0-5.3,0-7.9v-3.6h3.5c-0.1,3.1-0.2,6.2-0.2,9.4L102.6,120.1z"/>
		<path id="Path_68" class="st8" d="M62,45c0,2.3-1.9,4.2-4.2,4.2c-2.3,0-4.2-1.9-4.2-4.2c0-2.4,1.9-4.3,4.3-4.3c0,0,0,0,0,0
			C60.2,40.8,62,42.7,62,45z"/>
		<path id="Path_69" class="st0" d="M108.5,110.7c0,1.8,0,3.5,0,5.1c0,2.1,0,4.3,0.1,6.4c0,0.6-0.2,0.8-0.8,0.8c-0.7,0-1.5,0-2.2,0
			c-0.7,0-0.9-0.2-0.8-0.9c0.1-2.2,0.2-4.4,0.2-6.6c0-1.4-0.1-2.8-0.1-4.2c0-0.5,0.1-0.7,0.7-0.7
			C106.6,110.7,107.5,110.7,108.5,110.7z"/>
		<path id="Path_70" class="st1" d="M72.8,37.8L72.8,37.8C72.7,37.8,72.7,37.8,72.8,37.8C72.7,37.8,72.7,37.8,72.8,37.8L72.8,37.8z"
			/>
	</g>
</g>
</svg>
