<svg xmlns="http://www.w3.org/2000/svg" width="132.048" height="123.156" viewBox="0 0 132.048 123.156">
  <g id="Group_9" data-name="Group 9" transform="translate(-644 -4440)">
    <g id="Group_7" data-name="Group 7" transform="translate(644 4440)">
      <path id="Path_53" data-name="Path 53" d="M-231.337,810.864a23,23,0,0,1,5.637,1.8,18.471,18.471,0,0,1,7.193,5.481,13.31,13.31,0,0,1,2.39,10.337c-.979,6.573-4.975,10.8-10.823,13.5a43.147,43.147,0,0,1-11.812,3.264c-3.539.531-7.094.976-10.621,1.578a15.1,15.1,0,0,0-5.854,2.391,12.945,12.945,0,0,0-5.568,8.922,26.449,26.449,0,0,0,1.046,11.941,64.119,64.119,0,0,0,6.085,14.12q.329.585.633,1.185a2.913,2.913,0,0,1,.335,1.06c-1.316-.963-2.659-1.891-3.943-2.895a57.636,57.636,0,0,1-13.852-15,26.308,26.308,0,0,1-4.162-16.306c.868-10.454,6.76-19.08,17.97-22.443a38.954,38.954,0,0,1,9.418-1.411c3.038-.144,6.086-.176,9.112-.453,4.048-.37,7.1-2.323,8.6-6.233a10.349,10.349,0,0,0-.429-7.66C-230.39,813-230.858,811.982-231.337,810.864Z" transform="translate(296.167 -810.864)" fill="#24a49b"/>
      <path id="Path_54" data-name="Path 54" d="M-202.924,864.6c1.629-1.73,3.177-3.545,4.9-5.173a35.93,35.93,0,0,1,14.922-8.615,21.5,21.5,0,0,1,8.938-.849,9.247,9.247,0,0,1,7.243,5.243c2.254,4.273,2.227,8.691.769,13.164a34.534,34.534,0,0,1-7.922,12.758c-4.15,4.466-9.139,7.86-14.239,11.115-4.313,2.753-8.646,5.479-12.867,8.369a45.116,45.116,0,0,0-11.514,11.19,17.922,17.922,0,0,0-3.462,8.336,14.245,14.245,0,0,0,1.127,6.557c.265.718.578,1.419.914,2.237a20.2,20.2,0,0,1-4.529-3.141,19.5,19.5,0,0,1-4.834-6.036,12.812,12.812,0,0,1,.227-11.648,33.688,33.688,0,0,1,8.6-10.84,81.983,81.983,0,0,1,13.346-8.756c3.631-2.055,7.3-4.055,10.845-6.246a17.215,17.215,0,0,0,7.245-8.359,13.371,13.371,0,0,0,.648-8.043c-.629-2.792-2.6-4.235-5.191-4.932a12.539,12.539,0,0,0-7.582.513c-2.386.858-4.676,1.984-7.012,2.986a4.159,4.159,0,0,1-.589.16Z" transform="translate(275.689 -826.822)" fill="#534ca0"/>
      <path id="Path_55" data-name="Path 55" d="M-231.764,916.916c-.212-.261-.395-.461-.551-.681a36.657,36.657,0,0,1-7.032-19.632,25.287,25.287,0,0,1,1.7-11.516c.441-1.02,1.038-1.972,1.642-3.1a31.819,31.819,0,0,0,.53,3.547c1.112,4.129,4.013,6.369,8.074,7.064,9.9,1.693,19.113-2.574,24.1-12.159.391-.751.718-1.533,1.1-2.363a5.759,5.759,0,0,1,2.187,2.711,8.529,8.529,0,0,1-.623,8,16,16,0,0,1-7.1,6.5c-3.31,1.644-6.742,3.039-10.116,4.554a27.243,27.243,0,0,0-7.931,4.838,17.825,17.825,0,0,0-5.881,11.948A1.541,1.541,0,0,1-231.764,916.916Z" transform="translate(281.685 -838.406)" fill="#ee2849"/>
      <path id="Path_56" data-name="Path 56" d="M-236.995,819.553a6.756,6.756,0,0,1,6.8-6.838,6.825,6.825,0,0,1,6.823,6.847,6.762,6.762,0,0,1-6.793,6.777A6.7,6.7,0,0,1-236.995,819.553Z" transform="translate(280.699 -811.623)" fill="#24a49b"/>
      <path id="Path_57" data-name="Path 57" d="M-310.828,998.209c2.31.092,4.712.1,7.1.306a3.074,3.074,0,0,1,1.852,5.362,1.114,1.114,0,0,0-.143.227,3.361,3.361,0,0,1,1.284,3.854,3.592,3.592,0,0,1-3.629,2.716c-1.976.081-3.959,0-5.937.013-.88.006-.735-.6-.72-1.124.061-2.262.146-4.523.192-6.785C-310.8,1001.345-310.828,999.911-310.828,998.209Zm3.4,8.5c0,1.276,0,1.282,1.283,1.266a8.981,8.981,0,0,0,1.052-.1.962.962,0,0,0,.945-1.029,1.016,1.016,0,0,0-.91-1.147,8.25,8.25,0,0,0-1.261-.107C-307.423,1005.583-307.424,1005.592-307.427,1006.711Zm.9-3.635a6.552,6.552,0,0,0,1.525-.341,1.107,1.107,0,0,0,.544-.845,1.159,1.159,0,0,0-.609-.875,9.9,9.9,0,0,0-2.011-.188c-.1-.005-.287.087-.292.145a6.726,6.726,0,0,0-.022,1.72C-307.357,1002.879-306.8,1002.965-306.529,1003.076Z" transform="translate(311.043 -887.636)" fill="#25a49b"/>
      <path id="Path_58" data-name="Path 58" d="M-194.873,998.44c0,1.714-.018,3.293,0,4.87.03,2.216.07,4.432.149,6.647.022.621-.179.853-.791.83-.777-.029-1.557-.021-2.335-.005-.463.01-.626-.192-.6-.642.06-1.082.086-2.167.144-3.25.045-.84-.042-.969-.854-.979-1.038-.013-2.076,0-3.114,0-.457,0-.683.18-.66.679.053,1.154.051,2.31.111,3.463.03.57-.2.752-.742.734-.754-.027-1.51-.023-2.264,0-.509.014-.692-.162-.678-.7q.1-3.818.126-7.637c.007-1.107-.049-2.216-.12-3.321-.038-.587.193-.729.74-.693a13.583,13.583,0,0,0,2.191,0c.673-.066.814.2.765.8-.082.986-.1,1.978-.172,2.965-.04.515.127.726.66.715,1.129-.024,2.259-.014,3.388,0,.505.005.714-.183.678-.715q-.109-1.587-.118-3.178c0-.19.2-.542.323-.547C-196.968,998.422-195.89,998.44-194.873,998.44Z" transform="translate(268.205 -887.722)" fill="#25a49b"/>
      <path id="Path_59" data-name="Path 59" d="M-278.8,1010.737c-1.192,0-2.3.028-3.4-.026-.187-.009-.42-.338-.521-.568-.369-.841-.685-1.7-1.033-2.555-.444-1.083-.658-1.188-2.01-.952.063,1.1.084,2.224.208,3.335.074.653-.129.839-.75.805-.753-.041-1.51-.026-2.264,0-.552.017-.727-.2-.715-.76.065-3.064.1-6.128.129-9.192.005-.588-.052-1.177-.105-1.764-.035-.384.1-.593.5-.6,2.049-.011,4.111-.168,6.144,0a3.769,3.769,0,0,1,3.423,5.222,4.982,4.982,0,0,1-1.265,1.81.768.768,0,0,0-.185,1.071c.623,1.242,1.191,2.511,1.776,3.772A2.046,2.046,0,0,1-278.8,1010.737Zm-7.026-8.259c-.032,1.787.547,2.216,2.268,1.677a1.358,1.358,0,0,0,1.052-1.474,1.566,1.566,0,0,0-1.51-1.647C-285.527,1000.753-285.794,1000.966-285.822,1002.478Z" transform="translate(302.123 -887.708)" fill="#26a49b"/>
      <path id="Path_60" data-name="Path 60" d="M-158.869,827.96a5.483,5.483,0,0,1,5.39,5.593,5.466,5.466,0,0,1-5.749,5.363,5.509,5.509,0,0,1-5.22-5.616A5.518,5.518,0,0,1-158.869,827.96Z" transform="translate(250.971 -817.869)" fill="#544da0"/>
      <path id="Path_61" data-name="Path 61" d="M-267.7,998.451c.789,0,1.468,0,2.148,0,1.864-.006,3.728.011,5.59-.035.618-.015.852.224.886.8q.049.811.144,1.62c.056.477-.145.625-.607.6-1.247-.071-2.5-.086-3.744-.171-.658-.045-.818.25-.788.833.028.552.11.986.819.947,1.13-.061,2.262-.071,3.39-.149.49-.034.712.074.649.606-.08.678-.142,1.36-.168,2.043-.015.408-.149.506-.56.48-1.105-.07-2.214-.09-3.322-.1-.344,0-.781-.142-.808.488-.04.948.078,1.313.725,1.353,1.008.063,2.024.013,3.037,0a9.745,9.745,0,0,0,1.057-.089c.462-.058.67.117.6.591a19.037,19.037,0,0,1-.318,2.022.9.9,0,0,1-.64.55c-2.429.009-4.857-.065-7.286-.05-.686,0-.823-.231-.809-.856.066-3.064.1-6.128.126-9.193C-267.572,1000-267.652,999.275-267.7,998.451Z" transform="translate(293.283 -887.72)" fill="#27a59c"/>
      <path id="Path_62" data-name="Path 62" d="M-94.551,1005.9c-1.325,0-2.57-.01-3.815.006-.341,0-.782-.146-.825.474-.062.918.106,1.347.778,1.381,1.032.051,2.071-.006,3.106-.03.486-.011.972-.052,1.639-.09-.167,1.037-.289,1.959-.485,2.864-.032.149-.389.326-.595.326-2.452-.007-4.9-.055-7.355-.068-.486,0-.749-.1-.713-.666a82.229,82.229,0,0,0,.03-11.229,3.056,3.056,0,0,1,.037-.42c.6,0,1.183,0,1.763,0,1.957-.007,3.915.012,5.871-.038.693-.018.923.266.943.894a12.1,12.1,0,0,0,.13,1.408c.084.558-.087.758-.683.713-1.221-.093-2.449-.087-3.671-.174-.665-.047-.813.272-.789.835.024.542.1.991.817.95,1.152-.066,2.306-.089,3.457-.155.412-.024.64.064.592.532C-94.406,1004.253-94.476,1005.094-94.551,1005.9Z" transform="translate(225.714 -887.719)" fill="#554ea0"/>
      <path id="Path_63" data-name="Path 63" d="M-181.468,998.455c.5,0,1.106,0,1.713,0,1.935-.007,3.869,0,5.8-.032.589-.01.878.167.881.79a11.56,11.56,0,0,0,.138,1.548c.075.534-.11.708-.656.671-1.222-.084-2.449-.1-3.673-.168-.557-.031-.831.124-.8.747.031.567.047,1.06.809,1.025,1.153-.052,2.308-.076,3.46-.15.43-.027.623.074.58.532-.067.727-.126,1.456-.153,2.186-.015.413-.227.431-.558.416-1.082-.053-2.167-.091-3.251-.1-.377,0-.882-.2-.882.543,0,.989.113,1.294.843,1.32,1.034.036,2.072-.021,3.109-.049.443-.012.887-.052,1.54-.092-.154,1.032-.273,1.971-.456,2.9-.028.139-.363.311-.555.31-2.452-.012-4.9-.071-7.356-.073-.6,0-.776-.2-.754-.776q.135-3.5.21-7C-181.444,1001.522-181.468,1000.041-181.468,998.455Z" transform="translate(258.034 -887.724)" fill="#26a59b"/>
      <path id="Path_64" data-name="Path 64" d="M-249.623,1010.6c.342-1,.6-1.8.89-2.585,1.137-3.119,2.3-6.228,3.411-9.356.2-.549.464-.653.99-.589a7.969,7.969,0,0,0,1.686.014.858.858,0,0,1,1.026.611q2.143,5.611,4.318,11.21c.214.55.022.737-.523.729-.825-.012-1.651-.015-2.476,0-.493.011-.708-.232-.827-.681-.322-1.208-.089-1.164-1.559-1.168-.685,0-1.369.022-2.052-.006a.818.818,0,0,0-.941.722c-.286,1.114-.306,1.123-1.452,1.137C-247.916,1010.648-248.7,1010.613-249.623,1010.6Zm6.329-8-.23.022-1.049,3.189c.712,0,1.266.025,1.815-.021.105-.008.295-.321.262-.446C-242.736,1004.414-243.022,1003.5-243.294,1002.591Z" transform="translate(285.874 -887.571)" fill="#25a49b"/>
      <path id="Path_65" data-name="Path 65" d="M-122.136,998.374c1.865,0,3.655.015,5.445-.007.918-.011,1.837-.08,2.754-.139.47-.03.682.133.695.636a11.382,11.382,0,0,0,.2,1.822c.1.528-.079.685-.58.649-1.293-.091-2.585-.187-3.879-.236-.807-.03-1.1.356-.977,1.144.073.454.284.718.8.691,1.035-.054,2.073-.054,3.108-.121.606-.039.947.106.91.792-.031.586-.018,1.176,0,1.762s-.178.765-.794.707c-1.054-.1-2.119-.067-3.179-.107-.608-.023-.92.175-.868.854.085,1.1.08,2.215.176,3.318.044.5-.151.644-.579.635-.824-.017-1.648-.058-2.472-.056-.534,0-.679-.248-.666-.747.057-2.049.123-4.1.113-6.149-.007-1.436-.135-2.871-.2-4.307C-122.149,999.168-122.136,998.82-122.136,998.374Z" transform="translate(233.633 -887.643)" fill="#554ea0"/>
      <path id="Path_66" data-name="Path 66" d="M-223.018,1001.2l-2.953.159c.13-1,.235-1.9.378-2.8.015-.1.248-.238.366-.225a42.655,42.655,0,0,0,8.188-.074c.042,0,.087.029.168.058.043.843.106,1.7.109,2.562,0,.115-.3.323-.467.331-.748.037-1.5.016-2.351.016,0,1.445-.017,2.948.005,4.45.022,1.438.063,2.875.142,4.311.032.587-.217.744-.738.731-.778-.018-1.557-.022-2.334,0-.531.016-.711-.217-.688-.723.069-1.531.139-3.062.171-4.594C-223,1004.023-223.018,1002.641-223.018,1001.2Z" transform="translate(276.181 -887.657)" fill="#25a49b"/>
      <path id="Path_67" data-name="Path 67" d="M-143.307,1007.912c-.074.878-.115,1.723-.24,2.556a.736.736,0,0,1-.543.461c-2.477-.015-4.954-.081-7.43-.112-.535-.006-.526-.318-.526-.7q.011-3.964,0-7.93v-3.644h3.547q-.113,4.673-.227,9.37Z" transform="translate(245.888 -887.773)" fill="#554ea0"/>
      <path id="Path_68" data-name="Path 68" d="M-211.837,884.185a4.238,4.238,0,0,1-4.249,4.21,4.29,4.29,0,0,1-4.205-4.2,4.268,4.268,0,0,1,4.269-4.273A4.226,4.226,0,0,1-211.837,884.185Z" transform="translate(273.854 -839.162)" fill="#ee2949"/>
      <path id="Path_69" data-name="Path 69" d="M-129.825,998.433c0,1.791-.011,3.46,0,5.129.017,2.143.039,4.286.09,6.429.013.567-.152.824-.75.8-.729-.031-1.462-.037-2.19,0-.656.036-.852-.207-.819-.863.112-2.21.2-4.424.232-6.636.021-1.388-.054-2.778-.117-4.166-.024-.514.127-.723.669-.7C-131.725,998.458-130.74,998.433-129.825,998.433Z" transform="translate(238.286 -887.723)" fill="#554ea0"/>
      <path id="Path_70" data-name="Path 70" d="M-187.811,874.865l-.044.088c0-.014-.008-.034,0-.041a.3.3,0,0,1,.057-.038Z" transform="translate(260.564 -837.091)" fill="#534ca0"/>
    </g>
  </g>
</svg>
