<?xml version="1.0" encoding="utf-8"?>
<!-- Generator: Adobe Illustrator 26.0.3, SVG Export Plug-In . SVG Version: 6.00 Build 0)  -->
<svg version="1.1" id="Layer_1" xmlns="http://www.w3.org/2000/svg" xmlns:xlink="http://www.w3.org/1999/xlink" x="0px" y="0px"
	 viewBox="0 0 85 69.2" style="enable-background:new 0 0 85 69.2;" xml:space="preserve">
<style type="text/css">
	.st0{fill:#FFFFFF;}
</style>
<g transform="translate(-1178.693 -2155.5)">
	<path class="st0" d="M1257,2167.9l-6.8-7.4c-0.8-0.9-1.6-1-2.4-0.4c-4.9,2.8-10,5.3-15.2,7.5c-3.2,1.1-4.6,2.5-5.1,5
		c-0.8,3.4-5.1,4.7-6,4.5c-2.8,0-5.4-1.8-6.3-4.5c-0.4-2.5-1.8-3.9-5-5c-5.2-2.2-10.3-4.7-15.2-7.5l0,0c-0.3-0.2-0.6-0.4-1-0.4
		c-0.6,0-1.1,0.3-1.4,0.8l-6.8,7.4c-1.9,1.6-1.3,3.4-0.2,5.6c2.9,6.8,5.5,13,8.1,19.4c0.6,1.3,1.5,2.4,2.6,3.2
		c1.2,1,2.2,2.2,2.9,3.6c0.7,1.3,1.2,2.8,1.6,4.2c0.9,3.2,1.7,5.9,6.3,7.6c8.3,4.1,12,6.7,13.7,8.2c0.5,0.4,0.7,0.4,1.3,0
		c1.7-1.5,5.4-4.1,13.7-8.2c4.5-1.7,5.3-4.4,6.3-7.6c0.4-1.5,0.9-2.9,1.6-4.2c0.7-1.4,1.6-2.7,2.9-3.6c1.1-0.9,2-2,2.6-3.2
		c2.6-6.5,5.2-12.7,8.1-19.4C1258.2,2171.3,1258.9,2169.5,1257,2167.9z M1249.1,2173.9l-4.7,12.9c-1.4,3.6-3.2,2.5-4.3,6.5
		l-4.3,11.8c-1.6,3.5-3.7,2.9-5.3,4.9l-2.2,1.9c-0.4,0.6-1.9,1.5-0.8-0.3c2-5.5,1.9-9.2,3.4-13.8c1-1.6,3.5-2.3,4.3-6.1l3.6-10.9
		c-1.1,1.2-2.4,2.2-3.8,2.9c-1.7,0.8-3,2.2-3.6,4c-0.8,2.1-1.1,2.6-2.9,3.5c-3.1,1.7-4.8,4-6.4,4.8c-0.6,0.4-0.8,0.3-1.6,0
		c-1.5-0.9-3.2-3.1-6.3-4.8c-1.8-0.9-2.1-1.5-2.9-3.5c-0.6-1.8-1.9-3.2-3.6-4c-1.4-0.7-2.7-1.7-3.8-2.9l3.6,10.9
		c0.9,3.9,3.3,4.5,4.3,6.1c1.6,4.6,1.5,8.3,3.4,13.8c1,1.8-0.4,0.9-0.8,0.3l-2.2-1.9c-1.6-2-3.7-1.4-5.3-4.9l-4.3-11.8
		c-1.1-3.9-2.9-2.8-4.3-6.5l-4.7-12.9c-0.7-1.3-0.2-2.6,0.8-3.7l2.3-2.5c0.7-0.7,1.8-0.8,2.6-0.2c4.5,2.6,10.1,4.5,11.1,5.5
		c2.1,0.8,1,4.2,4.9,6c2,1.2,3.8,3.2,5.9,3.5c2.2-0.4,4-2.3,5.9-3.5c3.9-1.8,2.8-5.3,4.9-6c1-0.9,6.6-2.9,11.1-5.5
		c0.8-0.6,1.9-0.6,2.6,0.2l2.3,2.5C1249.3,2171.3,1249.9,2172.5,1249.1,2173.9L1249.1,2173.9z"/>
</g>
</svg>
