<svg xmlns="http://www.w3.org/2000/svg" width="161.165" height="37.36" viewBox="0 0 161.165 37.36">
  <g id="Logo" transform="translate(166.776 309.366)">
    <g id="Group_99" data-name="Group 99" transform="translate(-166.776 -309.366)">
      <g id="Group_98" data-name="Group 98">
        <path id="Path_279" data-name="Path 279" d="M-28.062-304.7a.8.8,0,0,1-.083.361l-2.893,7.169a10.835,10.835,0,0,1-3.847,4.724A9.393,9.393,0,0,1-40.4-290.47l-1.834-.03a1,1,0,0,1-1.03-1.114,1.183,1.183,0,0,1,.612-.972.99.99,0,0,1,.529-.139h.8a3.733,3.733,0,0,0,2.253-.834,4.725,4.725,0,0,0,1.583-2l3.529-8.78A1.539,1.539,0,0,1-32.4-305.37h3.559q.779,0,.78.67m-14.559,8.461a1.213,1.213,0,0,1-.424-.794l-.719-7.223a.949.949,0,0,1,.235-.792.984.984,0,0,1,.765-.322h1.914a1.246,1.246,0,0,1,.821.322,1.092,1.092,0,0,1,.405.792l.75,7.223a.946.946,0,0,1-.249.794,1,1,0,0,1-.753.321h-1.916a1.2,1.2,0,0,1-.829-.321m-3.174-8.809a1.243,1.243,0,0,1,.418.792l.721,7.223a.961.961,0,0,1-.235.794.989.989,0,0,1-.765.321h-1.89a1.225,1.225,0,0,1-.834-.321,1.222,1.222,0,0,1-.419-.794l-.75-7.223a1.052,1.052,0,0,1,.268-.792.982.982,0,0,1,.762-.322h1.89a1.233,1.233,0,0,1,.835.322" transform="translate(168.906 309.439)" fill="#383737"/>
        <path id="Path_280" data-name="Path 280" d="M-30.8-309.1s.025-.271.609-.271h1.064s.466,0,.512.234c.021.127.381,1.978.381,1.978s.07.283-.407.283H-29.84s-.435-.018-.561-.234a17.1,17.1,0,0,1-.4-1.991" transform="translate(169.247 309.366)" fill="#383737"/>
        <path id="Path_281" data-name="Path 281" d="M-33.8-309.1s.029-.271.613-.271h1.064s.474,0,.512.234c.015.127.38,1.978.38,1.978s.073.283-.409.283h-1.192s-.434-.018-.557-.234a15.711,15.711,0,0,1-.41-1.991" transform="translate(169.192 309.366)" fill="#383737"/>
        <path id="Path_282" data-name="Path 282" d="M-52.783-301.659a1.048,1.048,0,0,1,.328.765,1.169,1.169,0,0,1-.6.983,1.41,1.41,0,0,1-.517.139h-3.561a1.212,1.212,0,0,0-.83.328,1.194,1.194,0,0,0-.424.765l-.221,1.617a7.283,7.283,0,0,1-2.572,4.664,7.353,7.353,0,0,1-4.949,1.928H-69.5a1.066,1.066,0,0,1-.791-.33,1.038,1.038,0,0,1-.33-.766,1.047,1.047,0,0,1,.576-.986,1.493,1.493,0,0,1,.545-.135h1.779a3.147,3.147,0,0,0,2.093-.807,3,3,0,0,0,1.081-1.954l.435-3.232a.921.921,0,0,0-.23-.765.961.961,0,0,0-.754-.328h-7.6a1.117,1.117,0,0,1-.807-.33.986.986,0,0,1-.316-.792,1.044,1.044,0,0,1,.576-.958,1.6,1.6,0,0,1,.547-.136h7.908a1.2,1.2,0,0,0,.832-.33,1.2,1.2,0,0,0,.426-.791l.134-1.174a1.219,1.219,0,0,1,.427-.77,1.226,1.226,0,0,1,.833-.329h3.5a.917.917,0,0,1,.74.329.985.985,0,0,1,.217.77l-.134,1.174a.983.983,0,0,0,.22.791.9.9,0,0,0,.736.33h3.285a1.1,1.1,0,0,1,.793.33" transform="translate(168.465 309.438)" fill="#383737"/>
        <path id="Path_283" data-name="Path 283" d="M-22.809-296.783H-9.265a1.077,1.077,0,0,0,.8-.327,1.087,1.087,0,0,0,.326-.8,1.019,1.019,0,0,0-.574-.983,1.479,1.479,0,0,0-.549-.138H-26.357a1.49,1.49,0,0,0-.55.138,1.023,1.023,0,0,0-.574.983,1.084,1.084,0,0,0,.328.8,1.073,1.073,0,0,0,.8.327h13.545" transform="translate(169.307 309.554)" fill="#383737"/>
        <path id="Path_284" data-name="Path 284" d="M-91.4-304.489a1.029,1.029,0,0,1,1.108-.953h1.942a.912.912,0,0,1,.92.815c.039.458.693,7.009.693,7.009s.134,1-.738,1H-89.65a1.175,1.175,0,0,1-1.017-.817c-.233-.771-.737-7.055-.737-7.055" transform="translate(168.146 309.437)" fill="#383737"/>
        <path id="Path_285" data-name="Path 285" d="M-96.841-304.489a1.03,1.03,0,0,1,1.113-.953H-93.8a.912.912,0,0,1,.923.815c.04.458.7,7.009.7,7.009s.134,1-.743,1h-2.164a1.169,1.169,0,0,1-1.014-.817c-.233-.771-.742-7.055-.742-7.055" transform="translate(168.047 309.437)" fill="#383737"/>
        <path id="Path_286" data-name="Path 286" d="M-81.172-304.565s.256-.876,1.57-.876h3.492s.923.177.637.876-11.492,26.677-11.492,26.677a11.359,11.359,0,0,1-11.013,5.764c-1.164-.043-1.258-2.14.289-2.131,0,0,3.108.83,4.819-3.13s11.7-27.18,11.7-27.18" transform="translate(168.01 309.437)" fill="#383737"/>
        <path id="Path_287" data-name="Path 287" d="M-166.514-277.951c-.077-1.229-.163-2.208-.262-2.946a9.234,9.234,0,0,0,1.728.6,6.272,6.272,0,0,0,1.33.17,2.737,2.737,0,0,0,1.2-.222.7.7,0,0,0,.448-.651.935.935,0,0,0-.048-.281,1.182,1.182,0,0,0-.164-.305,2.721,2.721,0,0,0-.346-.367l-1.628-1.413c-.381-.327-.648-.557-.8-.7a5.326,5.326,0,0,1-.712-.82,2.8,2.8,0,0,1-.375-.777,2.9,2.9,0,0,1-.116-.831,2.985,2.985,0,0,1,.186-1.035,3.058,3.058,0,0,1,.558-.943,3.171,3.171,0,0,1,.987-.76,4.334,4.334,0,0,1,1.312-.438,8.61,8.61,0,0,1,1.439-.117,16.575,16.575,0,0,1,3.182.336c.016.4.037.766.058,1.1s.076.91.165,1.739a8.046,8.046,0,0,0-1.452-.448,6.489,6.489,0,0,0-1.129-.122,2.259,2.259,0,0,0-1.12.249.736.736,0,0,0-.447.623.846.846,0,0,0,.071.337,1.7,1.7,0,0,0,.258.387,5.459,5.459,0,0,0,.5.483c.21.173.534.432.977.781l.619.491a7.167,7.167,0,0,1,.6.545,6.587,6.587,0,0,1,.551.631,3.368,3.368,0,0,1,.359.57,2.316,2.316,0,0,1,.183.517,2.629,2.629,0,0,1,.059.571,3.1,3.1,0,0,1-.372,1.481,3.106,3.106,0,0,1-1.049,1.154,4.35,4.35,0,0,1-1.5.637,8.055,8.055,0,0,1-1.721.183,19.764,19.764,0,0,1-3.536-.407" transform="translate(166.776 309.722)" fill="#383737"/>
        <path id="Path_288" data-name="Path 288" d="M-151.405-277.773c.091-.86.158-1.563.2-2.118.083-1.157.167-2.5.255-4.032.052-1.016.095-1.989.116-2.923s.038-1.841.038-2.717c.733.009,1.329.015,1.79.015.622,0,1.208-.006,1.759-.015l-.179,2.088c-.03.349-.075,1.047-.136,2.1a5.118,5.118,0,0,1,.466-.542,3.647,3.647,0,0,1,.4-.328,3.236,3.236,0,0,1,.448-.254,2.717,2.717,0,0,1,.528-.18,5.433,5.433,0,0,1,.653-.124,7.016,7.016,0,0,1,.743-.043,6,6,0,0,1,1.417.167,2.774,2.774,0,0,1,1.172.572,2.126,2.126,0,0,1,.654.918,3.353,3.353,0,0,1,.172,1.11c0,.156-.005.36-.012.616s-.027.578-.057.972l-.187,2.909c-.022.363-.036.667-.041.9s0,.54,0,.905c-.6-.013-1.175-.019-1.72-.019-.617,0-1.24.006-1.875.019.1-.765.187-1.647.258-2.651s.112-1.741.112-2.229a1.556,1.556,0,0,0-.342-1.144,1.256,1.256,0,0,0-.9-.325,1.918,1.918,0,0,0-.893.2,1.745,1.745,0,0,0-.607.565,2.76,2.76,0,0,0-.369.922,14.524,14.524,0,0,0-.268,2.168c-.038.53-.066,1.359-.1,2.489-.58-.013-1.122-.019-1.629-.019s-1.133.006-1.854.019" transform="translate(167.055 309.726)" fill="#383737"/>
        <path id="Path_289" data-name="Path 289" d="M-133.477-287.695c.037-.686.055-1.225.055-1.626,0-.113-.007-.27-.01-.464q1.043.017,1.754.016c.648,0,1.222-.005,1.707-.016-.014.179-.026.327-.036.448l-.048,1.073c-.014.162-.019.352-.019.569-.569-.012-1.118-.017-1.641-.017-.542,0-1.128.005-1.762.017m-.543,9.926c.08-.7.142-1.282.18-1.737s.079-1.036.118-1.743.067-1.5.1-2.353.049-1.854.07-2.988q1.121.017,1.794.017.612,0,1.761-.017c-.1,1.091-.167,2.041-.211,2.87s-.074,1.694-.085,2.617q-.034,2.451-.036,3.334c-.681-.013-1.272-.019-1.766-.019s-1.13.006-1.926.019" transform="translate(167.371 309.722)" fill="#383737"/>
        <path id="Path_290" data-name="Path 290" d="M-123.071-277.822c.164-1.307.3-2.75.381-4.333s.141-3.075.157-4.488q1.037.017,1.789.017.875,0,1.678-.017l-.087,1.176a6.9,6.9,0,0,1,.494-.506,3.21,3.21,0,0,1,.515-.363,3.483,3.483,0,0,1,.653-.289,5.2,5.2,0,0,1,.755-.178,5.856,5.856,0,0,1,.859-.065,5.415,5.415,0,0,1,1.215.135,3.186,3.186,0,0,1,.986.381,2.258,2.258,0,0,1,.666.612,2.014,2.014,0,0,1,.355.793,4.394,4.394,0,0,1,.089.872c0,.219-.025.692-.069,1.415l-.15,3.128c-.031.616-.044,1.187-.044,1.712q-.874-.02-1.631-.019c-.686,0-1.309.006-1.875.019.049-.524.108-1.305.167-2.34s.085-1.757.085-2.18a1.935,1.935,0,0,0-.37-1.358,1.284,1.284,0,0,0-.952-.385,1.569,1.569,0,0,0-.945.327,2.076,2.076,0,0,0-.687.956,7.586,7.586,0,0,0-.341,2.058c-.068.957-.112,1.928-.135,2.922-.577-.013-1.136-.019-1.683-.019q-.866,0-1.873.019" transform="translate(167.57 309.775)" fill="#383737"/>
        <path id="Path_291" data-name="Path 291" d="M-104.8-284.127c.108-.57.175-.965.207-1.182s.075-.552.137-1.015a20.654,20.654,0,0,1,4.276-.543,7.21,7.21,0,0,1,1.868.23,2.763,2.763,0,0,1,1.323.738,2.07,2.07,0,0,1,.472,1.459c0,.323-.041,1.049-.128,2.176s-.152,2.609-.2,4.442c-.566-.013-1.13-.019-1.687-.019s-1.12.006-1.731.019q.124-.947.263-3.925c-.22.108-.394.179-.513.228s-.341.116-.65.208-.554.169-.729.233a1.667,1.667,0,0,0-.458.239,1.029,1.029,0,0,0-.277.3.757.757,0,0,0-.078.35.643.643,0,0,0,.233.5,1.086,1.086,0,0,0,.743.209,2.232,2.232,0,0,0,.385-.031,3.416,3.416,0,0,0,.574-.151c-.167.443-.368,1.093-.6,1.945a9.138,9.138,0,0,1-1.408.12,4.636,4.636,0,0,1-1.782-.3,2.23,2.23,0,0,1-1.1-.959,2.67,2.67,0,0,1-.382-1.33,2.248,2.248,0,0,1,.139-.8,2.71,2.71,0,0,1,.443-.763,3.041,3.041,0,0,1,.711-.632,4.873,4.873,0,0,1,1.109-.5,14.4,14.4,0,0,1,1.785-.443c.3-.056.571-.117.824-.184a3.9,3.9,0,0,0,.536-.172.758.758,0,0,0,.256-.174.62.62,0,0,0,.147-.206.631.631,0,0,0,.044-.231.561.561,0,0,0-.276-.505,1.527,1.527,0,0,0-.814-.176,10.644,10.644,0,0,0-3.668.84" transform="translate(167.88 309.775)" fill="#383737"/>
        <path id="Path_292" data-name="Path 292" d="M-79.14-287.695c.034-.686.053-1.225.053-1.626,0-.113-.005-.27-.01-.464.7.011,1.283.016,1.752.016.654,0,1.223-.005,1.714-.016-.02.179-.032.327-.035.448l-.053,1.073c-.011.162-.017.352-.017.569q-.852-.018-1.641-.017c-.54,0-1.129.005-1.762.017m-.543,9.926c.078-.7.137-1.282.177-1.737s.082-1.036.118-1.743.07-1.5.1-2.353.053-1.854.069-2.988c.748.011,1.35.017,1.8.017.41,0,.995-.006,1.76-.017-.1,1.091-.17,2.041-.213,2.87s-.072,1.694-.082,2.617q-.034,2.451-.036,3.334c-.683-.013-1.274-.019-1.769-.019s-1.134.006-1.923.019" transform="translate(168.359 309.722)" fill="#383737"/>
        <path id="Path_293" data-name="Path 293" d="M-68.159-287.695c.033-.686.053-1.225.053-1.626,0-.113-.005-.27-.01-.464q1.043.017,1.754.016.974,0,1.713-.016c-.018.179-.03.327-.038.448l-.049,1.073c-.015.162-.021.352-.021.569q-.852-.018-1.639-.017c-.543,0-1.124.005-1.762.017m-.545,9.926c.083-.7.139-1.282.18-1.737s.082-1.036.117-1.743.069-1.5.1-2.353.049-1.854.068-2.988c.746.011,1.347.017,1.8.017.414,0,.995-.006,1.766-.017-.1,1.091-.172,2.041-.213,2.87s-.074,1.694-.087,2.617c-.02,1.634-.034,2.746-.034,3.334-.688-.013-1.275-.019-1.772-.019s-1.13.006-1.923.019" transform="translate(168.558 309.722)" fill="#383737"/>
      </g>
    </g>
  </g>
</svg>
