<?xml version="1.0" encoding="utf-8"?>
<!-- Generator: Adobe Illustrator 26.5.0, SVG Export Plug-In . SVG Version: 6.00 Build 0)  -->
<svg version="1.1" id="Layer_1" xmlns="http://www.w3.org/2000/svg" xmlns:xlink="http://www.w3.org/1999/xlink" x="0px" y="0px"
	 viewBox="0 0 1122 1122" style="enable-background:new 0 0 1122 1122;" xml:space="preserve">
<style type="text/css">
	.st0{fill:none;}
	.st1{fill:#F3CC30;}
	.st2{fill:#F7DB5E;}
	.st3{fill:#EDBD31;}
	.st4{fill:#FFFFFF;}
	.st5{font-family:'Poppins-Bold';}
	.st6{font-size:313.9227px;}
</style>
<g id="BG">
	<rect class="st0" width="1122" height="1122"/>
</g>
<g id="Object">
	<g>
		<g>
			<path class="st1" d="M577.1,10.5l159.4,339.1c2.6,5.6,7.7,9.4,13.5,10.3l356.4,54.4c14.8,2.2,20.7,21.3,10,32.2L858.6,710.5
				c-4.2,4.3-6.2,10.6-5.2,16.7l60.9,372.7c2.5,15.4-12.9,27.2-26.1,19.9l-318.8-176c-5.3-2.9-11.5-2.9-16.8,0l-318.8,176
				c-13.2,7.3-28.6-4.5-26.1-19.9l60.9-372.7c1-6.1-0.9-12.4-5.2-16.7L5.5,446.6c-10.7-10.9-4.8-30,10-32.2l356.4-54.4
				c5.9-0.9,10.9-4.8,13.5-10.3L544.8,10.5C551.4-3.5,570.5-3.5,577.1,10.5L577.1,10.5z"/>
			<path class="st2" d="M561,88.8l-142,288.8c-7.4,15.2-21.8,25.3-37.9,26.8L72.6,434l325.9,16c20.7,1,39.6-12.2,46.8-32.6L561,88.8
				L561,88.8z"/>
			<path class="st3" d="M214.7,1057l-7,42.9c-2.5,15.4,12.9,27.2,26.1,19.9l318.8-176c5.3-2.9,11.5-2.9,16.8,0l318.8,176
				c13.2,7.3,28.6-4.5,26.1-19.9l-60.9-372.7c-1-6.1,0.9-12.4,5.2-16.7l257.9-263.9c10.7-10.9,4.8-30-10-32.2l-119.4-18.2
				C794.1,759.9,498.4,951.4,214.7,1057L214.7,1057z"/>
		</g>
		<text transform="matrix(0.9526 0 0 1 274.9561 713.5098)" class="st4 st5 st6">$35</text>
	</g>
</g>
</svg>
