<?xml version="1.0" encoding="utf-8"?>
<!-- Generator: Adobe Illustrator 26.5.0, SVG Export Plug-In . SVG Version: 6.00 Build 0)  -->
<svg version="1.1" id="Layer_1" xmlns="http://www.w3.org/2000/svg" xmlns:xlink="http://www.w3.org/1999/xlink" x="0px" y="0px"
	 viewBox="0 0 1122 1122" style="enable-background:new 0 0 1122 1122;" xml:space="preserve">
<style type="text/css">
	.st0{fill:none;}
	.st1{fill:#F3CC30;}
	.st2{fill:#F7DB5E;}
	.st3{fill:#EDBD31;}
	.st4{enable-background:new    ;}
	.st5{fill:#FFFFFF;}
</style>
<g id="BG">
	<rect class="st0" width="1122" height="1122"/>
</g>
<g id="Object">
	<g>
		<g>
			<path class="st1" d="M577.1,10.5l159.4,339.1c2.6,5.6,7.7,9.4,13.5,10.3l356.4,54.4c14.8,2.2,20.7,21.3,10,32.2L858.6,710.5
				c-4.2,4.3-6.2,10.6-5.2,16.7l60.9,372.7c2.5,15.4-12.9,27.2-26.1,19.9l-318.8-176c-5.3-2.9-11.5-2.9-16.8,0l-318.8,176
				c-13.2,7.3-28.6-4.5-26.1-19.9l60.9-372.7c1-6.1-0.9-12.4-5.2-16.7L5.5,446.6c-10.7-10.9-4.8-30,10-32.2l356.4-54.4
				c5.9-0.9,10.9-4.8,13.5-10.3L544.8,10.5C551.4-3.5,570.5-3.5,577.1,10.5L577.1,10.5z"/>
			<path class="st2" d="M561,88.8l-142,288.8c-7.4,15.2-21.8,25.3-37.9,26.8L72.6,434l325.9,16c20.7,1,39.6-12.2,46.8-32.6L561,88.8
				L561,88.8z"/>
			<path class="st3" d="M214.7,1057l-7,42.9c-2.5,15.4,12.9,27.2,26.1,19.9l318.8-176c5.3-2.9,11.5-2.9,16.8,0l318.8,176
				c13.2,7.3,28.6-4.5,26.1-19.9l-60.9-372.7c-1-6.1,0.9-12.4,5.2-16.7l257.9-263.9c10.7-10.9,4.8-30-10-32.2l-119.4-18.2
				C794.1,759.9,498.4,951.4,214.7,1057L214.7,1057z"/>
		</g>
		<g class="st4">
			<path class="st5" d="M443.8,681.3c-5.7,9.7-14.1,17.7-25.1,23.9c-11.1,6.2-24.2,9.6-39.3,10.2v25.4h-19.1v-25.7
				c-21.1-1.9-38.2-8.5-51.1-19.9c-13-11.4-19.8-26.9-20.6-46.6h54.4c1.2,12.6,7,20.6,17.3,24.2v-49.6c-15.6-4.2-28-8.3-37.2-12.2
				c-9.3-4-17.4-10.4-24.4-19.1c-7-8.8-10.5-20.8-10.5-36.1c0-19,6.7-34.3,20.2-45.8c13.5-11.5,30.8-18,51.9-19.5v-25.4h19.1v25.4
				c20.9,1.7,37.5,8.1,49.6,19.1c12.2,11.1,18.9,26.5,20.3,46.1h-54.7c-1.2-11.3-6.3-18.6-15.3-22v48.7c16.5,4.8,29.3,9.1,38.3,12.9
				c9,3.8,17,10,24.1,18.7c7.1,8.7,10.6,20.6,10.6,35.6C452.3,661,449.4,671.6,443.8,681.3z M346.9,566.3c3.1,3.6,7.5,6.7,13.3,9.4
				v-43.6c-5.6,1-10,3.3-13.2,6.7c-3.2,3.5-4.8,8.2-4.8,14.3C342.2,558.3,343.8,562.7,346.9,566.3z M393.5,666.1
				c3.5-4,5.2-8.9,5.2-14.8c0-5.4-1.6-9.9-4.9-13.3s-8.1-6.4-14.5-8.9v44.6C385.3,672.6,390,670.1,393.5,666.1z"/>
			<path class="st5" d="M507.9,497.2c13.2-12.1,31-18.2,53.5-18.2c15,0,27.8,2.7,38.4,8.2c10.7,5.4,18.7,12.9,24.2,22.3
				c5.5,9.4,8.2,20,8.2,31.7c0,13.8-3.3,25.1-9.9,33.7c-6.6,8.7-14.3,14.6-23,17.7v1.3c11.4,4,20.3,10.6,26.9,19.8
				c6.6,9.2,9.9,21,9.9,35.5c0,13-2.8,24.4-8.5,34.4c-5.7,9.9-14,17.7-24.8,23.4c-10.9,5.7-23.8,8.5-38.7,8.5
				c-23.9,0-43-6.2-57.3-18.5c-14.3-12.3-21.8-31-22.6-55.9h49.6c0.2,9.2,2.7,16.5,7.5,21.8c4.8,5.3,11.8,8,20.9,8
				c7.8,0,13.8-2.4,18.1-7.1c4.3-4.7,6.4-10.9,6.4-18.7c0-10-3-17.3-9.1-21.8c-6.1-4.5-15.8-6.7-29.2-6.7H539v-43.6h9.6
				c10.2,0,18.4-1.8,24.7-5.5c6.3-3.7,9.4-10.2,9.4-19.6c0-7.5-2-13.4-6-17.6c-4-4.2-9.5-6.3-16.4-6.3c-7.6,0-13.2,2.4-16.9,7.2
				c-3.7,4.8-5.8,10.8-6.4,17.9H487C487.8,526.6,494.7,509.4,507.9,497.2z"/>
			<path class="st5" d="M819.8,531.1h-93.3v43.3c4-4.6,9.6-8.4,16.7-11.3c7.2-2.9,15-4.4,23.3-4.4c15,0,27.4,3.6,37.2,10.7
				c9.9,7.1,17.1,16.3,21.7,27.6c4.6,11.3,6.9,23.5,6.9,36.7c0,24.5-6.6,43.9-19.7,58.2c-13.2,14.3-31.7,21.5-55.6,21.5
				c-16,0-29.8-2.9-41.6-8.6c-11.8-5.8-20.8-13.8-27.2-24c-6.4-10.3-9.9-22.1-10.5-35.5h49.9c1.2,6.5,4.1,11.9,8.7,16.2
				c4.6,4.3,10.9,6.4,18.8,6.4c9.4,0,16.3-3.1,20.9-9.4c4.6-6.3,6.9-14.6,6.9-25.1c0-10.3-2.4-18.1-7.2-23.5
				c-4.8-5.4-11.8-8.2-20.9-8.2c-6.8,0-12.4,1.7-16.7,5.2c-4.4,3.5-7.3,8-8.7,13.7h-49.3V484h139.7V531.1z"/>
		</g>
	</g>
</g>
</svg>
