<svg xmlns="http://www.w3.org/2000/svg" width="968.907" height="789.753" viewBox="0 0 968.907 789.753"><path d="M2207.105,1369.131l-89.235-97.027c-10.566-11.217-20.706-12.911-31-5.175-60.713,34.44-124.051,65.537-199.554,98-42.206,14.221-60.768,32.5-66.349,65.243-11.03,43.91-66.592,61.547-79.124,59.139-32.919,2.9-74.627-26.75-82.731-58.983-5.616-32.906-24.175-51.18-66.231-65.339-75.645-32.523-138.985-63.621-199.489-97.921l-.22-.146c-4.208-3.163-8.4-4.751-12.6-4.751-6.068,0-12.167,3.31-18.42,9.947l-89.013,96.818c-25,20.729-16.627,44.26-3.105,72.887,38.667,88.4,72.629,169,106.9,253.7,7.8,18.047,20.749,29.649,34.454,41.93,14.3,12.809,29.077,26.055,37.68,47.282,9.741,18.508,15.22,37.007,20.516,54.9,12.228,41.3,22.791,76.975,82.115,98.566,108.9,53.078,158.112,87.523,180.26,107.083,6.626,4.707,9.493,5.2,16.76-.559,22.159-19.443,71.351-53.752,179.426-106.443,59.521-21.672,70.082-57.343,82.31-98.645,5.3-17.89,10.773-36.389,20.6-55.081,8.517-21.041,23.3-34.286,37.594-47.1,13.7-12.281,26.65-23.883,34.468-41.977,34.294-84.743,68.256-165.341,106.863-253.6C2223.533,1413.2,2231.9,1389.672,2207.105,1369.131ZM2103.578,1447.4l-61.165,167.937c-18.217,47.546-42.336,33.163-56.429,84.247l-56,154.238c-21.153,45.432-48.916,37.779-69.4,63.848l-29.427,24.166c-5.6,7.893-24.827,19.609-11.074-3.555,25.734-72.291,24.717-120.215,45.117-180.493,13.131-21.172,45.372-29.568,56.712-80.146l46.656-141.9c-16.657,16.749-33.151,30.847-49.808,37.712-24.641,12.745-38.368,27.819-47.4,51.854-10.473,26.752-14.158,33.686-37.571,45.838-41.288,22.664-63.679,52.248-83.446,62.956-8.475,4.874-10.418,4.257-20.471-.64-19.5-11.2-41.805-40.09-82.3-62.316-23.41-12.152-27.1-19.085-37.571-45.838-9.03-24.036-22.755-39.109-47.4-51.854-16.657-6.865-33.151-20.963-49.806-37.712l46.653,141.9c11.343,50.577,43.581,58.974,56.714,80.146,20.4,60.278,19.382,108.2,45.115,180.493,13.753,23.165-5.469,11.449-11.071,3.555l-29.427-24.166c-20.483-26.068-48.248-18.416-69.4-63.848l-56-154.238c-14.091-51.085-38.21-36.7-56.429-84.247L1377.8,1447.4c-9.818-17.593-2.944-33.438,10.362-47.882l30.4-32.725c9.588-8.911,20.812-10.517,34.271-2.12,58.962,33.545,132.832,58.846,146.262,71.192,27.709,9.806,12.7,55.292,63.838,78.741,25.656,15.347,49.363,41.177,77.754,45.9,28.388-4.719,52.1-30.548,77.751-45.9,51.136-23.45,36.132-68.935,63.839-78.741,13.431-12.346,87.3-37.647,146.265-71.192,13.456-8.4,24.68-6.791,34.269,2.12l30.4,32.725C2106.519,1413.958,2113.4,1429.8,2103.578,1447.4Z" transform="translate(-1255.586 -1260.675)" fill="none" stroke="#707070" stroke-width="3" opacity="0.5"/></svg>