<svg id="Layer_1" data-name="Layer 1" xmlns="http://www.w3.org/2000/svg" viewBox="0 0 1285.02 132.77"><path d="M59,73.93H124l31.11,49.13,18.87-49.13H220L177.84,183.75H132.45l-31.11-49.13L82.47,183.75H36.4l35.87-93.5Z" transform="translate(-36.4 -73.93)" style="fill:#fff"/><path d="M359.23,150.26,267.09,206.7l-49.3-56.44,23-60L227.48,73.93H293.1l-24,62.22,17,20.23,32.3-20.23,24-62.22h46.07Z" transform="translate(-36.4 -73.93)" style="fill:#fff"/><path d="M537.22,115.24h95.2l-10.54,27.2h-95.2l-15.81,41.31H464.8l35.87-93.5L487.41,73.93H648.23L637.69,101.3h-95.2Z" transform="translate(-36.4 -73.93)" style="fill:red"/><path d="M669,90.25,655.71,73.93h161L774.54,183.75H633.1Zm41.82,11-21.25,55.25h49.3l21.25-55.25Z" transform="translate(-36.4 -73.93)" style="fill:red"/><path d="M957.63,145.67H932.3l10.54,38.08H896.6l-11.22-38.08H862.26l-14.62,38.08H801.57l35.87-93.5L824.18,73.93h161Zm-85-27.2h49.3l6.63-17.17h-49.3Z" transform="translate(-36.4 -73.93)" style="fill:red"/><path d="M1026.3,156.55h94.87l-10.38,27.2H969.87l35.86-93.5L992.47,73.93H1153l-10.54,27.37h-94.87Z" transform="translate(-36.4 -73.93)" style="fill:red"/><path d="M1210.24,115.24h95.37l-10.54,27.2H1199.7l-5.44,14.11h95.37l-10.37,27.2H1137.82l35.87-93.5-13.26-16.32h161l-10.54,27.37h-95.37Z" transform="translate(-36.4 -73.93)" style="fill:red"/></svg>