<svg id="Layer_1" data-name="Layer 1" xmlns="http://www.w3.org/2000/svg" viewBox="0 0 1201.73 132.77"><path d="M43,72.93H108l31.11,49.13,18.87-49.13H204L161.84,182.75H116.45L85.34,133.62,66.47,182.75H20.4l35.87-93.5Z" transform="translate(-20.4 -72.93)" style="fill:#fff"/><path d="M343.23,149.26,251.09,205.7l-49.3-56.44,23-60L211.48,72.93H277.1l-24,62.22,17,20.23,32.3-20.23,24-62.22h46.07Z" transform="translate(-20.4 -72.93)" style="fill:#fff"/><path d="M580,89.25,566.78,72.93H632.4L590.24,182.75H448.8l20.06-52.19L455.6,114.24h65.62l-16,41.31h49.3Z" transform="translate(-20.4 -72.93)" style="fill:#fff"/><path d="M689.69,114.24h95.37l-10.54,27.2H679.15l-5.44,14.11h95.37l-10.37,27.2H617.27l35.87-93.5L639.88,72.93h161L790.33,100.3H695Z" transform="translate(-20.4 -72.93)" style="fill:#fff"/><path d="M808.35,72.93H962L951.49,100.3H906.27l-31.62,82.45H828.58L860.2,100.3H829.43Z" transform="translate(-20.4 -72.93)" style="fill:#fff"/><path d="M1195.78,141.44h-95.71l-5.44,14.11h95.2l-10.37,27.2H1038.19l26.35-68.51h95.54l5.27-13.94H1070l4.25-11L1061,72.93h161.16Z" transform="translate(-20.4 -72.93)" style="fill:red"/></svg>