<svg id="Layer_1" data-name="Layer 1" xmlns="http://www.w3.org/2000/svg" viewBox="0 0 948.6 132.77"><path d="M65,71.93H130l31.11,49.13,18.87-49.13H226L183.84,181.75H138.45l-31.11-49.13L88.47,181.75H42.4l35.87-93.5Z" transform="translate(-42.4 -71.93)" style="fill:#fff"/><path d="M365.23,148.26,273.09,204.7l-49.3-56.44,23-60L233.48,71.93H299.1l-24,62.22,17,20.23,32.3-20.23,24-62.22h46.07Z" transform="translate(-42.4 -71.93)" style="fill:#fff"/><path d="M625.67,146.56H530.3l-13.43,35.19H470.8l35.87-93.5L493.41,71.93h161Zm-84.83-27.2h49.3l7.65-20.06h-49.3Z" transform="translate(-42.4 -71.93)" style="fill:red"/><path d="M795.16,143.67H769.83l10.54,38.08H734.13l-11.22-38.08H699.79l-14.62,38.08H639.1L675,88.25,661.71,71.93h161Zm-85-27.2h49.3l6.63-17.17h-49.3Z" transform="translate(-42.4 -71.93)" style="fill:red"/><path d="M843.26,88.25,830,71.93H991L948.83,181.75H807.4Zm41.82,11-21.25,55.25h49.3L934.38,99.3Z" transform="translate(-42.4 -71.93)" style="fill:red"/></svg>