<svg id="Layer_1" data-name="Layer 1" xmlns="http://www.w3.org/2000/svg" viewBox="0 0 761.43 109.82"><path d="M168.46,147.67H143.13l10.54,38.08H107.43L96.21,147.67H73.09L58.47,185.75H12.4l35.87-93.5L35,75.93H196Zm-85-27.2h49.3l6.63-17.17H90.09Z" transform="translate(-12.4 -75.93)" style="fill:#fff"/><path d="M203.31,75.93h65.62L226.77,185.75H180.7l35.87-93.5Z" transform="translate(-12.4 -75.93)" style="fill:#fff"/><path d="M426.52,103.3l-98.77,55.25h77.52l-10.37,27.2H253.63l10.54-27.37,98.77-55.08H298.51l-22.1-27.37H437.06Z" transform="translate(-12.4 -75.93)" style="fill:#fff"/><path d="M494.52,117.24h95.37l-10.54,27.2H484l-5.44,14.11h95.37l-10.37,27.2H422.1L458,92.25,444.71,75.93h161L595.16,103.3H499.79Z" transform="translate(-12.4 -75.93)" style="fill:#fff"/><path d="M763.29,103.3l-98.78,55.25H742l-10.37,27.2H590.4l10.53-27.37,98.78-55.08H635.28L613.17,75.93H773.83Z" transform="translate(-12.4 -75.93)" style="fill:#fff"/></svg>