<svg id="Layer_1" data-name="Layer 1" xmlns="http://www.w3.org/2000/svg" viewBox="0 0 1018.12 109.82"><path d="M30.4,179.75l10.37-27.2H136l5.44-14.11H46.21L66.27,86.25,53,69.93H213.83L203.29,97.3h-95.2l-5.27,13.94H198l-26.35,68.51Z" transform="translate(-30.4 -69.93)" style="fill:#fff"/><path d="M221.31,69.93H375L364.45,97.3H319.23l-31.62,82.45H241.54L273.16,97.3H242.39Z" transform="translate(-30.4 -69.93)" style="fill:#fff"/><path d="M501.3,179.75H455.23l13.43-35.19h-49.3l-13.43,35.19H359.86l35.87-93.5L382.47,69.93h161Zm-71.4-62.39h49.3l7.65-20.06h-49.3Z" transform="translate(-30.4 -69.93)" style="fill:#fff"/><path d="M684.22,141.67H658.89l10.54,38.08H623.19L612,141.67H588.85l-14.62,38.08H528.16L564,86.25,550.77,69.93h161Zm-85-27.2h49.3l6.63-17.17h-49.3Z" transform="translate(-30.4 -69.93)" style="fill:#fff"/><path d="M768.88,111.24h95.37l-10.54,27.2H758.33l-5.44,14.11h95.37l-10.37,27.2H696.46l35.86-93.5L719.06,69.93h161L869.51,97.3H774.14Z" transform="translate(-30.4 -69.93)" style="fill:#fff"/><path d="M960.12,179.75l8.16-21.42-16.66-20.06L919,158.67l-8.16,21.08H864.75l13.43-35.19,32.47-19.72-17-19.72,7.14-18.87L887.53,69.93h65.62L945,91l16.66,20.4,32.64-20.06,8.16-21.42h46.07l-13.6,35.53L1002.62,125l17.17,19.21-13.6,35.53Z" transform="translate(-30.4 -69.93)" style="fill:#fff"/></svg>