<svg id="Layer_1" data-name="Layer 1" xmlns="http://www.w3.org/2000/svg" viewBox="0 0 1453.66 109.82"><path d="M55,65.93h65.62L88.84,148.55h49.3l31.79-82.62H216L173.84,175.75H32.4l35.87-93.5Z" transform="translate(-32.4 -65.93)" style="fill:#fff"/><path d="M356.93,137.67H331.6l10.54,38.08H295.9l-11.22-38.08H261.56l-14.62,38.08H200.87l35.87-93.5L223.48,65.93h161Zm-85-27.2h49.3l6.63-17.17h-49.3Z" transform="translate(-32.4 -65.93)" style="fill:#fff"/><path d="M405,82.25,391.78,65.93h161l-13.6,35.53L506.87,121h24.65l-21.08,54.74H369.17Zm20.57,66.3h49.13l5.44-14.11H431.05Zm40.12-41.31L489,93.3H446.86l-5.27,13.94Z" transform="translate(-32.4 -65.93)" style="fill:#fff"/><path d="M679.08,175.75H633l13.43-35.19h-49.3l-13.43,35.19H537.64l35.87-93.5L560.25,65.93h161Zm-71.4-62.39H657l7.65-20.06h-49.3Z" transform="translate(-32.4 -65.93)" style="fill:#fff"/><path d="M728.55,65.93h64.94l31.11,49.13,18.87-49.13h46.07L847.38,175.75H802l-31.11-49.13L752,175.75H705.94l35.87-93.5Z" transform="translate(-32.4 -65.93)" style="fill:#fff"/><path d="M1120.73,140.56h-95.36l-13.44,35.19H965.87l35.86-93.5L988.47,65.93h161Zm-84.82-27.2h49.3l7.64-20.06h-49.3Z" transform="translate(-32.4 -65.93)" style="fill:red"/><path d="M1290.22,137.67h-25.33l10.54,38.08h-46.24L1218,137.67h-23.12l-14.62,38.08h-46.07L1170,82.25l-13.26-16.32h161Zm-85-27.2h49.3l6.63-17.17h-49.3Z" transform="translate(-32.4 -65.93)" style="fill:red"/><path d="M1338.33,82.25l-13.26-16.32h161L1443.9,175.75H1302.46Zm41.82,11-21.25,55.25h49.3l21.25-55.25Z" transform="translate(-32.4 -65.93)" style="fill:red"/></svg>