<svg id="Layer_1" data-name="Layer 1" xmlns="http://www.w3.org/2000/svg" viewBox="0 0 844.39 132.77"><path d="M174.76,144.26,82.62,200.7l-49.3-56.44,23-60L43,67.93h65.62l-24,62.22,17,20.23L134,130.15l24-62.22H204Z" transform="translate(-33.32 -67.93)" style="fill:#fff"/><path d="M261.29,109.24h95.37l-10.54,27.2H250.75l-5.44,14.11h95.37l-10.37,27.2H188.87l35.87-93.5L211.48,67.93h161L361.93,95.3H266.56Z" transform="translate(-33.32 -67.93)" style="fill:#fff"/><path d="M380,67.93h64.94L476,117.06l18.87-49.13h46.07L498.78,177.75H453.39l-31.11-49.13-18.87,49.13H357.34l35.87-93.5Z" transform="translate(-33.32 -67.93)" style="fill:#fff"/><path d="M548.42,67.93H614l-31.79,82.62h49.3l31.79-82.62h46.07L667.25,177.75H525.81l35.87-93.5Z" transform="translate(-33.32 -67.93)" style="fill:#fff"/><path d="M694.28,177.75l10.37-27.2h95.2l5.44-14.11h-95.2l20.06-52.19L716.89,67.93H877.71L867.17,95.3H772l-5.27,13.94h95.2l-26.35,68.51Z" transform="translate(-33.32 -67.93)" style="fill:#fff"/></svg>