<svg width="127" height="43" viewBox="0 0 127 43" fill="none" xmlns="http://www.w3.org/2000/svg">
<path d="M11.084 18.0617C11.0475 18.9185 11.0293 20.0033 11.0293 21.3159C11.0293 22.6285 11.0475 23.7223 11.084 24.5974C11.1204 25.4543 11.1933 26.1379 11.3027 26.6484C11.4303 27.1588 11.6035 27.5143 11.8223 27.7149C12.0593 27.9154 12.3692 28.0157 12.7521 28.0157C13.1349 28.0157 13.4357 27.9154 13.6545 27.7149C13.8915 27.5143 14.0647 27.1588 14.1741 26.6484C14.3017 26.1379 14.3837 25.4543 14.4202 24.5974C14.4567 23.7223 14.4749 22.6285 14.4749 21.3159C14.4749 20.0033 14.4567 18.9185 14.4202 18.0617C14.3837 17.1866 14.3017 16.4938 14.1741 15.9834C14.0647 15.4729 13.8915 15.1174 13.6545 14.9169C13.4357 14.7163 13.1349 14.616 12.7521 14.616C12.3692 14.616 12.0593 14.7163 11.8223 14.9169C11.6035 15.1174 11.4303 15.4729 11.3027 15.9834C11.1933 16.4938 11.1204 17.1866 11.084 18.0617Z" fill="#FEFBF9"/>
<path fill-rule="evenodd" clip-rule="evenodd" d="M12.053 1.00118C5.45924 1.14228 0.21804 6.58348 0.32384 13.1779L0.45384 21.2803L0.32384 29.3827C0.21804 35.9772 5.45924 41.4184 12.053 41.5594L20.1566 41.7328L28.2602 41.5594C34.854 41.4184 40.0953 35.9772 39.9895 29.3827L39.8595 21.2803L39.9895 13.1779C40.0953 6.58348 34.854 1.14228 28.2602 1.00118L20.1566 0.827881L12.053 1.00118ZM20.4366 31.5977L17.3738 34.2503L14.5845 31.2422C14.3657 31.2787 14.1469 31.3061 13.9282 31.3243C13.7276 31.3607 13.4997 31.379 13.2445 31.379H12.7523C11.4579 31.379 10.364 31.2058 9.47074 30.8594C8.57744 30.513 7.85734 29.9387 7.31044 29.1366C6.76354 28.3162 6.37154 27.2679 6.13454 25.9918C5.89754 24.6974 5.77904 23.1386 5.77904 21.3156C5.77904 19.4925 5.89754 17.9429 6.13454 16.6667C6.37154 15.3723 6.76354 14.3241 7.31044 13.5219C7.85734 12.7015 8.57744 12.109 9.47074 11.7444C10.364 11.3615 11.4579 11.1701 12.7523 11.1701C14.0467 11.1701 15.1405 11.3615 16.0338 11.7444C16.9271 12.109 17.6473 12.7015 18.1942 13.5219C18.7411 14.3241 19.1331 15.3723 19.3701 16.6667C19.6071 17.9429 19.7256 19.4925 19.7256 21.3156C19.7256 23.1933 19.598 24.7794 19.3427 26.0738C19.0875 27.3682 18.6682 28.4256 18.0848 29.246L20.4366 31.5977ZM29.0688 18.5809V17.4871C29.0688 16.375 28.9594 15.6184 28.7406 15.2174C28.5219 14.8163 28.1664 14.6157 27.6741 14.6157C27.2913 14.6157 26.9814 14.716 26.7444 14.9166C26.5256 15.1171 26.3524 15.4726 26.2248 15.9831C26.1154 16.4935 26.0425 17.1863 26.006 18.0614C25.9695 18.9182 25.9513 20.003 25.9513 21.3156C25.9513 22.6282 25.9695 23.722 26.006 24.5971C26.0425 25.454 26.1154 26.1376 26.2248 26.6481C26.3524 27.1585 26.5256 27.514 26.7444 27.7146C26.9814 27.9151 27.2913 28.0154 27.6741 28.0154C27.984 28.0154 28.2393 27.9425 28.4398 27.7966C28.6404 27.6325 28.7953 27.3682 28.9047 27.0036C29.0141 26.639 29.087 26.1558 29.1235 25.5542C29.1782 24.9344 29.2055 24.1596 29.2055 23.2298H34.1278V24.6792C34.1278 26.0465 33.9455 27.1677 33.5809 28.0427C33.2163 28.9178 32.7332 29.6106 32.1316 30.121C31.5299 30.6133 30.8372 30.9414 30.0532 31.1055C29.2876 31.2878 28.4945 31.379 27.6741 31.379C26.2521 31.379 25.0854 31.2058 24.1738 30.8594C23.2623 30.513 22.5513 29.9387 22.0408 29.1366C21.5303 28.3162 21.1748 27.2679 20.9743 25.9918C20.792 24.6974 20.7008 23.1386 20.7008 21.3156C20.7008 19.456 20.8102 17.8791 21.029 16.5847C21.266 15.2903 21.658 14.242 22.2049 13.4399C22.7518 12.6377 23.4719 12.0634 24.3652 11.717C25.2585 11.3524 26.3615 11.1701 27.6741 11.1701C28.8227 11.1701 29.798 11.316 30.6002 11.6077C31.4023 11.8994 32.0495 12.3187 32.5418 12.8656C33.0522 13.3943 33.4168 14.0415 33.6356 14.8072C33.8726 15.5546 33.9911 16.4024 33.9911 17.3504V18.5809H29.0688Z" fill="#FEFBF9"/>
<path fill-rule="evenodd" clip-rule="evenodd" d="M63.8879 14.764L68.3461 19.3905L72.8043 14.764H80.55L72.2131 22.6952L80.55 30.6263H72.8043L68.3461 25.988L63.8879 30.6263H56.1304L64.4674 22.6952L56.1304 14.764H63.8879ZM63.4581 22.6952L54.3906 14.0691H64.1843L68.3461 18.388L72.5079 14.0691H81.952V14.0573H97.958C101.618 14.0199 104.716 17.0805 104.666 20.7528C104.665 22.0737 104.308 23.2913 103.593 24.375C103.055 25.1953 102.373 25.8702 101.556 26.3834L104.969 30.7655V27.9236C104.969 25.697 106.633 24.2775 108.547 23.3361C110.48 22.3857 112.919 21.7919 114.95 21.3115L114.953 21.3108L114.976 21.305C116.228 20.9971 117.294 20.735 118.053 20.4523C118.437 20.309 118.689 20.1793 118.833 20.0691C118.851 20.0551 118.866 20.0427 118.879 20.032C118.835 19.9916 118.745 19.9313 118.568 19.8618C118.155 19.7001 117.45 19.5783 116.382 19.578C115.241 19.5898 114.271 19.6826 113.609 19.9148C113.283 20.0293 113.086 20.1597 112.975 20.2821C112.881 20.3872 112.825 20.5119 112.83 20.7075L112.847 21.4191H105.217V20.7242C105.217 19.2976 105.497 18.1048 106.057 17.1275C106.62 16.1458 107.44 15.429 108.44 14.9149C110.402 13.9062 113.105 13.656 116.119 13.656C119.205 13.656 121.767 14.0121 123.581 14.9289C124.499 15.3935 125.245 16.0118 125.758 16.8159C126.272 17.6221 126.524 18.5711 126.524 19.6502C126.524 21.6471 125.319 22.919 123.842 23.748C122.408 24.5529 120.603 25.01 119.104 25.3757H126.264V31.2977H105.383L105.392 31.3095H97.028L94.036 27.4383H89.541V31.3095H82.277L82.29 31.3213H72.5074L68.3461 26.9919L64.1848 31.3213H54.3906L63.4581 22.6952ZM81.952 30.9995V14.3908L73.2223 22.6952L81.952 30.9995ZM94.379 26.7434L97.371 30.6145H103.969L100.504 26.165C100.721 26.0645 100.928 25.9533 101.127 25.8317C101.885 25.3675 102.515 24.7508 103.011 23.9934C103.65 23.0256 103.969 21.9398 103.969 20.7478C104.017 17.4667 101.238 14.7168 97.962 14.7522H82.648V30.6145H88.844V26.7434H94.379ZM115.457 26.0706C115.674 25.8053 116.067 25.5797 116.589 25.3757C117.204 25.1349 117.996 24.9241 118.886 24.7134C121.937 23.9698 125.828 22.9548 125.828 19.6502C125.828 15.779 122.233 14.3509 116.119 14.3509C110.37 14.3509 106.293 15.2875 105.939 20.0292C105.922 20.2524 105.913 20.4839 105.913 20.7242H112.134C112.133 20.698 112.133 20.6722 112.134 20.6468C112.168 19.2369 114.114 18.9062 116.379 18.883C118.59 18.883 119.607 19.3787 119.607 20.0515C119.607 20.8819 117.645 21.3646 115.181 21.9705L115.114 21.987C111.022 22.9548 105.665 24.3003 105.665 27.9236V30.6027H125.567V26.0706H115.457ZM118.918 20.0853C118.918 20.0853 118.914 20.0809 118.912 20.0707C118.918 20.0799 118.918 20.0853 118.918 20.0853ZM97.065 20.7478C97.065 20.3763 96.773 20.0855 96.401 20.0855H89.541V21.3983H96.401C96.601 21.3983 96.741 21.3376 96.866 21.2124C97.009 21.0698 97.065 20.9272 97.065 20.7478ZM97.761 20.7478C97.761 19.9924 97.158 19.3905 96.401 19.3905H88.844V22.0932H96.401C96.779 22.0932 97.099 21.9634 97.359 21.7038C97.631 21.4323 97.761 21.1137 97.761 20.7478Z" fill="#FEFBF9"/>
<path d="M56.7031 42.0703H59.671V38.0066L62.6444 42.0703H64.1283L67.1018 38.0066V42.0703H70.0697V34.4529H66.3599L63.3864 38.2616L60.4186 34.4529H56.7031V42.0703Z" fill="#FEFBF9"/>
<path d="M76.3222 34.2659C73.4566 34.2716 71.1118 35.099 71.1231 37.9839V38.5393C71.1118 41.4185 73.4566 42.2517 76.3222 42.2573C79.1822 42.2517 81.5272 41.4185 81.5162 38.5393V37.9839C81.5162 35.1047 79.1882 34.2659 76.3222 34.2659ZM78.5482 38.3523C78.5652 39.5992 77.5342 39.8259 76.3222 39.8429C75.1048 39.8259 74.0739 39.5992 74.0909 38.3523V38.1653C74.0739 36.924 75.1048 36.6973 76.3222 36.6803C77.5342 36.6973 78.5652 36.924 78.5482 38.1653V38.3523Z" fill="#FEFBF9"/>
<path d="M89.8312 38.2727C89.8312 39.0378 89.3952 39.6669 88.6252 39.6669H85.3742V36.8784H88.6252C89.3952 36.8784 89.8312 37.5018 89.8312 38.2727ZM82.4062 34.464V42.0813H89.1802C91.2702 42.1097 92.8222 40.3414 92.8052 38.2727C92.8222 36.1926 91.2702 34.4356 89.1802 34.464H82.4062Z" fill="#FEFBF9"/>
<path d="M101.068 38.358C101.085 39.6105 100.055 39.8259 98.8416 39.8429C97.6246 39.8259 96.5996 39.6105 96.6106 38.358V34.4529H93.6426V38.545C93.6316 41.4242 95.9876 42.2517 98.8416 42.2573C101.697 42.2517 104.053 41.4242 104.042 38.545V34.4529H101.068V38.358Z" fill="#FEFBF9"/>
<path d="M105.377 34.4529V42.0703H114.287V39.6559H108.345V34.4529H105.377Z" fill="#FEFBF9"/>
<path d="M115.301 42.0814H124.211V40.1261H118.269V39.1512H124.211V37.3886H118.269V36.4137H124.211V34.4641H115.301V42.0814Z" fill="#FEFBF9"/>
<path d="M58.412 5.4334V3.8281H62.8109C63.024 3.8281 63.2095 3.9052 63.3607 4.0664C63.5188 4.2207 63.5944 4.4099 63.5944 4.6342C63.5944 4.8516 63.5188 5.0408 63.3607 5.2021C63.2095 5.3563 63.024 5.4334 62.8109 5.4334H58.412ZM54.8105 1.0732V10.4946H58.412V8.1953H63.7113C65.6152 8.2234 67.2304 6.576 67.2029 4.6342C67.2304 2.6855 65.6152 1.0521 63.7113 1.0732H54.8105Z" fill="#FEFBF9"/>
<path d="M74.3721 0.827881C70.8944 0.834881 68.0488 1.85838 68.0625 5.42648V6.11348C68.0488 9.67458 70.8944 10.705 74.3721 10.712C77.8428 10.705 80.6888 9.67458 80.6748 6.11348V5.42648C80.6748 1.86538 77.8498 0.827881 74.3721 0.827881ZM77.0728 5.88208C77.0938 7.42428 75.8428 7.70468 74.3721 7.72578C72.8944 7.70468 71.6435 7.42428 71.6641 5.88208V5.65078C71.6435 4.11558 72.8944 3.83518 74.3721 3.81418C75.8428 3.83518 77.0938 4.11558 77.0728 5.65078V5.88208Z" fill="#FEFBF9"/>
<path d="M94.7175 7.0385L92.5795 1.073H88.5245L86.3805 7.0385L84.2425 1.073H80.1875L84.2425 10.4944H88.5245L90.5525 5.7837L92.5795 10.4944H96.8615L100.917 1.073H96.8615L94.7175 7.0385Z" fill="#FEFBF9"/>
<path d="M101.191 10.4944H112.002V8.076H104.792V6.8702H112.002V4.6901H104.792V3.4844H112.002V1.073H101.191V10.4944Z" fill="#FEFBF9"/>
<path d="M113.92 1.06636V10.4879H117.521V8.18856H120.738L122.477 10.4879H126.312L124.298 7.84506C124.903 7.55766 125.391 7.12306 125.755 6.55526C126.127 5.98046 126.312 5.33556 126.312 4.62746C126.34 2.67866 124.724 1.04536 122.821 1.06636H113.92ZM121.913 3.82136C122.353 3.82136 122.704 4.17886 122.704 4.62746C122.704 4.84476 122.628 5.03406 122.47 5.19526C122.319 5.34956 122.133 5.42666 121.913 5.42666H117.521V3.82136H121.913Z" fill="#FEFBF9"/>
</svg>
