<svg width="122" height="43" viewBox="0 0 122 43" fill="none" xmlns="http://www.w3.org/2000/svg">
<path d="M23.6353 22.1991C23.6353 20.4468 24.6815 19.2261 26.2804 19.2261C27.8793 19.2261 28.9254 20.4468 28.9254 22.1991C28.9254 23.9318 27.8793 25.1722 26.2804 25.1722C24.6815 25.1722 23.6353 23.9318 23.6353 22.1991Z" fill="#FEFBF9"/>
<path d="M37.1562 19.1475C35.6363 19.1475 34.6099 20.3288 34.6099 21.9433C34.6099 23.5775 35.656 24.7982 37.1562 24.7982C38.8143 24.7982 39.9198 23.5578 39.9198 21.9433C39.9198 20.3485 38.8143 19.1475 37.1562 19.1475Z" fill="#FEFBF9"/>
<path d="M45.9673 22.1991C45.9673 20.4468 47.0135 19.2261 48.6124 19.2261C50.2113 19.2261 51.2575 20.4468 51.2575 22.1991C51.2575 23.9318 50.2113 25.1722 48.6124 25.1722C47.0135 25.1722 45.9673 23.9318 45.9673 22.1991Z" fill="#FEFBF9"/>
<path d="M62.0532 22.2187C62.0532 20.4663 63.1192 19.2456 64.797 19.2456C66.4749 19.2456 67.4815 20.486 67.4815 22.2187C67.4815 23.9513 66.4749 25.172 64.797 25.172C63.1192 25.172 62.0532 23.971 62.0532 22.2187Z" fill="#FEFBF9"/>
<path fill-rule="evenodd" clip-rule="evenodd" d="M61.0495 42.7977C94.5889 42.7977 121.778 33.2815 121.778 21.5426C121.778 9.80377 94.5889 0.287598 61.0495 0.287598C27.51 0.287598 0.320801 9.80377 0.320801 21.5426C0.320801 33.2815 27.51 42.7977 61.0495 42.7977ZM19.7331 27.0821V12.4333H17.3248V27.0821H19.7331ZM21.207 22.1991C21.207 25.1919 23.2205 27.3184 26.2801 27.3184C29.3397 27.3184 31.3531 25.1919 31.3531 22.1991C31.3531 19.2064 29.3397 17.08 26.2801 17.08C23.2205 17.08 21.207 19.2064 21.207 22.1991ZM36.7427 26.8852C33.9988 26.8852 32.1631 24.8375 32.1631 22.0023C32.1631 19.1473 34.0383 17.0406 36.8216 17.0406C38.2626 17.0406 39.4864 17.651 40.0786 18.6748L40.2168 17.3556H42.3487V26.5899C42.3487 29.7992 40.3353 31.8665 37.177 31.8665C34.4923 31.8665 32.5381 30.2127 32.2223 27.6727H34.6503C34.7884 28.9526 35.8149 29.6811 37.3151 29.6811C38.993 29.6811 39.9997 28.6178 39.9997 27.023V25.3692C39.3877 26.3142 38.1639 26.8852 36.7427 26.8852ZM43.5404 22.1991C43.5404 25.1919 45.5539 27.3184 48.6135 27.3184C51.6731 27.3184 53.6865 25.1919 53.6865 22.1991C53.6865 19.2064 51.6731 17.08 48.6135 17.08C45.5539 17.08 43.5404 19.2064 43.5404 22.1991ZM57.7338 13.9298C57.7338 14.737 57.0824 15.3671 56.2927 15.3671C55.4835 15.3671 54.8715 14.737 54.8715 13.9298C54.8715 13.1421 55.4835 12.5121 56.2927 12.5121C57.0824 12.5121 57.7338 13.1421 57.7338 13.9298ZM57.4969 17.3556V27.0821H55.0887V17.3556H57.4969ZM59.6067 31.5909H61.9557V25.7432C62.5676 26.7473 63.8901 27.338 65.3509 27.338C68.2329 27.338 69.9502 25.1329 69.9107 22.1007C69.8515 19.0489 68.0947 17.0603 65.3311 17.0603C63.8507 17.0603 62.5084 17.71 61.9162 18.8323L61.778 17.3556H59.6067V31.5909ZM74.4306 27.338C72.1013 27.338 70.6011 26.0976 70.5222 24.1681H72.7133C72.7133 25.0147 73.3252 25.5069 74.3911 25.5069C75.2794 25.5069 76.0098 25.1526 76.0098 24.3847C76.0098 23.8333 75.6149 23.538 74.9833 23.3608L73.2858 22.9276C71.4105 22.4354 70.6801 21.3919 70.6801 20.1318C70.6801 18.281 72.2395 17.0603 74.3319 17.0603C76.444 17.0603 77.885 18.281 77.964 20.2106H75.7729C75.7729 19.3639 75.1807 18.852 74.2727 18.852C73.4042 18.852 72.8712 19.3245 72.8712 19.994C72.8712 20.6241 73.3647 20.88 74.095 21.0769L75.8124 21.4903C77.4113 21.8841 78.2798 22.8292 78.2798 24.2272C78.2798 26.1173 76.7204 27.338 74.4306 27.338ZM83.2752 27.338C84.5973 27.338 85.8605 26.7276 86.4331 25.822L86.5914 27.0821H88.8415V17.3556H86.4331V22.4551C86.4331 24.2075 85.762 25.1919 84.183 25.1919C82.9594 25.1919 82.1106 24.6012 82.1106 22.593V17.3556H79.7021V23.4396C79.7021 25.7629 80.9654 27.338 83.2752 27.338ZM93.3754 21.4903V27.0821H90.967V17.3556H93.1775L93.2963 18.4583C93.8689 17.5919 94.8954 17.0603 96.0399 17.0603C97.6584 17.0603 98.7245 17.7691 99.2575 18.9111C99.7316 17.7691 100.896 17.0603 102.377 17.0603C104.746 17.0603 105.988 18.478 105.988 20.7225V27.0821H103.659V21.2737C103.659 19.8956 102.91 19.1671 101.745 19.1671C100.6 19.1671 99.6921 19.9153 99.6921 21.51V27.0821H97.3426V21.2737C97.3426 19.8956 96.5931 19.1671 95.4479 19.1671C94.3034 19.1671 93.3754 19.9153 93.3754 21.4903Z" fill="#FEFBF9"/>
</svg>
