<svg width="87" height="24" viewBox="0 0 87 24" fill="none" xmlns="http://www.w3.org/2000/svg">
<path d="M1.50253 3.76C1.50253 3.28 1.47053 2.928 1.40653 2.704C1.35853 2.464 1.17453 2.344 0.85453 2.344V2.2H6.35053V2.344C6.03053 2.344 5.83853 2.464 5.77453 2.704C5.72653 2.928 5.70253 3.28 5.70253 3.76V8.248H7.67053V3.76C7.67053 3.28 7.63853 2.928 7.57453 2.704C7.52653 2.464 7.34253 2.344 7.02253 2.344V2.2H12.5185V2.344C12.2145 2.344 12.0305 2.464 11.9665 2.704C11.9025 2.928 11.8705 3.28 11.8705 3.76V17.44C11.8705 17.92 11.9025 18.28 11.9665 18.52C12.0305 18.744 12.2145 18.856 12.5185 18.856V19H7.02253V18.856C7.34253 18.856 7.52653 18.744 7.57453 18.52C7.63853 18.28 7.67053 17.92 7.67053 17.44V8.776H5.70253V17.44C5.70253 17.92 5.72653 18.28 5.77453 18.52C5.83853 18.744 6.03053 18.856 6.35053 18.856V19H0.85453V18.856C1.17453 18.856 1.35853 18.744 1.40653 18.52C1.47053 18.28 1.50253 17.92 1.50253 17.44V3.76ZM20.6568 2.056C21.6008 2.056 22.4728 2.272 23.2728 2.704C24.0728 3.136 24.7608 3.736 25.3368 4.504C25.9128 5.272 26.3608 6.184 26.6808 7.24C27.0168 8.296 27.1848 9.448 27.1848 10.696C27.1848 11.928 27.0248 13.064 26.7048 14.104C26.3848 15.128 25.9368 16.016 25.3608 16.768C24.7848 17.52 24.0968 18.104 23.2968 18.52C22.5128 18.936 21.6488 19.144 20.7048 19.144C19.7608 19.144 18.8888 18.936 18.0888 18.52C17.2888 18.088 16.6008 17.496 16.0248 16.744C15.4488 15.976 15.0008 15.072 14.6808 14.032C14.3608 12.992 14.2008 11.856 14.2008 10.624C14.2008 9.392 14.3608 8.256 14.6808 7.216C15.0008 6.16 15.4488 5.256 16.0248 4.504C16.6008 3.736 17.2808 3.136 18.0648 2.704C18.8648 2.272 19.7288 2.056 20.6568 2.056ZM20.6568 2.512C20.3368 2.512 20.0408 2.704 19.7688 3.088C19.5128 3.472 19.2888 4.016 19.0968 4.72C18.9208 5.424 18.7768 6.272 18.6648 7.264C18.5688 8.24 18.5208 9.336 18.5208 10.552C18.5208 11.784 18.5688 12.904 18.6648 13.912C18.7768 14.904 18.9288 15.76 19.1208 16.48C19.3128 17.184 19.5448 17.728 19.8168 18.112C20.0888 18.496 20.3848 18.688 20.7048 18.688C21.0248 18.688 21.3128 18.504 21.5688 18.136C21.8408 17.752 22.0728 17.216 22.2648 16.528C22.4568 15.824 22.6008 14.984 22.6968 14.008C22.8088 13.016 22.8648 11.912 22.8648 10.696C22.8648 9.464 22.8088 8.344 22.6968 7.336C22.6008 6.328 22.4568 5.472 22.2648 4.768C22.0728 4.048 21.8408 3.496 21.5688 3.112C21.2968 2.712 20.9928 2.512 20.6568 2.512ZM38.9037 3.76C38.9037 3.28 38.8637 2.928 38.7837 2.704C38.7197 2.464 38.5277 2.344 38.2077 2.344V2.2H40.1037V2.344C39.7837 2.344 39.5917 2.464 39.5277 2.704C39.4797 2.928 39.4557 3.28 39.4557 3.76V17.416C39.4557 17.896 39.4797 18.256 39.5277 18.496C39.5917 18.736 39.7837 18.856 40.1037 18.856V19H34.9917L29.9517 4V17.416C29.9517 17.896 29.9837 18.256 30.0477 18.496C30.1117 18.736 30.3197 18.856 30.6717 18.856V19H28.7517V18.856C29.0717 18.856 29.2557 18.736 29.3037 18.496C29.3677 18.256 29.3997 17.896 29.3997 17.416V3.76C29.3997 3.28 29.3677 2.928 29.3037 2.704C29.2557 2.464 29.0717 2.344 28.7517 2.344V2.2H33.6957L38.9037 17.68V3.76ZM48.1349 2.056C49.0789 2.056 49.9509 2.272 50.7509 2.704C51.5509 3.136 52.2389 3.736 52.8149 4.504C53.3909 5.272 53.8389 6.184 54.1589 7.24C54.4949 8.296 54.6629 9.448 54.6629 10.696C54.6629 11.928 54.5029 13.064 54.1829 14.104C53.8629 15.128 53.4149 16.016 52.8389 16.768C52.2629 17.52 51.5749 18.104 50.7749 18.52C49.9909 18.936 49.1269 19.144 48.1829 19.144C47.2389 19.144 46.3669 18.936 45.5669 18.52C44.7669 18.088 44.0789 17.496 43.5029 16.744C42.9269 15.976 42.4789 15.072 42.1589 14.032C41.8389 12.992 41.6789 11.856 41.6789 10.624C41.6789 9.392 41.8389 8.256 42.1589 7.216C42.4789 6.16 42.9269 5.256 43.5029 4.504C44.0789 3.736 44.7589 3.136 45.5429 2.704C46.3429 2.272 47.2069 2.056 48.1349 2.056ZM48.1349 2.512C47.8149 2.512 47.5189 2.704 47.2469 3.088C46.9909 3.472 46.7669 4.016 46.5749 4.72C46.3989 5.424 46.2549 6.272 46.1429 7.264C46.0469 8.24 45.9989 9.336 45.9989 10.552C45.9989 11.784 46.0469 12.904 46.1429 13.912C46.2549 14.904 46.4069 15.76 46.5989 16.48C46.7909 17.184 47.0229 17.728 47.2949 18.112C47.5669 18.496 47.8629 18.688 48.1829 18.688C48.5029 18.688 48.7909 18.504 49.0469 18.136C49.3189 17.752 49.5509 17.216 49.7429 16.528C49.9349 15.824 50.0789 14.984 50.1749 14.008C50.2869 13.016 50.3429 11.912 50.3429 10.696C50.3429 9.464 50.2869 8.344 50.1749 7.336C50.0789 6.328 49.9349 5.472 49.7429 4.768C49.5509 4.048 49.3189 3.496 49.0469 3.112C48.7749 2.712 48.4709 2.512 48.1349 2.512ZM67.0298 19C66.5658 19 66.1338 18.984 65.7338 18.952C65.3498 18.92 64.9978 18.816 64.6778 18.64C64.3578 18.464 64.0778 18.192 63.8378 17.824C63.5978 17.456 63.3898 16.936 63.2138 16.264L61.1978 8.224V17.44C61.1978 18.032 61.2378 18.416 61.3178 18.592C61.3978 18.768 61.5738 18.856 61.8458 18.856V19H56.3498V18.856C56.6218 18.856 56.7978 18.768 56.8778 18.592C56.9578 18.416 56.9978 18.032 56.9978 17.44V3.76C56.9978 3.168 56.9578 2.784 56.8778 2.608C56.7978 2.432 56.6218 2.344 56.3498 2.344V2.2H62.9978C63.7338 2.2 64.3978 2.288 64.9898 2.464C65.5978 2.624 66.1098 2.864 66.5258 3.184C66.9578 3.488 67.2858 3.864 67.5098 4.312C67.7498 4.76 67.8698 5.264 67.8698 5.824C67.8698 6.304 67.7818 6.752 67.6058 7.168C67.4458 7.568 67.2138 7.92 66.9098 8.224C66.6218 8.512 66.2778 8.744 65.8778 8.92C65.4778 9.08 65.0378 9.16 64.5578 9.16C64.0458 9.16 63.5338 9.072 63.0218 8.896C62.5098 8.704 62.0698 8.448 61.7018 8.128L61.7978 8.512C61.8938 8.88 62.0538 9.168 62.2778 9.376C62.5178 9.568 62.7898 9.736 63.0938 9.88C63.4138 10.024 63.7498 10.16 64.1018 10.288C64.4538 10.416 64.7898 10.592 65.1098 10.816C65.4458 11.024 65.7498 11.304 66.0218 11.656C66.3098 12.008 66.5258 12.48 66.6698 13.072L67.5098 16.36C67.9258 18.024 68.4538 18.856 69.0938 18.856V19H67.0298ZM61.1978 7.12C61.3258 7.264 61.5018 7.432 61.7258 7.624C61.9658 7.816 62.2218 7.912 62.4938 7.912C62.8618 7.912 63.1498 7.704 63.3578 7.288C63.5658 6.872 63.6698 6.304 63.6698 5.584C63.6698 3.68 62.9418 2.728 61.4858 2.728H61.1978V7.12Z" fill="#EBF2F2"/>
<path d="M77.4712 10.15V3.6925H80.63C81.0383 3.6925 81.4117 3.77708 81.75 3.94625C82.0942 4.11542 82.3654 4.36042 82.5637 4.68125C82.7679 4.99625 82.87 5.38125 82.87 5.83625C82.87 6.29125 82.765 6.67917 82.555 7C82.345 7.32083 82.065 7.56583 81.715 7.735C81.365 7.89833 80.9771 7.98 80.5513 7.98H78.39V6.76375H80.2012C80.4462 6.76375 80.6562 6.685 80.8312 6.5275C81.0121 6.37 81.1025 6.13667 81.1025 5.8275C81.1025 5.50667 81.0121 5.27917 80.8312 5.145C80.6562 5.005 80.4492 4.935 80.21 4.935H79.1512V10.15H77.4712ZM81.5925 7.16625L83.0625 10.15H81.225L79.8512 7.16625H81.5925ZM80 14C79.0317 14 78.1246 13.8192 77.2787 13.4575C76.4329 13.0958 75.6892 12.5942 75.0475 11.9525C74.4058 11.3108 73.9042 10.5671 73.5425 9.72125C73.1808 8.87542 73 7.96833 73 7C73 6.03167 73.1808 5.12458 73.5425 4.27875C73.9042 3.43292 74.4058 2.68917 75.0475 2.0475C75.6892 1.40583 76.4329 0.904167 77.2787 0.5425C78.1246 0.180833 79.0317 0 80 0C80.9683 0 81.8754 0.180833 82.7212 0.5425C83.5671 0.904167 84.3108 1.40583 84.9525 2.0475C85.5942 2.68917 86.0958 3.43292 86.4575 4.27875C86.8192 5.12458 87 6.03167 87 7C87 7.96833 86.8192 8.87542 86.4575 9.72125C86.0958 10.5671 85.5942 11.3108 84.9525 11.9525C84.3108 12.5942 83.5671 13.0958 82.7212 13.4575C81.8754 13.8192 80.9683 14 80 14ZM80 12.1537C80.9567 12.1537 81.8229 11.9233 82.5988 11.4625C83.3804 10.9958 84.0017 10.3746 84.4625 9.59875C84.9233 8.81708 85.1537 7.95083 85.1537 7C85.1537 6.04917 84.9204 5.18583 84.4537 4.41C83.9929 3.62833 83.3717 3.00708 82.59 2.54625C81.8142 2.07958 80.9508 1.84625 80 1.84625C79.055 1.84625 78.1917 2.07958 77.41 2.54625C76.6283 3.00708 76.0071 3.62833 75.5462 4.41C75.0854 5.18583 74.855 6.04917 74.855 7C74.855 7.95083 75.0854 8.81708 75.5462 9.59875C76.0071 10.3746 76.6283 10.9958 77.41 11.4625C78.1917 11.9233 79.055 12.1537 80 12.1537Z" fill="#EBF2F2"/>
</svg>
