<svg id="Layer_1" data-name="Layer 1" xmlns="http://www.w3.org/2000/svg" viewBox="0 0 849.66 109.82"><path d="M58.27,82.25,45,65.93H206l-13.6,35.53L160.1,121h24.65l-21.08,54.74H22.4Zm20.57,66.3H128l5.44-14.11H84.28ZM119,107.24,142.25,93.3H100.09l-5.27,13.94Z" transform="translate(-22.4 -65.93)" style="fill:#fff"/><path d="M263.29,107.24h95.37l-10.54,27.2H252.75l-5.44,14.11h95.37l-10.37,27.2H190.87l35.87-93.5L213.48,65.93h161L363.93,93.3H268.56Z" transform="translate(-22.4 -65.93)" style="fill:#fff"/><path d="M500.78,175.75H454.71l13.43-35.19h-49.3l-13.43,35.19H359.34l35.87-93.5L382,65.93h161Zm-71.4-62.39h49.3l7.65-20.06H437Z" transform="translate(-22.4 -65.93)" style="fill:#fff"/><path d="M550.25,65.93H703.93L693.39,93.3H648.17l-31.62,82.45H570.48L602.1,93.3H571.33Z" transform="translate(-22.4 -65.93)" style="fill:#fff"/><path d="M861.52,93.3l-98.77,55.25h77.52l-10.37,27.2H688.63l10.54-27.37L797.94,93.3H733.51l-22.1-27.37H872.06Z" transform="translate(-22.4 -65.93)" style="fill:#fff"/></svg>