<svg id="Layer_1" data-name="Layer 1" xmlns="http://www.w3.org/2000/svg" viewBox="0 0 520.54 132.77"><path d="M55,67.93H120l31.11,49.13,18.87-49.13H216L173.84,177.75H128.45L97.34,128.62,78.47,177.75H32.4l35.87-93.5Z" transform="translate(-32.4 -67.93)" style="fill:#fff"/><path d="M355.23,144.26,263.09,200.7l-49.3-56.44,23-60L223.48,67.93H289.1l-24,62.22,17,20.23,32.3-20.23,24-62.22h46.07Z" transform="translate(-32.4 -67.93)" style="fill:#fff"/><path d="M525.4,139.67H500.07l10.54,38.08H464.37l-11.22-38.08H430l-14.62,38.08H369.34l35.87-93.5L392,67.93h161Zm-85-27.2h49.3l6.63-17.17H447Z" transform="translate(-32.4 -67.93)" style="fill:#fff"/></svg>