<svg id="Layer_1" data-name="Layer 1" xmlns="http://www.w3.org/2000/svg" viewBox="0 0 888.41 109.82"><path d="M186.46,143.67H161.13l10.54,38.08H125.43l-11.22-38.08H91.09L76.47,181.75H30.4l35.87-93.5L53,71.93H214Zm-85-27.2h49.3l6.63-17.17h-49.3Z" transform="translate(-30.4 -71.93)" style="fill:#fff"/><path d="M340.14,181.75H294.07l13.43-35.19H258.2l-13.43,35.19H198.7l35.87-93.5L221.31,71.93h161Zm-71.4-62.39H318l7.65-20.06h-49.3Z" transform="translate(-30.4 -71.93)" style="fill:#fff"/><path d="M389.61,71.93H608.06L565.9,181.75H519.83l31.79-82.62H521.19L489.4,181.75H443.33l31.79-82.62H444.86l-31.79,82.62H367l35.87-93.5Z" transform="translate(-30.4 -71.93)" style="fill:#fff"/><path d="M707,71.93h65.62L730.45,181.75H684.38l35.87-93.5Z" transform="translate(-30.4 -71.93)" style="fill:red"/><path d="M780.09,71.93h65.62L803.55,181.75H757.48l35.87-93.5Z" transform="translate(-30.4 -71.93)" style="fill:red"/><path d="M853.19,71.93h65.62L876.65,181.75H830.58l35.87-93.5Z" transform="translate(-30.4 -71.93)" style="fill:red"/></svg>