<?xml version="1.0" encoding="UTF-8"?><svg id="a" xmlns="http://www.w3.org/2000/svg" viewBox="0 0 766.5 161.5"><path d="M0,161.5H207.75l38.75-100.75h-101.75l-15.5,40h34l-8,20.75H83l31.25-81.25H254.25L269.75,0H33.25l19.5,24L0,161.5Z" style="fill:#fff;"/><path d="M280.75,0l31,40.25h45.25l-46.5,121.25h67.75l46.5-121.25h66.5L506.75,0h-226Z" style="fill:#fff;"/><path d="M603,60.75l7.75-20.5h140.25L766.5,0h-236.75l19.5,24-52.75,137.5h208l38.75-100.75h-140.25Zm-23.5,60.75l8-20.75h72.5l-8,20.75h-72.5Z" style="fill:red;"/></svg>